<svg width="595" height="492" viewBox="0 0 595 492" fill="none" xmlns="http://www.w3.org/2000/svg">
<path d="M594.737 274.613C595.578 277.243 594.128 280.057 591.498 280.898C588.867 281.739 586.053 280.289 585.212 277.659L594.737 274.613ZM585.212 277.659C572.933 239.252 524.556 217.055 478.879 230.179L476.117 220.568C525.721 206.316 580.436 229.883 594.737 274.613L585.212 277.659Z" fill="#A3B18A"/>
<path d="M480.177 214.218C486.528 219.536 487.365 228.997 482.046 235.348L460.477 261.105C354.102 388.132 164.892 404.874 37.8645 298.499L12.1082 276.93C5.75686 271.611 4.91976 262.151 10.2385 255.799L31.8073 230.043C138.183 103.016 327.393 86.2737 454.42 192.649L480.177 214.218Z" fill="#EFEDE5" stroke="#A3B18A" stroke-width="10" stroke-linejoin="round"/>
<path d="M105.88 239V216.44H125.08V239H120.28V220.76H110.68V239H105.88ZM130.818 249.176V216.44H135.138L135.57 218.36L135.858 218.6L136.098 218.36C137.698 216.76 139.778 215.96 142.338 215.96C145.538 215.96 148.258 217.064 150.498 219.272C152.738 221.48 153.858 224.296 153.858 227.72C153.858 231.144 152.738 233.96 150.498 236.168C148.258 238.376 145.538 239.48 142.338 239.48C139.778 239.48 137.698 238.68 136.098 237.08L135.858 236.84L135.57 237.08V249.176H130.818ZM137.106 222.44C135.794 223.88 135.138 225.64 135.138 227.72C135.138 229.8 135.794 231.56 137.106 233C138.418 234.44 140.082 235.16 142.098 235.16C144.306 235.16 146.018 234.456 147.234 233.048C148.45 231.64 149.058 229.864 149.058 227.72C149.058 225.576 148.45 223.8 147.234 222.392C146.018 220.984 144.306 220.28 142.098 220.28C140.082 220.28 138.418 221 137.106 222.44ZM158.193 239V216.44H162.897V231.8L171.873 216.44H177.393V239H172.689V223.64L163.713 239H158.193ZM183.13 239V216.44H192.73C195.322 216.44 197.322 217.032 198.73 218.216C200.17 219.4 200.89 220.968 200.89 222.92C200.89 224.808 199.994 226.328 198.202 227.48C200.314 228.632 201.37 230.232 201.37 232.28C201.37 234.328 200.618 235.96 199.114 237.176C197.642 238.392 195.594 239 192.97 239H183.13ZM187.834 234.872H193.45C194.378 234.872 195.13 234.632 195.706 234.152C196.282 233.64 196.57 233.016 196.57 232.28C196.57 230.52 195.53 229.64 193.45 229.64H187.834V234.872ZM187.834 225.56H192.97C193.866 225.56 194.602 225.368 195.178 224.984C195.786 224.568 196.09 223.96 196.09 223.16C196.09 222.328 195.802 221.688 195.226 221.24C194.682 220.792 193.93 220.568 192.97 220.568H187.834V225.56ZM225.873 228.92H209.553C209.553 230.68 210.129 232.168 211.281 233.384C212.465 234.568 214.049 235.16 216.033 235.16C217.409 235.16 218.577 234.856 219.537 234.248C220.529 233.608 221.217 232.792 221.601 231.8L225.633 233.72C223.425 237.56 220.145 239.48 215.793 239.48C212.721 239.48 210.113 238.376 207.969 236.168C205.825 233.96 204.753 231.144 204.753 227.72C204.753 224.264 205.793 221.448 207.873 219.272C209.985 217.064 212.625 215.96 215.793 215.96C218.737 215.96 221.233 217.032 223.281 219.176C225.329 221.32 226.353 224.088 226.353 227.48L225.873 228.92ZM215.793 220.28C212.657 220.28 210.657 221.752 209.793 224.696H221.313C221.185 223.448 220.593 222.408 219.537 221.576C218.481 220.712 217.233 220.28 215.793 220.28ZM227.054 220.76V216.44H246.254V220.76H239.054V239H234.254V220.76H227.054ZM252.514 230.84L250.594 216.44L250.114 203.96H255.874L255.394 216.44L253.474 230.84H252.514ZM250.114 239V233.24H255.874V239H250.114ZM284.937 231.128L291.177 216.44H296.697V239H292.377V224.12L287.097 236.6H282.777L277.497 224.12V239H273.177V216.44H278.697L284.937 231.128ZM322.154 228.92H305.834C305.834 230.68 306.41 232.168 307.562 233.384C308.746 234.568 310.33 235.16 312.314 235.16C313.69 235.16 314.858 234.856 315.818 234.248C316.81 233.608 317.498 232.792 317.882 231.8L321.914 233.72C319.706 237.56 316.426 239.48 312.074 239.48C309.002 239.48 306.394 238.376 304.25 236.168C302.106 233.96 301.034 231.144 301.034 227.72C301.034 224.264 302.074 221.448 304.154 219.272C306.266 217.064 308.906 215.96 312.074 215.96C315.018 215.96 317.514 217.032 319.562 219.176C321.61 221.32 322.634 224.088 322.634 227.48L322.154 228.92ZM312.074 220.28C308.938 220.28 306.938 221.752 306.074 224.696H317.594C317.466 223.448 316.874 222.408 315.818 221.576C314.762 220.712 313.514 220.28 312.074 220.28ZM326.708 239V216.44H331.508V225.08H341.108V216.44H345.908V239H341.108V229.4H331.508V239H326.708ZM355.726 239H350.686V238.52L358.174 229.784C355.966 229.592 354.206 228.872 352.894 227.624C351.582 226.344 350.926 224.92 350.926 223.352C350.926 221.24 351.614 219.56 352.99 218.312C354.366 217.064 356.398 216.44 359.086 216.44H368.446V239H364.03V229.784H363.166L355.726 239ZM356.302 221.096C355.758 221.608 355.486 222.296 355.486 223.16C355.486 224.024 355.806 224.728 356.446 225.272C357.086 225.784 357.918 226.04 358.942 226.04H364.126V220.28H358.702C357.678 220.28 356.878 220.552 356.302 221.096ZM109.768 286.64V282.416H113.128C114.28 282.416 115.16 282.192 115.768 281.744C116.408 281.264 116.728 280.656 116.728 279.92C116.728 279.152 116.392 278.512 115.72 278C115.08 277.488 114.136 277.232 112.888 277.232C111.64 277.232 110.632 277.488 109.864 278C109.128 278.48 108.76 279.04 108.76 279.68H104.248C104.248 277.952 105.096 276.4 106.792 275.024C108.52 273.648 110.552 272.96 112.888 272.96C115.288 272.96 117.288 273.6 118.888 274.88C120.488 276.16 121.288 277.76 121.288 279.68C121.288 281.696 120.36 283.312 118.504 284.528C120.68 285.68 121.768 287.344 121.768 289.52C121.768 291.44 120.968 293.088 119.368 294.464C117.8 295.808 115.64 296.48 112.888 296.48C110.616 296.48 108.696 295.888 107.128 294.704C105.56 293.52 104.504 292.032 103.96 290.24L108.328 288.8C108.456 289.728 108.904 290.528 109.672 291.2C110.472 291.872 111.544 292.208 112.888 292.208C114.328 292.208 115.4 291.92 116.104 291.344C116.84 290.768 117.208 290.08 117.208 289.28C117.208 288.448 116.824 287.808 116.056 287.36C115.288 286.88 114.232 286.64 112.888 286.64H109.768ZM128.099 293.168C125.795 290.928 124.643 288.112 124.643 284.72C124.643 281.328 125.795 278.528 128.099 276.32C130.435 274.08 133.203 272.96 136.403 272.96C139.603 272.96 142.355 274.08 144.659 276.32C146.995 278.528 148.163 281.328 148.163 284.72C148.163 288.112 146.995 290.928 144.659 293.168C142.355 295.376 139.603 296.48 136.403 296.48C133.203 296.48 130.435 295.376 128.099 293.168ZM131.267 279.392C130.051 280.8 129.443 282.576 129.443 284.72C129.443 286.864 130.051 288.64 131.267 290.048C132.483 291.456 134.195 292.16 136.403 292.16C138.611 292.16 140.323 291.456 141.539 290.048C142.755 288.64 143.363 286.864 143.363 284.72C143.363 282.576 142.755 280.8 141.539 279.392C140.323 277.984 138.611 277.28 136.403 277.28C134.195 277.28 132.483 277.984 131.267 279.392ZM152.474 296V273.44H162.074C164.666 273.44 166.666 274.032 168.074 275.216C169.514 276.4 170.234 277.968 170.234 279.92C170.234 281.808 169.338 283.328 167.546 284.48C169.658 285.632 170.714 287.232 170.714 289.28C170.714 291.328 169.962 292.96 168.458 294.176C166.986 295.392 164.938 296 162.314 296H152.474ZM157.178 291.872H162.794C163.722 291.872 164.474 291.632 165.05 291.152C165.626 290.64 165.914 290.016 165.914 289.28C165.914 287.52 164.874 286.64 162.794 286.64H157.178V291.872ZM157.178 282.56H162.314C163.21 282.56 163.946 282.368 164.522 281.984C165.13 281.568 165.434 280.96 165.434 280.16C165.434 279.328 165.146 278.688 164.57 278.24C164.026 277.792 163.274 277.568 162.314 277.568H157.178V282.56ZM182.273 286.976L187.313 273.44H192.113L180.113 305.6H175.313L180.017 293.024L172.433 273.44H177.281L182.273 286.976ZM193.538 277.76V273.44H212.738V277.76H205.538V296H200.738V277.76H193.538ZM228.13 296V273.44H244.45V277.76H232.93V296H228.13ZM247.818 306.176V273.44H252.138L252.57 275.36L252.858 275.6L253.098 275.36C254.698 273.76 256.778 272.96 259.338 272.96C262.538 272.96 265.258 274.064 267.498 276.272C269.738 278.48 270.858 281.296 270.858 284.72C270.858 288.144 269.738 290.96 267.498 293.168C265.258 295.376 262.538 296.48 259.338 296.48C256.778 296.48 254.698 295.68 253.098 294.08L252.858 293.84L252.57 294.08V306.176H247.818ZM254.106 279.44C252.794 280.88 252.138 282.64 252.138 284.72C252.138 286.8 252.794 288.56 254.106 290C255.418 291.44 257.082 292.16 259.098 292.16C261.306 292.16 263.018 291.456 264.234 290.048C265.45 288.64 266.058 286.864 266.058 284.72C266.058 282.576 265.45 280.8 264.234 279.392C263.018 277.984 261.306 277.28 259.098 277.28C257.082 277.28 255.418 278 254.106 279.44ZM281.179 286.976L286.219 273.44H291.019L279.019 305.6H274.219L278.923 293.024L271.339 273.44H276.187L281.179 286.976ZM319.372 291.68V273.44H324.124V296H294.364V273.44H299.116V291.68H306.892V273.44H311.596V291.68H319.372ZM331.912 293.168C329.608 290.928 328.456 288.112 328.456 284.72C328.456 281.328 329.608 278.528 331.912 276.32C334.248 274.08 337.016 272.96 340.216 272.96C343.416 272.96 346.168 274.08 348.472 276.32C350.808 278.528 351.976 281.328 351.976 284.72C351.976 288.112 350.808 290.928 348.472 293.168C346.168 295.376 343.416 296.48 340.216 296.48C337.016 296.48 334.248 295.376 331.912 293.168ZM335.08 279.392C333.864 280.8 333.256 282.576 333.256 284.72C333.256 286.864 333.864 288.64 335.08 290.048C336.296 291.456 338.008 292.16 340.216 292.16C342.424 292.16 344.136 291.456 345.352 290.048C346.568 288.64 347.176 286.864 347.176 284.72C347.176 282.576 346.568 280.8 345.352 279.392C344.136 277.984 342.424 277.28 340.216 277.28C338.008 277.28 336.296 277.984 335.08 279.392ZM361.086 282.56L370.206 273.44H376.446L365.598 284.288L376.926 296H370.686L361.086 286.4V296H356.286V273.44H361.086V282.56Z" fill="#216037"/>
</svg>
