<svg width="595" height="492" viewBox="0 0 595 492" fill="none" xmlns="http://www.w3.org/2000/svg">
<path d="M0.237217 274.574C-0.603732 277.204 0.846791 280.018 3.47705 280.859C6.10731 281.7 8.92128 280.249 9.76223 277.619L0.237217 274.574ZM9.76223 277.619C22.0416 239.212 70.4183 217.015 116.096 230.14L118.857 220.529C69.2534 206.276 14.5384 229.843 0.237217 274.574L9.76223 277.619Z" fill="#A3B18A"/>
<path d="M114.798 214.178C108.447 219.497 107.61 228.957 112.928 235.309L134.497 261.065C240.872 388.093 430.083 404.835 557.11 298.459L582.866 276.891C589.218 271.572 590.055 262.111 584.736 255.76L563.167 230.004C456.792 102.976 267.582 86.2341 140.554 192.609L114.798 214.178Z" fill="#EFEDE5" stroke="#A3B18A" stroke-width="10" stroke-linejoin="round"/>
<path d="M207.88 225V202.44H227.08V225H222.28V206.76H212.68V225H207.88ZM232.818 235.176V202.44H237.138L237.57 204.36L237.858 204.6L238.098 204.36C239.698 202.76 241.778 201.96 244.338 201.96C247.538 201.96 250.258 203.064 252.498 205.272C254.738 207.48 255.858 210.296 255.858 213.72C255.858 217.144 254.738 219.96 252.498 222.168C250.258 224.376 247.538 225.48 244.338 225.48C241.778 225.48 239.698 224.68 238.098 223.08L237.858 222.84L237.57 223.08V235.176H232.818ZM239.106 208.44C237.794 209.88 237.138 211.64 237.138 213.72C237.138 215.8 237.794 217.56 239.106 219C240.418 220.44 242.082 221.16 244.098 221.16C246.306 221.16 248.018 220.456 249.234 219.048C250.45 217.64 251.058 215.864 251.058 213.72C251.058 211.576 250.45 209.8 249.234 208.392C248.018 206.984 246.306 206.28 244.098 206.28C242.082 206.28 240.418 207 239.106 208.44ZM260.193 225V202.44H264.897V217.8L273.873 202.44H279.393V225H274.689V209.64L265.713 225H260.193ZM285.13 225V202.44H294.73C297.322 202.44 299.322 203.032 300.73 204.216C302.17 205.4 302.89 206.968 302.89 208.92C302.89 210.808 301.994 212.328 300.202 213.48C302.314 214.632 303.37 216.232 303.37 218.28C303.37 220.328 302.618 221.96 301.114 223.176C299.642 224.392 297.594 225 294.97 225H285.13ZM289.834 220.872H295.45C296.378 220.872 297.13 220.632 297.706 220.152C298.282 219.64 298.57 219.016 298.57 218.28C298.57 216.52 297.53 215.64 295.45 215.64H289.834V220.872ZM289.834 211.56H294.97C295.866 211.56 296.602 211.368 297.178 210.984C297.786 210.568 298.09 209.96 298.09 209.16C298.09 208.328 297.802 207.688 297.226 207.24C296.682 206.792 295.93 206.568 294.97 206.568H289.834V211.56ZM327.873 214.92H311.553C311.553 216.68 312.129 218.168 313.281 219.384C314.465 220.568 316.049 221.16 318.033 221.16C319.409 221.16 320.577 220.856 321.537 220.248C322.529 219.608 323.217 218.792 323.601 217.8L327.633 219.72C325.425 223.56 322.145 225.48 317.793 225.48C314.721 225.48 312.113 224.376 309.969 222.168C307.825 219.96 306.753 217.144 306.753 213.72C306.753 210.264 307.793 207.448 309.873 205.272C311.985 203.064 314.625 201.96 317.793 201.96C320.737 201.96 323.233 203.032 325.281 205.176C327.329 207.32 328.353 210.088 328.353 213.48L327.873 214.92ZM317.793 206.28C314.657 206.28 312.657 207.752 311.793 210.696H323.313C323.185 209.448 322.593 208.408 321.537 207.576C320.481 206.712 319.233 206.28 317.793 206.28ZM329.054 206.76V202.44H348.254V206.76H341.054V225H336.254V206.76H329.054ZM354.514 216.84L352.594 202.44L352.114 189.96H357.874L357.394 202.44L355.474 216.84H354.514ZM352.114 225V219.24H357.874V225H352.114ZM207.88 282V259.44H227.08V282H222.28V263.76H212.68V282H207.88ZM232.818 292.176V259.44H237.138L237.57 261.36L237.858 261.6L238.098 261.36C239.698 259.76 241.778 258.96 244.338 258.96C247.538 258.96 250.258 260.064 252.498 262.272C254.738 264.48 255.858 267.296 255.858 270.72C255.858 274.144 254.738 276.96 252.498 279.168C250.258 281.376 247.538 282.48 244.338 282.48C241.778 282.48 239.698 281.68 238.098 280.08L237.858 279.84L237.57 280.08V292.176H232.818ZM239.106 265.44C237.794 266.88 237.138 268.64 237.138 270.72C237.138 272.8 237.794 274.56 239.106 276C240.418 277.44 242.082 278.16 244.098 278.16C246.306 278.16 248.018 277.456 249.234 276.048C250.45 274.64 251.058 272.864 251.058 270.72C251.058 268.576 250.45 266.8 249.234 265.392C248.018 263.984 246.306 263.28 244.098 263.28C242.082 263.28 240.418 264 239.106 265.44ZM260.193 282V259.44H264.897V274.8L273.873 259.44H279.393V282H274.689V266.64L265.713 282H260.193ZM290.266 265.392C289.018 266.8 288.394 268.576 288.394 270.72C288.394 272.864 289.018 274.64 290.266 276.048C291.514 277.456 293.242 278.16 295.45 278.16C296.826 278.16 298.042 277.776 299.098 277.008C300.154 276.24 300.89 275.344 301.306 274.32L305.29 276.72C304.33 278.448 302.954 279.84 301.162 280.896C299.402 281.952 297.418 282.48 295.21 282.48C292.106 282.48 289.402 281.376 287.098 279.168C284.826 276.928 283.69 274.112 283.69 270.72C283.69 267.328 284.826 264.528 287.098 262.32C289.402 260.08 292.106 258.96 295.21 258.96C297.418 258.96 299.402 259.488 301.162 260.544C302.922 261.6 304.282 262.992 305.242 264.72L301.258 267.12C300.842 266.064 300.106 265.168 299.05 264.432C297.994 263.664 296.794 263.28 295.45 263.28C293.242 263.28 291.514 263.984 290.266 265.392ZM330.73 259.44V282H326.41L325.93 280.08L325.69 279.84L325.45 280.08C323.85 281.68 321.77 282.48 319.21 282.48C316.01 282.48 313.29 281.376 311.05 279.168C308.81 276.96 307.69 274.144 307.69 270.72C307.69 267.296 308.81 264.48 311.05 262.272C313.29 260.064 316.01 258.96 319.21 258.96C321.77 258.96 323.85 259.76 325.45 261.36L325.69 261.6L325.93 261.36L326.41 259.44H330.73ZM324.442 276C325.754 274.56 326.41 272.8 326.41 270.72C326.41 268.64 325.754 266.88 324.442 265.44C323.13 264 321.466 263.28 319.45 263.28C317.242 263.28 315.514 263.984 314.266 265.392C313.05 266.8 312.442 268.576 312.442 270.72C312.442 272.864 313.05 274.64 314.266 276.048C315.514 277.456 317.242 278.16 319.45 278.16C321.466 278.16 323.13 277.44 324.442 276ZM353.785 268.56L361.945 259.44H368.185L357.865 270.432L368.425 282H362.425L353.785 272.4V282H348.985V272.4L340.345 282H334.345L344.905 270.432L334.585 259.44H340.825L348.985 268.56V259.44H353.785V268.56ZM372.036 282V259.44H376.74V274.8L385.716 259.44H391.236V282H386.532V266.64L377.556 282H372.036ZM396.974 282V259.44H406.574C409.166 259.44 411.166 260.032 412.574 261.216C414.014 262.4 414.734 263.968 414.734 265.92C414.734 267.808 413.838 269.328 412.046 270.48C414.158 271.632 415.214 273.232 415.214 275.28C415.214 277.328 414.462 278.96 412.958 280.176C411.486 281.392 409.438 282 406.814 282H396.974ZM401.678 277.872H407.294C408.222 277.872 408.974 277.632 409.55 277.152C410.126 276.64 410.414 276.016 410.414 275.28C410.414 273.52 409.374 272.64 407.294 272.64H401.678V277.872ZM401.678 268.56H406.814C407.71 268.56 408.446 268.368 409.022 267.984C409.63 267.568 409.934 266.96 409.934 266.16C409.934 265.328 409.646 264.688 409.07 264.24C408.526 263.792 407.774 263.568 406.814 263.568H401.678V268.56ZM441.636 259.44V282H437.316L436.836 280.08L436.596 279.84L436.356 280.08C434.756 281.68 432.676 282.48 430.116 282.48C426.916 282.48 424.196 281.376 421.956 279.168C419.716 276.96 418.596 274.144 418.596 270.72C418.596 267.296 419.716 264.48 421.956 262.272C424.196 260.064 426.916 258.96 430.116 258.96C432.676 258.96 434.756 259.76 436.356 261.36L436.596 261.6L436.836 261.36L437.316 259.44H441.636ZM435.348 276C436.66 274.56 437.316 272.8 437.316 270.72C437.316 268.64 436.66 266.88 435.348 265.44C434.036 264 432.372 263.28 430.356 263.28C428.148 263.28 426.42 263.984 425.172 265.392C423.956 266.8 423.348 268.576 423.348 270.72C423.348 272.864 423.956 274.64 425.172 276.048C426.42 277.456 428.148 278.16 430.356 278.16C432.372 278.16 434.036 277.44 435.348 276ZM447.411 259.44H452.115V274.8L461.091 259.44H466.611V282H461.907V266.64L452.931 282H447.411V259.44ZM457.395 256.896C459.347 256.896 460.915 256.32 462.099 255.168C463.283 254.016 463.875 252.672 463.875 251.136V250.848H459.987V250.944C459.987 251.584 459.747 252.16 459.267 252.672C458.819 253.152 458.195 253.392 457.395 253.392C456.595 253.392 455.955 253.152 455.475 252.672C455.027 252.16 454.803 251.584 454.803 250.944V250.848H450.915V251.136C450.915 252.672 451.507 254.016 452.691 255.168C453.875 256.32 455.443 256.896 457.395 256.896ZM477.485 265.392C476.237 266.8 475.613 268.576 475.613 270.72C475.613 272.864 476.237 274.64 477.485 276.048C478.733 277.456 480.461 278.16 482.669 278.16C484.045 278.16 485.261 277.776 486.317 277.008C487.373 276.24 488.109 275.344 488.525 274.32L492.509 276.72C491.549 278.448 490.173 279.84 488.381 280.896C486.621 281.952 484.637 282.48 482.429 282.48C479.325 282.48 476.621 281.376 474.317 279.168C472.045 276.928 470.909 274.112 470.909 270.72C470.909 267.328 472.045 264.528 474.317 262.32C476.621 260.08 479.325 258.96 482.429 258.96C484.637 258.96 486.621 259.488 488.381 260.544C490.141 261.6 491.501 262.992 492.461 264.72L488.477 267.12C488.061 266.064 487.325 265.168 486.269 264.432C485.213 263.664 484.013 263.28 482.669 263.28C480.461 263.28 478.733 263.984 477.485 265.392ZM499.96 282H494.92V281.52L502.408 272.784C500.2 272.592 498.44 271.872 497.128 270.624C495.816 269.344 495.16 267.92 495.16 266.352C495.16 264.24 495.848 262.56 497.224 261.312C498.6 260.064 500.632 259.44 503.32 259.44H512.68V282H508.264V272.784H507.4L499.96 282ZM500.536 264.096C499.992 264.608 499.72 265.296 499.72 266.16C499.72 267.024 500.04 267.728 500.68 268.272C501.32 268.784 502.152 269.04 503.176 269.04H508.36V263.28H502.936C501.912 263.28 501.112 263.552 500.536 264.096ZM521.343 273.84L519.423 259.44L518.943 246.96H524.703L524.223 259.44L522.303 273.84H521.343ZM518.943 282V276.24H524.703V282H518.943Z" fill="#216037"/>
</svg>
