<svg width="515" height="406" viewBox="0 0 515 406" fill="none" xmlns="http://www.w3.org/2000/svg">
<path d="M512.979 355.609C515.073 353.809 515.311 350.652 513.51 348.558C511.71 346.465 508.553 346.227 506.459 348.027L512.979 355.609ZM506.459 348.027C475.885 374.316 423.048 367.892 391.008 332.791L383.622 339.533C418.417 377.651 477.371 386.227 512.979 355.609L506.459 348.027Z" fill="#A3B18A"/>
<path d="M383.755 347.069C391.951 345.864 397.619 338.242 396.414 330.046L391.527 296.809C367.425 132.886 215.001 19.5382 51.078 43.6398L17.8407 48.5266C9.64456 49.7317 3.97717 57.3529 5.18225 65.5491L10.0691 98.7864C34.1707 262.71 186.595 376.057 350.518 351.956L383.755 347.069Z" fill="#EFEDE5" stroke="#A3B18A" stroke-width="10" stroke-linejoin="round"/>
<path d="M126.64 157.44V180H121.84V171.36L121.6 171.12L121.36 171.36C120.016 172.96 118.256 173.76 116.08 173.76C113.392 173.76 111.28 172.928 109.744 171.264C108.208 169.568 107.44 167.36 107.44 164.64V157.44H112.24V164.16C112.24 165.824 112.64 167.12 113.44 168.048C114.24 168.976 115.36 169.44 116.8 169.44C118.208 169.44 119.392 168.992 120.352 168.096C121.312 167.168 121.808 166.016 121.84 164.64V157.44H126.64ZM139.383 170.976L144.423 157.44H149.223L137.223 189.6H132.423L137.127 177.024L129.543 157.44H134.391L139.383 170.976ZM148.714 185.76V175.68H150.202C151.066 175.616 151.754 175.296 152.266 174.72C152.778 174.144 153.034 173.344 153.034 172.32V157.44H170.794V175.68H173.674V185.76H168.874V180H153.514V185.76H148.714ZM156.106 175.68H165.994V161.76H157.834V171.84C157.834 173.472 157.258 174.752 156.106 175.68ZM196.716 169.92H180.396C180.396 171.68 180.972 173.168 182.124 174.384C183.308 175.568 184.892 176.16 186.876 176.16C188.252 176.16 189.42 175.856 190.38 175.248C191.372 174.608 192.06 173.792 192.444 172.8L196.476 174.72C194.268 178.56 190.988 180.48 186.636 180.48C183.564 180.48 180.956 179.376 178.812 177.168C176.668 174.96 175.596 172.144 175.596 168.72C175.596 165.264 176.636 162.448 178.716 160.272C180.828 158.064 183.468 156.96 186.636 156.96C189.58 156.96 192.076 158.032 194.124 160.176C196.172 162.32 197.196 165.088 197.196 168.48L196.716 169.92ZM186.636 161.28C183.5 161.28 181.5 162.752 180.636 165.696H192.156C192.028 164.448 191.436 163.408 190.38 162.576C189.324 161.712 188.076 161.28 186.636 161.28ZM206.407 163.392C205.159 164.8 204.535 166.576 204.535 168.72C204.535 170.864 205.159 172.64 206.407 174.048C207.655 175.456 209.383 176.16 211.591 176.16C212.967 176.16 214.183 175.776 215.239 175.008C216.295 174.24 217.031 173.344 217.447 172.32L221.431 174.72C220.471 176.448 219.095 177.84 217.303 178.896C215.543 179.952 213.559 180.48 211.351 180.48C208.247 180.48 205.543 179.376 203.239 177.168C200.967 174.928 199.831 172.112 199.831 168.72C199.831 165.328 200.967 162.528 203.239 160.32C205.543 158.08 208.247 156.96 211.351 156.96C213.559 156.96 215.543 157.488 217.303 158.544C219.063 159.6 220.423 160.992 221.383 162.72L217.399 165.12C216.983 164.064 216.247 163.168 215.191 162.432C214.135 161.664 212.935 161.28 211.591 161.28C209.383 161.28 207.655 161.984 206.407 163.392ZM225.271 180V157.44H230.071V166.08H239.671V157.44H244.471V180H239.671V170.4H230.071V180H225.271ZM271.808 157.44V180H267.488L267.008 178.08L266.768 177.84L266.528 178.08C264.928 179.68 262.848 180.48 260.288 180.48C257.088 180.48 254.368 179.376 252.128 177.168C249.888 174.96 248.768 172.144 248.768 168.72C248.768 165.296 249.888 162.48 252.128 160.272C254.368 158.064 257.088 156.96 260.288 156.96C262.848 156.96 264.928 157.76 266.528 159.36L266.768 159.6L267.008 159.36L267.488 157.44H271.808ZM265.52 174C266.832 172.56 267.488 170.8 267.488 168.72C267.488 166.64 266.832 164.88 265.52 163.44C264.208 162 262.544 161.28 260.528 161.28C258.32 161.28 256.592 161.984 255.344 163.392C254.128 164.8 253.52 166.576 253.52 168.72C253.52 170.864 254.128 172.64 255.344 174.048C256.592 175.456 258.32 176.16 260.528 176.16C262.544 176.16 264.208 175.44 265.52 174ZM281.663 180H276.623V179.52L284.111 170.784C281.903 170.592 280.143 169.872 278.831 168.624C277.519 167.344 276.863 165.92 276.863 164.352C276.863 162.24 277.551 160.56 278.927 159.312C280.303 158.064 282.335 157.44 285.023 157.44H294.383V180H289.967V170.784H289.103L281.663 180ZM282.239 162.096C281.695 162.608 281.423 163.296 281.423 164.16C281.423 165.024 281.743 165.728 282.383 166.272C283.023 166.784 283.855 167.04 284.879 167.04H290.063V161.28H284.639C283.615 161.28 282.815 161.552 282.239 162.096ZM108.88 237V214.44H128.08V237H123.28V218.76H113.68V237H108.88ZM135.834 234.168C133.53 231.928 132.378 229.112 132.378 225.72C132.378 222.328 133.53 219.528 135.834 217.32C138.17 215.08 140.938 213.96 144.138 213.96C147.338 213.96 150.09 215.08 152.394 217.32C154.73 219.528 155.898 222.328 155.898 225.72C155.898 229.112 154.73 231.928 152.394 234.168C150.09 236.376 147.338 237.48 144.138 237.48C140.938 237.48 138.17 236.376 135.834 234.168ZM139.002 220.392C137.786 221.8 137.178 223.576 137.178 225.72C137.178 227.864 137.786 229.64 139.002 231.048C140.218 232.456 141.93 233.16 144.138 233.16C146.346 233.16 148.058 232.456 149.274 231.048C150.49 229.64 151.098 227.864 151.098 225.72C151.098 223.576 150.49 221.8 149.274 220.392C148.058 218.984 146.346 218.28 144.138 218.28C141.93 218.28 140.218 218.984 139.002 220.392ZM160.208 237V214.44H176.528V218.76H165.008V237H160.208ZM180.693 234.168C178.389 231.928 177.237 229.112 177.237 225.72C177.237 222.328 178.389 219.528 180.693 217.32C183.029 215.08 185.797 213.96 188.997 213.96C192.197 213.96 194.949 215.08 197.253 217.32C199.589 219.528 200.757 222.328 200.757 225.72C200.757 229.112 199.589 231.928 197.253 234.168C194.949 236.376 192.197 237.48 188.997 237.48C185.797 237.48 183.029 236.376 180.693 234.168ZM183.861 220.392C182.645 221.8 182.037 223.576 182.037 225.72C182.037 227.864 182.645 229.64 183.861 231.048C185.077 232.456 186.789 233.16 188.997 233.16C191.205 233.16 192.917 232.456 194.133 231.048C195.349 229.64 195.957 227.864 195.957 225.72C195.957 223.576 195.349 221.8 194.133 220.392C192.917 218.984 191.205 218.28 188.997 218.28C186.789 218.28 185.077 218.984 183.861 220.392ZM202.199 242.76V232.68H203.687C204.551 232.616 205.239 232.296 205.751 231.72C206.263 231.144 206.519 230.344 206.519 229.32V214.44H224.279V232.68H227.159V242.76H222.359V237H206.999V242.76H202.199ZM209.591 232.68H219.479V218.76H211.319V228.84C211.319 230.472 210.743 231.752 209.591 232.68ZM252.121 214.44V237H247.801L247.321 235.08L247.081 234.84L246.841 235.08C245.241 236.68 243.161 237.48 240.601 237.48C237.401 237.48 234.681 236.376 232.441 234.168C230.201 231.96 229.081 229.144 229.081 225.72C229.081 222.296 230.201 219.48 232.441 217.272C234.681 215.064 237.401 213.96 240.601 213.96C243.161 213.96 245.241 214.76 246.841 216.36L247.081 216.6L247.321 216.36L247.801 214.44H252.121ZM245.833 231C247.145 229.56 247.801 227.8 247.801 225.72C247.801 223.64 247.145 221.88 245.833 220.44C244.521 219 242.857 218.28 240.841 218.28C238.633 218.28 236.905 218.984 235.657 220.392C234.441 221.8 233.833 223.576 233.833 225.72C233.833 227.864 234.441 229.64 235.657 231.048C236.905 232.456 238.633 233.16 240.841 233.16C242.857 233.16 244.521 232.44 245.833 231ZM260.296 228.84L258.376 214.44L257.896 201.96H263.656L263.176 214.44L261.256 228.84H260.296ZM257.896 237V231.24H263.656V237H257.896Z" fill="#216037"/>
</svg>
