<svg width="515" height="406" viewBox="0 0 515 406" fill="none" xmlns="http://www.w3.org/2000/svg">
<path d="M512.979 355.609C515.073 353.809 515.311 350.652 513.51 348.558C511.71 346.465 508.553 346.227 506.459 348.027L512.979 355.609ZM506.459 348.027C475.885 374.316 423.048 367.892 391.008 332.791L383.622 339.533C418.417 377.651 477.371 386.227 512.979 355.609L506.459 348.027Z" fill="#A3B18A"/>
<path d="M383.755 347.069C391.951 345.864 397.619 338.242 396.414 330.046L391.527 296.809C367.425 132.886 215.001 19.5382 51.078 43.6398L17.8407 48.5266C9.64456 49.7317 3.97717 57.3529 5.18225 65.5491L10.0691 98.7864C34.1707 262.71 186.595 376.057 350.518 351.956L383.755 347.069Z" fill="#EFEDE5" stroke="#A3B18A" stroke-width="10" stroke-linejoin="round"/>
<path d="M108.88 180V157.44H128.08V180H123.28V161.76H113.68V180H108.88ZM135.834 177.168C133.53 174.928 132.378 172.112 132.378 168.72C132.378 165.328 133.53 162.528 135.834 160.32C138.17 158.08 140.938 156.96 144.138 156.96C147.338 156.96 150.09 158.08 152.394 160.32C154.73 162.528 155.898 165.328 155.898 168.72C155.898 172.112 154.73 174.928 152.394 177.168C150.09 179.376 147.338 180.48 144.138 180.48C140.938 180.48 138.17 179.376 135.834 177.168ZM139.002 163.392C137.786 164.8 137.178 166.576 137.178 168.72C137.178 170.864 137.786 172.64 139.002 174.048C140.218 175.456 141.93 176.16 144.138 176.16C146.346 176.16 148.058 175.456 149.274 174.048C150.49 172.64 151.098 170.864 151.098 168.72C151.098 166.576 150.49 164.8 149.274 163.392C148.058 161.984 146.346 161.28 144.138 161.28C141.93 161.28 140.218 161.984 139.002 163.392ZM161.168 173.76V157.44H178.928V180H174.128V161.76H165.968V173.52C165.968 175.888 165.296 177.728 163.952 179.04C162.64 180.32 160.832 180.96 158.528 180.96L157.808 180.48V176.16H158.768C159.472 176.16 160.048 175.936 160.496 175.488C160.944 175.04 161.168 174.464 161.168 173.76ZM204.357 169.92H188.037C188.037 171.68 188.613 173.168 189.765 174.384C190.949 175.568 192.533 176.16 194.517 176.16C195.893 176.16 197.061 175.856 198.021 175.248C199.013 174.608 199.701 173.792 200.085 172.8L204.117 174.72C201.909 178.56 198.629 180.48 194.277 180.48C191.205 180.48 188.597 179.376 186.453 177.168C184.309 174.96 183.237 172.144 183.237 168.72C183.237 165.264 184.277 162.448 186.357 160.272C188.469 158.064 191.109 156.96 194.277 156.96C197.221 156.96 199.717 158.032 201.765 160.176C203.813 162.32 204.837 165.088 204.837 168.48L204.357 169.92ZM194.277 161.28C191.141 161.28 189.141 162.752 188.277 165.696H199.797C199.669 164.448 199.077 163.408 198.021 162.576C196.965 161.712 195.717 161.28 194.277 161.28ZM205.538 161.76V157.44H224.738V161.76H217.538V180H212.738V161.76H205.538ZM248.98 157.44V180H244.66L244.18 178.08L243.94 177.84L243.7 178.08C242.1 179.68 240.02 180.48 237.46 180.48C234.26 180.48 231.54 179.376 229.3 177.168C227.06 174.96 225.94 172.144 225.94 168.72C225.94 165.296 227.06 162.48 229.3 160.272C231.54 158.064 234.26 156.96 237.46 156.96C240.02 156.96 242.1 157.76 243.7 159.36L243.94 159.6L244.18 159.36L244.66 157.44H248.98ZM242.692 174C244.004 172.56 244.66 170.8 244.66 168.72C244.66 166.64 244.004 164.88 242.692 163.44C241.38 162 239.716 161.28 237.7 161.28C235.492 161.28 233.764 161.984 232.516 163.392C231.3 164.8 230.692 166.576 230.692 168.72C230.692 170.864 231.3 172.64 232.516 174.048C233.764 175.456 235.492 176.16 237.7 176.16C239.716 176.16 241.38 175.44 242.692 174ZM274.435 169.92H258.115C258.115 171.68 258.691 173.168 259.843 174.384C261.027 175.568 262.611 176.16 264.595 176.16C265.971 176.16 267.139 175.856 268.099 175.248C269.091 174.608 269.779 173.792 270.163 172.8L274.195 174.72C271.987 178.56 268.707 180.48 264.355 180.48C261.283 180.48 258.675 179.376 256.531 177.168C254.387 174.96 253.315 172.144 253.315 168.72C253.315 165.264 254.355 162.448 256.435 160.272C258.547 158.064 261.187 156.96 264.355 156.96C267.299 156.96 269.795 158.032 271.843 160.176C273.891 162.32 274.915 165.088 274.915 168.48L274.435 169.92ZM264.355 161.28C261.219 161.28 259.219 162.752 258.355 165.696H269.875C269.747 164.448 269.155 163.408 268.099 162.576C267.043 161.712 265.795 161.28 264.355 161.28ZM290.749 172.128L296.989 157.44H302.509V180H298.189V165.12L292.909 177.6H288.589L283.309 165.12V180H278.989V157.44H284.509L290.749 172.128ZM108.88 237V214.44H118.48C121.072 214.44 123.072 215.032 124.48 216.216C125.92 217.4 126.64 218.968 126.64 220.92C126.64 222.808 125.744 224.328 123.952 225.48C126.064 226.632 127.12 228.232 127.12 230.28C127.12 232.328 126.368 233.96 124.864 235.176C123.392 236.392 121.344 237 118.72 237H108.88ZM113.584 232.872H119.2C120.128 232.872 120.88 232.632 121.456 232.152C122.032 231.64 122.32 231.016 122.32 230.28C122.32 228.52 121.28 227.64 119.2 227.64H113.584V232.872ZM113.584 223.56H118.72C119.616 223.56 120.352 223.368 120.928 222.984C121.536 222.568 121.84 221.96 121.84 221.16C121.84 220.328 121.552 219.688 120.976 219.24C120.432 218.792 119.68 218.568 118.72 218.568H113.584V223.56ZM143.703 229.128L149.943 214.44H155.463V237H151.143V222.12L145.863 234.6H141.543L136.263 222.12V237H131.943V214.44H137.463L143.703 229.128ZM180.919 226.92H164.599C164.599 228.68 165.175 230.168 166.327 231.384C167.511 232.568 169.095 233.16 171.079 233.16C172.455 233.16 173.623 232.856 174.583 232.248C175.575 231.608 176.263 230.792 176.647 229.8L180.679 231.72C178.471 235.56 175.191 237.48 170.839 237.48C167.767 237.48 165.159 236.376 163.015 234.168C160.871 231.96 159.799 229.144 159.799 225.72C159.799 222.264 160.839 219.448 162.919 217.272C165.031 215.064 167.671 213.96 170.839 213.96C173.783 213.96 176.279 215.032 178.327 217.176C180.375 219.32 181.399 222.088 181.399 225.48L180.919 226.92ZM170.839 218.28C167.703 218.28 165.703 219.752 164.839 222.696H176.359C176.231 221.448 175.639 220.408 174.583 219.576C173.527 218.712 172.279 218.28 170.839 218.28ZM190.61 220.392C189.362 221.8 188.738 223.576 188.738 225.72C188.738 227.864 189.362 229.64 190.61 231.048C191.858 232.456 193.586 233.16 195.794 233.16C197.17 233.16 198.386 232.776 199.442 232.008C200.498 231.24 201.234 230.344 201.65 229.32L205.634 231.72C204.674 233.448 203.298 234.84 201.506 235.896C199.746 236.952 197.762 237.48 195.554 237.48C192.45 237.48 189.746 236.376 187.442 234.168C185.17 231.928 184.034 229.112 184.034 225.72C184.034 222.328 185.17 219.528 187.442 217.32C189.746 215.08 192.45 213.96 195.554 213.96C197.762 213.96 199.746 214.488 201.506 215.544C203.266 216.6 204.626 217.992 205.586 219.72L201.602 222.12C201.186 221.064 200.45 220.168 199.394 219.432C198.338 218.664 197.138 218.28 195.794 218.28C193.586 218.28 191.858 218.984 190.61 220.392ZM207.554 218.76V214.44H226.754V218.76H219.554V237H214.754V218.76H207.554ZM249.076 226.92H232.756C232.756 228.68 233.332 230.168 234.484 231.384C235.668 232.568 237.252 233.16 239.236 233.16C240.612 233.16 241.78 232.856 242.74 232.248C243.732 231.608 244.42 230.792 244.804 229.8L248.836 231.72C246.628 235.56 243.348 237.48 238.996 237.48C235.924 237.48 233.316 236.376 231.172 234.168C229.028 231.96 227.956 229.144 227.956 225.72C227.956 222.264 228.996 219.448 231.076 217.272C233.188 215.064 235.828 213.96 238.996 213.96C241.94 213.96 244.436 215.032 246.484 217.176C248.532 219.32 249.556 222.088 249.556 225.48L249.076 226.92ZM238.996 218.28C235.86 218.28 233.86 219.752 232.996 222.696H244.516C244.388 221.448 243.796 220.408 242.74 219.576C241.684 218.712 240.436 218.28 238.996 218.28ZM258.958 237V231.24H264.718V237H258.958ZM257.038 213L252.238 212.04C252.238 209.384 253.262 207.048 255.31 205.032C257.39 202.984 259.822 201.96 262.606 201.96C265.23 201.96 267.518 202.904 269.47 204.792C271.422 206.68 272.398 208.936 272.398 211.56C272.398 213.032 272.11 214.392 271.534 215.64C270.99 216.888 270.318 217.88 269.518 218.616C268.75 219.352 267.934 220.12 267.07 220.92C266.206 221.72 265.47 222.44 264.862 223.08C264.254 223.72 263.854 224.552 263.662 225.576C263.502 226.6 263.694 227.688 264.238 228.84H259.438C258.958 227.24 258.83 225.816 259.054 224.568C259.278 223.288 259.678 222.264 260.254 221.496C260.862 220.696 261.582 219.912 262.414 219.144C263.278 218.376 264.078 217.688 264.814 217.08C265.582 216.472 266.238 215.704 266.782 214.776C267.326 213.848 267.598 212.856 267.598 211.8C267.598 210.232 267.102 208.984 266.11 208.056C265.15 207.096 263.886 206.616 262.318 206.616C260.782 206.616 259.518 207.128 258.526 208.152C257.534 209.176 257.038 210.472 257.038 212.04V213Z" fill="#216037"/>
</svg>
