<svg width="590" height="494" viewBox="0 0 590 494" fill="none" xmlns="http://www.w3.org/2000/svg">
<path d="M0.160277 313.735C-0.388041 316.441 1.36146 319.08 4.0679 319.628C6.77434 320.176 9.41284 318.427 9.96116 315.72L0.160277 313.735ZM9.96116 315.72C17.9676 276.202 63.6272 248.848 110.466 256.9L112.16 247.044C61.2951 238.301 9.48495 267.709 0.160277 313.735L9.96116 315.72Z" fill="#A3B18A"/>
<path d="M107.431 241.176C101.699 247.157 101.902 256.652 107.883 262.384L132.139 285.628C251.765 400.263 441.671 396.216 556.306 276.59L579.55 252.334C585.282 246.353 585.079 236.858 579.098 231.126L554.842 207.882C435.216 93.2472 245.31 97.2936 130.675 216.92L107.431 241.176Z" fill="#EFEDE5" stroke="#A3B18A" stroke-width="10" stroke-linejoin="round"/>
<path d="M209.866 235.013V212.453H229.066V235.013H224.266V216.773H214.666V235.013H209.866ZM234.804 245.189V212.453H239.124L239.556 214.373L239.844 214.613L240.084 214.373C241.684 212.773 243.764 211.973 246.324 211.973C249.524 211.973 252.244 213.077 254.484 215.285C256.724 217.493 257.844 220.309 257.844 223.733C257.844 227.157 256.724 229.973 254.484 232.181C252.244 234.389 249.524 235.493 246.324 235.493C243.764 235.493 241.684 234.693 240.084 233.093L239.844 232.853L239.556 233.093V245.189H234.804ZM241.092 218.453C239.78 219.893 239.124 221.653 239.124 223.733C239.124 225.813 239.78 227.573 241.092 229.013C242.404 230.453 244.068 231.173 246.084 231.173C248.292 231.173 250.004 230.469 251.22 229.061C252.436 227.653 253.044 225.877 253.044 223.733C253.044 221.589 252.436 219.813 251.22 218.405C250.004 216.997 248.292 216.293 246.084 216.293C244.068 216.293 242.404 217.013 241.092 218.453ZM262.179 235.013V212.453H266.883V227.813L275.859 212.453H281.379V235.013H276.675V219.653L267.699 235.013H262.179ZM287.116 235.013V212.453H296.716C299.308 212.453 301.308 213.045 302.716 214.229C304.156 215.413 304.876 216.981 304.876 218.933C304.876 220.821 303.98 222.341 302.188 223.493C304.3 224.645 305.356 226.245 305.356 228.293C305.356 230.341 304.604 231.973 303.1 233.189C301.628 234.405 299.58 235.013 296.956 235.013H287.116ZM291.82 230.885H297.436C298.364 230.885 299.116 230.645 299.692 230.165C300.268 229.653 300.556 229.029 300.556 228.293C300.556 226.533 299.516 225.653 297.436 225.653H291.82V230.885ZM291.82 221.573H296.956C297.852 221.573 298.588 221.381 299.164 220.997C299.772 220.581 300.076 219.973 300.076 219.173C300.076 218.341 299.788 217.701 299.212 217.253C298.668 216.805 297.916 216.581 296.956 216.581H291.82V221.573ZM329.859 224.933H313.539C313.539 226.693 314.115 228.181 315.267 229.397C316.451 230.581 318.035 231.173 320.019 231.173C321.395 231.173 322.563 230.869 323.523 230.261C324.515 229.621 325.203 228.805 325.587 227.813L329.619 229.733C327.411 233.573 324.131 235.493 319.779 235.493C316.707 235.493 314.099 234.389 311.955 232.181C309.811 229.973 308.739 227.157 308.739 223.733C308.739 220.277 309.779 217.461 311.859 215.285C313.971 213.077 316.611 211.973 319.779 211.973C322.723 211.973 325.219 213.045 327.267 215.189C329.315 217.333 330.339 220.101 330.339 223.493L329.859 224.933ZM319.779 216.293C316.643 216.293 314.643 217.765 313.779 220.709H325.299C325.171 219.461 324.579 218.421 323.523 217.589C322.467 216.725 321.219 216.293 319.779 216.293ZM331.04 216.773V212.453H350.24V216.773H343.04V235.013H338.24V216.773H331.04ZM356.501 226.853L354.581 212.453L354.101 199.973H359.861L359.381 212.453L357.461 226.853H356.501ZM354.101 235.013V229.253H359.861V235.013H354.101ZM381.963 221.573L391.083 212.453H397.323L386.475 223.301L397.803 235.013H391.563L381.963 225.413V235.013H377.163V212.453H381.963V221.573ZM420.888 212.453V235.013H416.568L416.088 233.093L415.848 232.853L415.608 233.093C414.008 234.693 411.928 235.493 409.368 235.493C406.168 235.493 403.448 234.389 401.208 232.181C398.968 229.973 397.848 227.157 397.848 223.733C397.848 220.309 398.968 217.493 401.208 215.285C403.448 213.077 406.168 211.973 409.368 211.973C411.928 211.973 414.008 212.773 415.608 214.373L415.848 214.613L416.088 214.373L416.568 212.453H420.888ZM414.6 229.013C415.912 227.573 416.568 225.813 416.568 223.733C416.568 221.653 415.912 219.893 414.6 218.453C413.288 217.013 411.624 216.293 409.608 216.293C407.4 216.293 405.672 216.997 404.424 218.405C403.208 219.813 402.6 221.589 402.6 223.733C402.6 225.877 403.208 227.653 404.424 229.061C405.672 230.469 407.4 231.173 409.608 231.173C411.624 231.173 413.288 230.453 414.6 229.013ZM431.463 221.573L440.583 212.453H446.823L435.975 223.301L447.303 235.013H441.063L431.463 225.413V235.013H426.663V212.453H431.463V221.573ZM207.946 273.773V269.453H227.146V273.773H219.946V292.013H215.146V273.773H207.946ZM231.007 292.013V269.453H240.607C243.199 269.453 245.199 270.045 246.607 271.229C248.047 272.413 248.767 273.981 248.767 275.933C248.767 277.821 247.871 279.341 246.079 280.493C248.191 281.645 249.247 283.245 249.247 285.293C249.247 287.341 248.495 288.973 246.991 290.189C245.519 291.405 243.471 292.013 240.847 292.013H231.007ZM235.711 287.885H241.327C242.255 287.885 243.007 287.645 243.583 287.165C244.159 286.653 244.447 286.029 244.447 285.293C244.447 283.533 243.407 282.653 241.327 282.653H235.711V287.885ZM235.711 278.573H240.847C241.743 278.573 242.479 278.381 243.055 277.997C243.663 277.581 243.967 276.973 243.967 276.173C243.967 275.341 243.679 274.701 243.103 274.253C242.559 273.805 241.807 273.581 240.847 273.581H235.711V278.573ZM256.085 289.181C253.781 286.941 252.629 284.125 252.629 280.733C252.629 277.341 253.781 274.541 256.085 272.333C258.421 270.093 261.189 268.973 264.389 268.973C267.589 268.973 270.341 270.093 272.645 272.333C274.981 274.541 276.149 277.341 276.149 280.733C276.149 284.125 274.981 286.941 272.645 289.181C270.341 291.389 267.589 292.493 264.389 292.493C261.189 292.493 258.421 291.389 256.085 289.181ZM259.253 275.405C258.037 276.813 257.429 278.589 257.429 280.733C257.429 282.877 258.037 284.653 259.253 286.061C260.469 287.469 262.181 288.173 264.389 288.173C266.597 288.173 268.309 287.469 269.525 286.061C270.741 284.653 271.349 282.877 271.349 280.733C271.349 278.589 270.741 276.813 269.525 275.405C268.309 273.997 266.597 273.293 264.389 273.293C262.181 273.293 260.469 273.997 259.253 275.405ZM280.46 292.013V269.453H285.164V284.813L294.14 269.453H299.66V292.013H294.956V276.653L285.98 292.013H280.46ZM314.529 297.773V287.693H316.017C316.881 287.629 317.569 287.309 318.081 286.733C318.593 286.157 318.849 285.357 318.849 284.333V269.453H336.609V287.693H339.489V297.773H334.689V292.013H319.329V297.773H314.529ZM321.921 287.693H331.809V273.773H323.649V283.853C323.649 285.485 323.073 286.765 321.921 287.693ZM362.531 281.933H346.211C346.211 283.693 346.787 285.181 347.939 286.397C349.123 287.581 350.707 288.173 352.691 288.173C354.067 288.173 355.235 287.869 356.195 287.261C357.187 286.621 357.875 285.805 358.259 284.813L362.291 286.733C360.083 290.573 356.803 292.493 352.451 292.493C349.379 292.493 346.771 291.389 344.627 289.181C342.483 286.973 341.411 284.157 341.411 280.733C341.411 277.277 342.451 274.461 344.531 272.285C346.643 270.077 349.283 268.973 352.451 268.973C355.395 268.973 357.891 270.045 359.939 272.189C361.987 274.333 363.011 277.101 363.011 280.493L362.531 281.933ZM352.451 273.293C349.315 273.293 347.315 274.765 346.451 277.709H357.971C357.843 276.461 357.251 275.421 356.195 274.589C355.139 273.725 353.891 273.293 352.451 273.293ZM368.045 285.773V269.453H385.805V292.013H381.005V273.773H372.845V285.533C372.845 287.901 372.173 289.741 370.829 291.053C369.517 292.333 367.709 292.973 365.405 292.973L364.685 292.493V288.173H365.645C366.349 288.173 366.925 287.949 367.373 287.501C367.821 287.053 368.045 286.477 368.045 285.773ZM413.154 269.453V292.013H408.834L408.354 290.093L408.114 289.853L407.874 290.093C406.274 291.693 404.194 292.493 401.634 292.493C398.434 292.493 395.714 291.389 393.474 289.181C391.234 286.973 390.114 284.157 390.114 280.733C390.114 277.309 391.234 274.493 393.474 272.285C395.714 270.077 398.434 268.973 401.634 268.973C404.194 268.973 406.274 269.773 407.874 271.373L408.114 271.613L408.354 271.373L408.834 269.453H413.154ZM406.866 286.013C408.178 284.573 408.834 282.813 408.834 280.733C408.834 278.653 408.178 276.893 406.866 275.453C405.554 274.013 403.89 273.293 401.874 273.293C399.666 273.293 397.938 273.997 396.69 275.405C395.474 276.813 394.866 278.589 394.866 280.733C394.866 282.877 395.474 284.653 396.69 286.061C397.938 287.469 399.666 288.173 401.874 288.173C403.89 288.173 405.554 287.453 406.866 286.013ZM424.257 292.013V286.253H430.017V292.013H424.257ZM422.337 268.013L417.537 267.053C417.537 264.397 418.561 262.061 420.609 260.045C422.689 257.997 425.121 256.973 427.905 256.973C430.529 256.973 432.817 257.917 434.769 259.805C436.721 261.693 437.697 263.949 437.697 266.573C437.697 268.045 437.409 269.405 436.833 270.653C436.289 271.901 435.617 272.893 434.817 273.629C434.049 274.365 433.233 275.133 432.369 275.933C431.505 276.733 430.769 277.453 430.161 278.093C429.553 278.733 429.153 279.565 428.961 280.589C428.801 281.613 428.993 282.701 429.537 283.853H424.737C424.257 282.253 424.129 280.829 424.353 279.581C424.577 278.301 424.977 277.277 425.553 276.509C426.161 275.709 426.881 274.925 427.713 274.157C428.577 273.389 429.377 272.701 430.113 272.093C430.881 271.485 431.537 270.717 432.081 269.789C432.625 268.861 432.897 267.869 432.897 266.813C432.897 265.245 432.401 263.997 431.409 263.069C430.449 262.109 429.185 261.629 427.617 261.629C426.081 261.629 424.817 262.141 423.825 263.165C422.833 264.189 422.337 265.485 422.337 267.053V268.013Z" fill="#216037"/>
</svg>
