<svg width="448" height="448" viewBox="0 0 448 448" fill="none" xmlns="http://www.w3.org/2000/svg">
<path d="M188.292 361.214L186.211 355.907C180.002 339.989 162.349 331.765 146.163 337.258L140.78 339.078C114.473 348.011 90.0963 321.423 101.234 295.975L103.521 290.757C110.382 275.102 103.726 256.81 88.3884 249.254L83.2819 246.73C58.3569 234.441 59.9282 198.392 85.813 188.291L91.1195 186.211C107.038 180.002 115.262 162.348 109.769 146.163L107.949 140.78C99.0162 114.473 125.604 90.0961 151.052 101.233L156.27 103.521C171.925 110.382 190.217 103.726 197.773 88.3882L200.297 83.2817C212.586 58.3567 248.635 59.928 258.735 85.8128L260.816 91.1193C267.025 107.038 284.678 115.262 300.863 109.768L306.247 107.949C332.554 99.016 356.931 125.603 345.793 151.052L343.506 156.27C336.645 171.925 343.301 190.217 358.639 197.773L363.745 200.297C388.67 212.585 387.099 248.634 361.214 258.735L355.907 260.816C339.989 267.024 331.765 284.678 337.258 300.863L339.078 306.246C348.011 332.554 321.423 356.93 295.975 345.793L290.757 343.506C275.102 336.645 256.81 343.301 249.254 358.638L246.73 363.745C234.441 388.67 198.392 387.099 188.292 361.214Z" fill="#EFEDE5" stroke="#216037" stroke-width="6" stroke-miterlimit="10"/>
<path d="M187.155 257.348C205.833 277.418 237.244 278.547 257.314 259.87C277.384 241.193 278.513 209.782 259.836 189.711C241.159 169.641 209.748 168.512 189.678 187.189C169.607 205.866 168.478 237.278 187.155 257.348Z" fill="#A3B18A" stroke="#216037" stroke-width="6" stroke-miterlimit="10"/>
</svg>
