<svg width="314" height="314" viewBox="0 0 314 314" fill="none" xmlns="http://www.w3.org/2000/svg">
<path d="M132.443 253.406L130.988 249.693C126.644 238.556 114.292 232.802 102.968 236.645L99.2021 237.918C80.7961 244.168 63.741 225.566 71.5332 207.761L73.1334 204.11C77.9341 193.157 73.2769 180.359 62.546 175.073L58.9733 173.307C41.5344 164.709 42.6338 139.487 60.7441 132.42L64.4568 130.964C75.5941 126.621 81.3481 114.269 77.5048 102.945L76.2314 99.1787C69.9818 80.7726 88.5837 63.7175 106.389 71.5098L110.04 73.11C120.993 77.9106 133.791 73.2535 139.077 62.5226L140.843 58.9498C149.441 41.511 174.663 42.6104 181.73 60.7207L183.185 64.4334C187.529 75.5707 199.881 81.3246 211.205 77.4814L214.971 76.208C233.377 69.9584 250.432 88.5603 242.64 106.365L241.04 110.016C236.239 120.969 240.896 133.767 251.627 139.054L255.2 140.82C272.639 149.417 271.539 174.639 253.429 181.706L249.716 183.162C238.579 187.506 232.825 199.857 236.668 211.181L237.942 214.948C244.191 233.354 225.589 250.409 207.784 242.616L204.133 241.016C193.18 236.216 180.382 240.873 175.096 251.604L173.33 255.176C164.732 272.615 139.51 271.516 132.443 253.406Z" fill="#EFEDE5" stroke="#A3B18A" stroke-width="6" stroke-miterlimit="10"/>
<path d="M131.649 180.735C144.716 194.777 166.693 195.567 180.735 182.5C194.777 169.432 195.567 147.456 182.5 133.413C169.432 119.371 147.455 118.581 133.413 131.649C119.371 144.716 118.581 166.693 131.649 180.735Z" fill="#216037" stroke="#A3B18A" stroke-width="6" stroke-miterlimit="10"/>
</svg>
