<svg width="228" height="228" viewBox="0 0 228 228" fill="none" xmlns="http://www.w3.org/2000/svg">
<path d="M167.39 197.323L163.68 195.859C152.568 191.452 139.941 196.574 135.04 207.482L133.407 211.107C125.443 228.838 100.206 228.651 92.4806 210.817L90.898 207.159C86.1503 196.183 73.6087 190.873 62.4285 195.128L58.7017 196.54C40.5275 203.449 22.8127 185.462 29.9769 167.39L31.4404 163.68C35.8478 152.568 30.7257 139.941 19.8177 135.04L16.1931 133.407C-1.53871 125.443 -1.35152 100.206 16.4824 92.4806L20.141 90.898C31.1171 86.1503 36.4264 73.6087 32.1721 62.4285L30.7597 58.7017C23.8508 40.5275 41.8378 22.8127 59.9099 29.9769L63.6197 31.4404C74.7318 35.8478 87.3585 30.7257 92.2594 19.8177L93.893 16.1931C101.857 -1.53871 127.093 -1.35152 134.819 16.4824L136.402 20.141C141.149 31.1171 153.691 36.4264 164.871 32.1721L168.598 30.7597C186.772 23.8508 204.487 41.8378 197.323 59.9099L195.859 63.6197C191.452 74.7318 196.574 87.3585 207.482 92.2594L211.107 93.893C228.838 101.857 228.651 127.093 210.817 134.819L207.159 136.402C196.183 141.149 190.873 153.691 195.128 164.871L196.54 168.598C203.449 186.772 185.462 204.487 167.39 197.323Z" fill="#EFEDE5" stroke="#216037" stroke-width="6" stroke-miterlimit="10"/>
<path d="M113.649 148.398C132.831 148.398 148.381 132.848 148.381 113.666C148.381 94.4845 132.831 78.9346 113.649 78.9346C94.4675 78.9346 78.9175 94.4845 78.9175 113.666C78.9175 132.848 94.4675 148.398 113.649 148.398Z" fill="#A3B18A" stroke="#216037" stroke-width="6" stroke-miterlimit="10"/>
</svg>
