<svg width="323" height="323" viewBox="0 0 323 323" fill="none" xmlns="http://www.w3.org/2000/svg">
<path d="M237.959 280.742L232.657 278.65C216.775 272.351 198.728 279.672 191.723 295.262L189.388 300.443C178.005 325.787 141.935 325.519 130.893 300.03L128.631 294.8C121.845 279.112 103.92 271.524 87.94 277.604L82.6135 279.623C56.6374 289.498 31.318 263.79 41.5576 237.959L43.6493 232.657C49.9488 216.775 42.6278 198.728 27.0373 191.723L21.8566 189.388C-3.48709 178.005 -3.21955 141.935 22.2701 130.893L27.4994 128.631C43.1872 121.845 50.7757 103.92 44.6952 87.94L42.6764 82.6135C32.8016 56.6374 58.5102 31.318 84.3404 41.5576L89.6426 43.6493C105.525 49.9488 123.572 42.6278 130.577 27.0373L132.912 21.8566C144.295 -3.48709 180.364 -3.21955 191.407 22.2701L193.669 27.4994C200.455 43.1872 218.38 50.7757 234.36 44.6952L239.686 42.6764C265.662 32.8016 290.982 58.5102 280.742 84.3404L278.65 89.6426C272.351 105.525 279.672 123.572 295.262 130.577L300.443 132.912C325.787 144.295 325.519 180.364 300.03 191.407L294.8 193.669C279.112 200.455 271.524 218.38 277.605 234.36L279.623 239.686C289.498 265.662 263.79 290.982 237.959 280.742Z" fill="#EFEDE5" stroke="#A3B18A" stroke-width="6" stroke-miterlimit="10"/>
<path d="M161.15 210.815C188.566 210.815 210.792 188.59 210.792 161.174C210.792 133.758 188.566 111.532 161.15 111.532C133.734 111.532 111.508 133.758 111.508 161.174C111.508 188.59 133.734 210.815 161.15 210.815Z" fill="#216037" stroke="#A3B18A" stroke-width="6" stroke-miterlimit="10"/>
</svg>
