<svg width="272" height="100" viewBox="0 0 272 100" fill="none" xmlns="http://www.w3.org/2000/svg">
<path d="M13.4134 27.8741H7.97676V49.3712H0V0.458496H7.97676V20.049H13.4134V0.458496H21.3902V49.3679H13.4134V27.8708V27.8741Z" fill="#EFEDE5"/>
<path d="M35.0133 49.8953H33.4585C27.1065 49.8953 23.7173 46.6742 23.7173 40.6256V30.832H31.6242V39.3794C31.6242 41.6147 32.3998 42.799 34.2377 42.799C36.0755 42.799 36.8477 41.6147 36.8477 38.592V37.476C36.8477 33.9913 36.4948 32.7419 33.6018 29.2572L28.518 23.2086C25.1289 19.1317 24.1401 15.9756 24.1401 11.1113V9.53331C24.1401 3.02593 27.669 0 33.9512 0H35.4361C42.0013 0 44.5414 2.69405 44.5414 8.47911V16.4995H36.8477V9.46498C36.8477 7.82187 36.4948 6.57245 34.5906 6.57245C32.6863 6.57245 32.2601 7.68847 32.2601 9.99208V10.9129C32.2601 13.6753 32.8261 15.185 35.506 18.4061L40.5897 24.5198C44.1885 28.857 45.3171 31.3558 45.3171 36.8773V38.4553C45.3171 45.62 42.0013 49.8921 35.0098 49.8921L35.0133 49.8953Z" fill="#EFEDE5"/>
<path d="M65.7219 0.458496V7.55804H55.5544V20.3776H63.5312V27.8057H55.5544V41.9398H66.1447V49.3679H47.5776V0.458496H65.7184H65.7219Z" fill="#EFEDE5"/>
<path d="M87.6782 40.1665H81.8886L80.83 49.3712H73.6987L80.1242 0.458496H89.5824L96.4306 49.3679H88.7368L87.6782 40.1632V40.1665ZM86.8291 32.8685L84.7118 14.791L82.6643 32.8685H86.8291Z" fill="#EFEDE5"/>
<path d="M105.679 49.3679H97.7021V0.458496H110.619C115.913 0.458496 118.596 2.56363 118.596 8.01681V16.6944C118.596 20.7713 116.549 22.3493 115.137 22.9382C116.902 23.6605 118.596 24.975 118.596 28.2645V45.4212C118.596 47.3929 119.019 48.3137 119.372 49.0361V49.3647H111.465C111.112 48.8376 110.689 47.9851 110.689 45.3561V30.6299C110.689 28.4597 110.267 27.5389 107.726 27.5389H105.679V49.3647V49.3679ZM105.679 20.5728H107.796C109.987 20.5728 110.689 19.2583 110.689 17.0881V10.2521C110.689 8.14696 110.197 7.09602 107.796 7.09602H105.679V20.5728Z" fill="#EFEDE5"/>
<path d="M134.693 7.55804V49.3679H126.786V7.55804H120.081V0.458496H141.401V7.55804H134.696H134.693Z" fill="#EFEDE5"/>
<path d="M162.858 40.1665H157.068L156.01 49.3712H148.878L155.304 0.458496H164.762L171.61 49.3679H163.917L162.858 40.1632V40.1665ZM162.009 32.8685L159.891 14.791L157.844 32.8685H162.009Z" fill="#EFEDE5"/>
<path d="M180.084 0.458496L186.932 26.6897V0.458496H194.203V49.3679H187.708L180.084 21.2333V49.3679H172.883V0.458496H180.084Z" fill="#EFEDE5"/>
<path d="M197.169 0.458496H209.38C216.229 0.458496 218.346 4.07334 218.346 9.8584V39.6362C218.346 45.6197 215.946 49.3647 209.38 49.3647H197.169V0.458496ZM205.146 42.2684H207.05C209.45 42.2684 210.156 41.084 210.156 38.4551V10.9126C210.156 8.08514 209.38 7.09927 207.403 7.09927H205.146V42.2684Z" fill="#EFEDE5"/>
<path d="M0 50.3597H12.2115C19.0597 50.3597 21.177 53.9745 21.177 59.7596V89.5374C21.177 95.5209 18.7767 99.2659 12.2115 99.2659H0V50.3564V50.3597ZM7.97676 92.1696H9.88448C12.2848 92.1696 12.9906 90.9852 12.9906 88.3563V60.8105C12.9906 57.9831 12.215 56.9972 10.2374 56.9972H7.97676V92.1663V92.1696Z" fill="#EFEDE5"/>
<path d="M42.1442 50.3608V57.4604H31.9802V70.2799H39.9569V77.7081H31.9802V91.8421H42.5704V99.2703H24.0034V50.3608H42.1442Z" fill="#EFEDE5"/>
<path d="M55.275 99.7972H53.7202C47.3682 99.7972 43.979 96.576 43.979 90.5274V80.7338H51.8859V89.2812C51.8859 91.5165 52.6616 92.7009 54.4959 92.7009C56.3302 92.7009 57.1094 91.5165 57.1094 88.4939V87.3778C57.1094 83.8931 56.7565 82.6437 53.8635 79.159L48.7797 73.1104C45.3906 69.0335 44.4018 65.8775 44.4018 61.0132V59.4352C44.4018 52.9278 47.9307 49.9019 54.2129 49.9019H55.6943C62.2595 49.9019 64.7997 52.5959 64.7997 58.381V66.4013H57.1059V59.3668C57.1059 57.7237 56.753 56.4743 54.8453 56.4743C52.9376 56.4743 52.5148 57.5903 52.5148 59.8939V60.8147C52.5148 63.5771 53.0808 65.0868 55.7607 68.308L60.8445 74.4217C64.4433 78.7588 65.5753 81.2577 65.5753 86.7792V88.3572C65.5753 95.5218 62.2595 99.7972 55.2681 99.7972H55.275Z" fill="#EFEDE5"/>
<path d="M75.8156 99.2703H67.8389V50.3608H75.8156V99.2703Z" fill="#EFEDE5"/>
<path d="M86.1966 99.9306C81.5391 99.9306 78.5728 96.0522 78.5728 90.9894V60.421C78.5728 54.9646 80.8334 49.9019 88.3839 49.9019H89.9387C98.4815 49.9019 99.4703 55.0947 99.4703 60.8798V65.8742H91.7066V60.3527C91.7066 58.1825 91.1406 56.9981 89.1665 56.9981C87.4719 56.9981 86.6963 58.1825 86.6963 60.3527V88.9494C86.6963 91.2497 87.6851 92.4341 89.3063 92.4341C91.3537 92.4341 92.2727 91.1196 92.2727 89.278V77.0506H88.6739V69.5574H99.8266V99.2701H95.3089C95.2391 99.0065 94.6031 96.576 93.9672 94.4709C93.4012 96.114 90.7213 99.9273 86.6963 99.9273H86.2036L86.1966 99.9306Z" fill="#EFEDE5"/>
<path d="M109.774 50.3608L116.622 76.5921V50.3608H123.893V99.2703H117.398L109.774 71.1356V99.2703H102.573V50.3608H109.774Z" fill="#EFEDE5"/>
<path d="M144.717 99.7972H143.163C136.811 99.7972 133.421 96.576 133.421 90.5274V80.7338H141.328V89.2812C141.328 91.5165 142.104 92.7009 143.942 92.7009C145.78 92.7009 146.552 91.5165 146.552 88.4939V87.3778C146.552 83.8931 146.199 82.6437 143.306 79.159L138.222 73.1104C134.833 69.0335 133.844 65.8775 133.844 61.0132V59.4352C133.844 52.9278 137.373 49.9019 143.655 49.9019H145.14C151.705 49.9019 154.246 52.5959 154.246 58.381V66.4013H146.552V59.3668C146.552 57.7237 146.199 56.4743 144.295 56.4743C142.39 56.4743 141.964 57.5903 141.964 59.8939V60.8147C141.964 63.5771 142.53 65.0868 145.21 68.308L150.294 74.4217C153.893 78.7588 155.021 81.2577 155.021 86.7792V88.3572C155.021 95.5218 151.705 99.7972 144.714 99.7972H144.717Z" fill="#EFEDE5"/>
<path d="M170.342 89.346V77.9743H178.179V89.2809C178.179 94.5389 176.345 99.8652 168.647 99.8652H166.883C158.836 99.8652 157.072 94.4738 157.072 89.5445V59.6984C157.072 54.704 159.402 49.9048 166.6 49.9048H168.434C177.187 49.9048 178.175 55.2961 178.175 60.0953V68.838H170.338V60.2255C170.338 58.1203 169.633 57.0043 167.655 57.0043C165.677 57.0043 165.185 58.0553 165.185 60.2255V89.2809C165.185 91.4511 165.96 92.6322 167.725 92.6322C169.629 92.6322 170.338 91.3177 170.338 89.346H170.342Z" fill="#EFEDE5"/>
<path d="M194.132 77.7766H188.696V99.2737H180.719V50.3643H188.696V69.9547H194.132V50.3643H202.109V99.2737H194.132V77.7766Z" fill="#EFEDE5"/>
<path d="M226.675 88.3605C226.675 95.1965 224.205 99.8655 216.511 99.8655H215.17C207.546 99.8655 204.862 95.1997 204.862 88.3605V61.1433C204.862 54.3724 207.616 49.9019 215.096 49.9019H216.438C224.202 49.9019 226.672 54.3724 226.672 61.0783V88.3605H226.675ZM218.559 60.7497C218.559 58.1857 217.64 57.0014 215.805 57.0014C213.758 57.0014 212.982 58.2508 212.982 60.7497V88.8843C212.982 90.9894 213.618 92.6325 215.875 92.6325C217.993 92.6325 218.559 90.9894 218.559 88.8843V60.7497Z" fill="#EFEDE5"/>
<path d="M251.032 88.3605C251.032 95.1965 248.562 99.8655 240.865 99.8655H239.523C231.899 99.8655 229.216 95.1997 229.216 88.3605V61.1433C229.216 54.3724 231.969 49.9019 239.453 49.9019H240.795C248.558 49.9019 251.029 54.3724 251.029 61.0783V88.3605H251.032ZM242.916 60.7497C242.916 58.1857 241.997 57.0014 240.162 57.0014C238.115 57.0014 237.339 58.2508 237.339 60.7497V88.8843C237.339 90.9894 237.972 92.6325 240.232 92.6325C242.35 92.6325 242.916 90.9894 242.916 88.8843V60.7497Z" fill="#EFEDE5"/>
<path d="M261.759 50.3597V91.7076H271.5V99.2659H253.782V50.3564H261.759V50.3597Z" fill="#EFEDE5"/>
</svg>
