<svg width="521" height="515" viewBox="0 0 521 515" fill="none" xmlns="http://www.w3.org/2000/svg">
<path d="M34.8242 298L35.3069 302.803C36.973 319.384 24.8827 334.175 8.30239 335.841L3.499 336.324L3.01632 331.521C1.35023 314.94 13.4406 300.149 30.0208 298.483L34.8242 298Z" fill="#216037"/>
<path d="M477.265 303.413L478.565 298.764C483.052 282.716 499.699 273.343 515.747 277.831L520.396 279.13L519.097 283.78C514.609 299.828 497.962 309.2 481.914 304.713L477.265 303.413Z" fill="#216037"/>
<path d="M64.0254 335.854L68.5816 334.259C84.3086 328.75 101.523 337.034 107.032 352.761L108.627 357.317L104.071 358.913C88.3443 364.422 71.1296 356.138 65.6212 340.411L64.0254 335.854Z" fill="#216037"/>
<path d="M463.856 257.523L459.032 257.35C442.379 256.752 429.364 242.767 429.962 226.114L430.135 221.289L434.959 221.463C451.612 222.061 464.628 236.045 464.03 252.698L463.856 257.523Z" fill="#216037"/>
<path d="M109.582 406.782L112.964 403.337C124.638 391.446 143.742 391.271 155.633 402.945L159.077 406.327L155.695 409.772C144.021 421.663 124.918 421.839 113.027 410.164L109.582 406.782Z" fill="#216037"/>
<path d="M447.261 174.874L442.856 176.85C427.653 183.673 409.798 176.879 402.976 161.675L400.999 157.271L405.404 155.294C420.607 148.472 438.462 155.266 445.284 170.47L447.261 174.874Z" fill="#216037"/>
<path d="M119.802 104.742L123.015 108.345C134.106 120.782 133.016 139.855 120.579 150.946L116.976 154.159L113.763 150.556C102.672 138.12 103.762 119.047 116.199 107.956L119.802 104.742Z" fill="#216037"/>
<path d="M204.686 457.912L206.268 453.351C211.729 437.608 228.919 429.272 244.662 434.733L249.223 436.315L247.641 440.876C242.18 456.62 224.99 464.955 209.247 459.494L204.686 457.912Z" fill="#216037"/>
<path d="M377.313 92.6184L374.179 96.2899C363.359 108.963 344.314 110.465 331.641 99.6452L327.969 96.5105L331.104 92.8391C341.924 80.166 360.969 78.6637 373.642 89.4838L377.313 92.6184Z" fill="#216037"/>
<path d="M63.6377 180L68.0838 181.881C83.4308 188.373 90.609 206.077 84.1167 221.424L82.2358 225.871L77.7897 223.99C62.4427 217.497 55.2645 199.793 61.7568 184.446L63.6377 180Z" fill="#216037"/>
<path d="M50.7422 256L55.5253 256.654C72.0355 258.911 83.5899 274.125 81.3328 290.635L80.679 295.418L75.8959 294.764C59.3857 292.507 47.8312 277.293 50.0883 260.783L50.7422 256Z" fill="#216037"/>
<path d="M295.517 460.458L295.015 455.657C293.285 439.083 305.317 424.245 321.891 422.514L326.692 422.012L327.194 426.814C328.924 443.388 316.892 458.226 300.318 459.957L295.517 460.458Z" fill="#216037"/>
<path d="M293.647 57.165L292.366 61.8193C287.941 77.885 271.33 87.3219 255.265 82.8973L250.611 81.6155L251.892 76.9612C256.317 60.8955 272.928 51.4586 288.993 55.8832L293.647 57.165Z" fill="#216037"/>
<path d="M377.146 427.017L373.926 423.42C362.814 411.002 363.873 391.927 376.291 380.815L379.888 377.596L383.108 381.193C394.22 393.611 393.161 412.686 380.743 423.798L377.146 427.017Z" fill="#216037"/>
<path d="M205.446 58.5789L207.134 63.1018C212.96 78.7139 205.027 96.093 189.415 101.919L184.892 103.607L183.204 99.0838C177.378 83.4716 185.311 66.0926 200.923 60.2667L205.446 58.5789Z" fill="#216037"/>
<path d="M57.4971 371.766L60.5628 375.496C71.1452 388.368 69.2888 407.382 56.4165 417.964L52.6873 421.03L49.6216 417.3C39.0393 404.428 40.8956 385.414 53.7679 374.832L57.4971 371.766Z" fill="#216037"/>
<path d="M483.016 226.456L481.519 221.866C476.351 206.024 485.005 188.992 500.848 183.825L505.437 182.328L506.934 186.917C512.102 202.76 503.448 219.791 487.605 224.959L483.016 226.456Z" fill="#216037"/>
<path d="M139.4 451.668L143.914 453.381C159.495 459.29 167.335 476.711 161.425 492.292L159.713 496.806L155.199 495.094C139.619 489.184 131.779 471.763 137.688 456.182L139.4 451.668Z" fill="#216037"/>
<path d="M435.84 122.21L432.26 118.972C419.902 107.794 418.945 88.7134 430.124 76.3552L433.362 72.775L436.942 76.0135C449.3 87.1919 450.257 106.272 439.078 118.63L435.84 122.21Z" fill="#216037"/>
<path d="M73.0371 131.521L71.0297 135.911C64.1007 151.066 46.1981 157.735 31.0433 150.806L26.6529 148.798L28.6602 144.408C35.5893 129.253 53.4918 122.585 68.6467 129.514L73.0371 131.521Z" fill="#216037"/>
<path d="M250.991 479.896L255.818 479.84C272.481 479.645 286.147 492.994 286.342 509.657L286.399 514.484L281.571 514.54C264.909 514.736 251.243 501.386 251.048 484.723L250.991 479.896Z" fill="#216037"/>
<path d="M342.195 55.2791L337.679 53.5735C322.09 47.6865 314.225 30.2766 320.112 14.6873L321.817 10.1711L326.333 11.8766C341.923 17.7636 349.788 35.1735 343.901 50.7628L342.195 55.2791Z" fill="#216037"/>
<path d="M39.8594 220.91L39.5959 225.73C38.6866 242.369 24.4609 255.121 7.82193 254.211L3.00153 253.948L3.26498 249.127C4.17434 232.488 18.4 219.737 35.039 220.646L39.8594 220.91Z" fill="#216037"/>
<path d="M338.889 467.316L343.324 465.411C358.636 458.835 376.379 465.917 382.955 481.228L384.86 485.664L380.424 487.569C365.112 494.145 347.369 487.063 340.794 471.752L338.889 467.316Z" fill="#216037"/>
<path d="M255.752 34.9812L250.927 35.1398C234.272 35.6871 220.327 22.6295 219.78 5.9747L219.621 1.14971L224.446 0.991144C241.101 0.443797 255.046 13.5014 255.593 30.1562L255.752 34.9812Z" fill="#216037"/>
<path d="M408.154 423.623L411.717 420.365C424.013 409.118 443.098 409.969 454.344 422.265L457.603 425.827L454.04 429.085C441.744 440.332 422.659 439.481 411.413 427.185L408.154 423.623Z" fill="#216037"/>
<path d="M175.33 50.4463L170.826 52.1833C155.278 58.1791 137.814 50.4357 131.818 34.888L130.081 30.3837L134.585 28.6467C150.133 22.6509 167.597 30.3943 173.593 45.942L175.33 50.4463Z" fill="#216037"/>
<path d="M450.783 370.282L453.191 366.098C461.504 351.655 479.951 346.686 494.393 354.999L498.577 357.407L496.169 361.591C487.856 376.034 469.41 381.003 454.967 372.69L450.783 370.282Z" fill="#216037"/>
<path d="M116.201 84.5964L112.434 87.616C99.4327 98.0387 80.4433 95.948 70.0205 82.9462L67.001 79.1795L70.7677 76.16C83.7695 65.7372 102.759 67.8279 113.182 80.8297L116.201 84.5964Z" fill="#216037"/>
<path d="M439.855 361.123L435.738 358.603C421.524 349.905 417.053 331.331 425.751 317.118L428.271 313L432.389 315.52C446.602 324.218 451.073 342.792 442.375 357.005L439.855 361.123Z" fill="#216037"/>
<circle cx="258.002" cy="260" r="215" stroke="#EFEDE5" stroke-width="15"/>
<circle cx="258.002" cy="260" r="215" stroke="#216037" stroke-width="8"/>
</svg>
