<svg width="794" height="539" viewBox="0 0 794 539" fill="none" xmlns="http://www.w3.org/2000/svg">
<path d="M66 467C49.3334 363.667 146.4 163 508 291C869.6 419 866.667 153.667 820 5" stroke="#1E5732" stroke-width="10" stroke-linecap="round"/>
<path d="M58.2964 532.007L60.1524 534.364L62.5093 532.508L66.3021 529.522C80.6957 518.187 83.1757 497.331 71.8412 482.937L68.8545 479.144L66.9985 476.787L64.6416 478.643L60.8488 481.63C46.4552 492.964 43.9752 513.821 55.3097 528.215L58.2964 532.007Z" fill="#216037" stroke="#EFEDE5" stroke-width="6"/>
<path d="M5.11198 465.881L4.29998 468.769L7.188 469.581L11.8354 470.888C29.4721 475.847 47.7895 465.569 52.7483 447.933L54.0549 443.285L54.8669 440.397L51.9789 439.585L47.3315 438.278C29.6948 433.32 11.3775 443.597 6.41865 461.234L5.11198 465.881Z" fill="#216037" stroke="#EFEDE5" stroke-width="6"/>
<path d="M110.468 450.573L113.45 450.898L113.776 447.916L114.299 443.117C116.287 424.904 103.134 408.529 84.9215 406.541L80.1224 406.018L77.1401 405.692L76.8147 408.674L76.291 413.474C74.3035 431.686 87.4564 448.061 105.669 450.049L110.468 450.573Z" fill="#1E5732" stroke="#EFEDE5" stroke-width="6"/>
<path d="M120.283 386.381L122.69 388.172L124.481 385.766L127.364 381.894C138.304 367.198 135.259 346.416 120.563 335.476L116.691 332.594L114.285 330.802L112.493 333.209L109.611 337.081C98.6706 351.777 101.715 372.558 116.411 383.498L120.283 386.381Z" fill="#216037" stroke="#EFEDE5" stroke-width="6"/>
<path d="M158.312 339.018L159.764 341.644L162.389 340.192L166.614 337.856C182.646 328.99 188.456 308.806 179.59 292.773L177.254 288.548L175.802 285.923L173.177 287.375L168.952 289.711C152.92 298.577 147.11 318.761 155.976 334.794L158.312 339.018Z" fill="#216037" stroke="#EFEDE5" stroke-width="6"/>
<path d="M220.418 299.494L220.513 302.493L223.512 302.398L228.337 302.245C246.648 301.666 261.023 286.352 260.444 268.041L260.291 263.215L260.196 260.217L257.198 260.312L252.373 260.464C234.061 261.044 219.687 276.358 220.266 294.669L220.418 299.494Z" fill="#216037" stroke="#EFEDE5" stroke-width="6"/>
<path d="M305.167 293.296L304.72 296.263L307.686 296.71L312.46 297.429C330.576 300.157 347.475 287.683 350.203 269.567L350.922 264.793L351.369 261.827L348.403 261.38L343.629 260.661C325.513 257.932 308.614 270.406 305.886 288.523L305.167 293.296Z" fill="#2A712D" stroke="#EFEDE5" stroke-width="6"/>
<path d="M403.867 310.091L403.16 313.007L406.076 313.713L410.768 314.85C428.573 319.164 446.505 308.228 450.819 290.422L451.956 285.73L452.662 282.815L449.747 282.108L445.055 280.971C427.249 276.657 409.318 287.594 405.003 305.399L403.867 310.091Z" fill="#216037" stroke="#EFEDE5" stroke-width="6"/>
<path d="M497.837 336.447L496.798 339.261L499.612 340.3L504.141 341.972C521.328 348.316 540.404 339.527 546.749 322.34L548.421 317.811L549.46 314.997L546.645 313.958L542.116 312.286C524.929 305.941 505.853 314.731 499.509 331.918L497.837 336.447Z" fill="#1E5732" stroke="#EFEDE5" stroke-width="6"/>
<path d="M606.024 366.346L605.647 369.323L608.623 369.699L613.413 370.306C631.588 372.606 648.187 359.736 650.487 341.56L651.094 336.771L651.47 333.795L648.494 333.418L643.705 332.812C625.529 330.512 608.93 343.381 606.63 361.557L606.024 366.346Z" fill="#216037" stroke="#EFEDE5" stroke-width="6"/>
<path d="M714.158 368.825L714.85 371.744L717.77 371.052L722.467 369.938C740.293 365.71 751.316 347.831 747.088 330.005L745.974 325.308L745.282 322.389L742.362 323.081L737.665 324.195C719.839 328.423 708.816 346.302 713.044 364.128L714.158 368.825Z" fill="#216037" stroke="#EFEDE5" stroke-width="6"/>
<path d="M23.2001 377.588L22.1228 380.388L24.9227 381.465L29.4282 383.199C46.5268 389.778 65.7213 381.25 72.3004 364.152L74.034 359.646L75.1114 356.846L72.3115 355.769L67.8059 354.035C50.7073 347.456 31.5128 355.984 24.9337 373.083L23.2001 377.588Z" fill="#1E5732" stroke="#EFEDE5" stroke-width="6"/>
<path d="M74.7252 286.921L72.4956 288.928L74.5029 291.158L77.733 294.745C89.9911 308.361 110.966 309.461 124.581 297.203L128.169 293.973L130.399 291.966L128.391 289.736L125.161 286.149C112.903 272.533 91.9285 271.433 78.3129 283.691L74.7252 286.921Z" fill="#216037" stroke="#EFEDE5" stroke-width="6"/>
<path d="M160.313 224.192L157.436 225.041L158.285 227.919L159.652 232.549C164.838 250.12 183.286 260.161 200.857 254.975L205.487 253.608L208.365 252.759L207.515 249.882L206.149 245.252C200.963 227.68 182.515 217.64 164.944 222.826L160.313 224.192Z" fill="#2A712D" stroke="#EFEDE5" stroke-width="6"/>
<path d="M270.735 201.678L267.736 201.753L267.81 204.752L267.93 209.578C268.384 227.893 283.6 242.372 301.915 241.917L306.741 241.797L309.74 241.723L309.666 238.724L309.546 233.898C309.091 215.583 293.876 201.104 275.561 201.558L270.735 201.678Z" fill="#216037" stroke="#EFEDE5" stroke-width="6"/>
<path d="M387.302 207.072L384.374 206.417L383.719 209.345L382.664 214.056C378.662 231.934 389.91 249.671 407.788 253.674L412.499 254.729L415.427 255.384L416.082 252.456L417.137 247.745C421.139 229.867 409.891 212.13 392.013 208.127L387.302 207.072Z" fill="#216037" stroke="#EFEDE5" stroke-width="6"/>
<path d="M491.37 234.089L488.509 233.187L487.607 236.049L486.157 240.653C480.65 258.127 490.352 276.755 507.826 282.261L512.43 283.712L515.291 284.614L516.193 281.753L517.644 277.148C523.15 259.675 513.448 241.046 495.975 235.54L491.37 234.089Z" fill="#1E5732" stroke="#EFEDE5" stroke-width="6"/>
<path d="M575.882 259.103L572.985 258.323L572.205 261.22L570.95 265.881C566.185 283.572 576.664 301.775 594.354 306.539L599.016 307.795L601.912 308.575L602.693 305.678L603.948 301.016C608.712 283.326 598.234 265.123 580.544 260.359L575.882 259.103Z" fill="#216037" stroke="#EFEDE5" stroke-width="6"/>
<path d="M660.928 275.846L657.928 275.918L658.001 278.917L658.117 283.743C658.559 302.059 673.765 316.548 692.081 316.106L696.907 315.989L699.906 315.917L699.834 312.918L699.717 308.091C699.275 289.776 684.069 275.287 665.754 275.729L660.928 275.846Z" fill="#2A712D" stroke="#EFEDE5" stroke-width="6"/>
<path d="M734.263 266.82L731.817 268.557L733.554 271.003L736.349 274.939C746.957 289.876 767.666 293.385 782.603 282.777L786.539 279.982L788.985 278.245L787.248 275.799L784.452 271.863C773.844 256.926 753.136 253.416 738.199 264.024L734.263 266.82Z" fill="#216037" stroke="#EFEDE5" stroke-width="6"/>
</svg>
