<svg width="751" height="786" viewBox="0 0 751 786" fill="none" xmlns="http://www.w3.org/2000/svg">
<path d="M153.583 763.643C250.489 745.173 421.543 673.452 330.509 534.331C239.476 395.211 310.175 303.807 356.903 275.495" stroke="#EFEDE5" stroke-width="15" stroke-linecap="round"/>
<path d="M153.583 763.643C250.489 745.173 421.543 673.452 330.509 534.331C239.476 395.211 310.175 303.807 356.903 275.495" stroke="#216037" stroke-width="8" stroke-linecap="round"/>
<path d="M273.757 401.521C201.545 378.905 159.494 303.688 178.05 230.326C250.263 252.943 292.313 328.16 273.757 401.521Z" fill="#3B744E" stroke="#EFEDE5" stroke-width="8"/>
<path d="M356.565 652.131C383.399 581.377 460.964 543.834 533.103 566.682C506.269 637.436 428.704 674.979 356.565 652.131Z" fill="#3B744E" stroke="#EFEDE5" stroke-width="8"/>
<path d="M354.701 276.969L361.529 231.047C375.887 134.489 465.802 67.8537 562.359 82.2118L608.282 89.0404L601.453 134.963C587.095 231.52 497.18 298.156 400.623 283.798L354.701 276.969Z" fill="#3B744E" stroke="#EFEDE5" stroke-width="8"/>
</svg>
