<svg width="1360" height="1403" viewBox="0 0 1360 1403" fill="none" xmlns="http://www.w3.org/2000/svg">
<path d="M273.805 733.751L269.895 734.595L273.805 733.751ZM1118.5 914.013L1116.57 910.505L1118.5 914.013ZM1167.1 730.848L1170.99 731.812L1167.1 730.848ZM1237.15 698.476C1239.28 699.042 1240.55 701.233 1239.99 703.368C1239.42 705.503 1237.23 706.775 1235.1 706.208L1237.15 698.476ZM-90.8039 617.122C-43.2206 575.54 32.6245 530.815 104.998 533.444C141.386 534.766 176.817 548.067 207.062 579.542C237.221 610.928 261.992 660.138 277.715 732.906L269.895 734.595C254.361 662.702 230.082 615.044 201.293 585.085C172.589 555.213 139.173 542.691 104.708 541.439C35.3741 538.921 -38.5119 582.049 -85.5397 623.146L-90.8039 617.122ZM277.715 732.906C297.186 823.017 324.072 881.083 356.056 916.367C387.867 951.46 424.953 964.278 465.753 963.423C506.791 962.564 551.647 947.862 598.604 927.594C645.705 907.264 693.92 881.814 742.624 859.363L745.973 866.628C697.985 888.749 648.811 914.637 601.774 934.939C554.595 955.303 508.565 970.529 465.921 971.422C423.038 972.32 383.645 958.715 350.129 921.74C316.785 884.957 289.497 825.311 269.895 734.595L277.715 732.906ZM742.624 859.363C791.642 836.766 828.152 835.2 858.352 844.432C888.301 853.588 911.537 873.26 934.008 891.714C956.703 910.35 978.637 927.768 1006.63 934.307C1034.42 940.797 1068.85 936.68 1116.57 910.505L1120.42 917.52C1071.55 944.319 1035.08 949.169 1004.81 942.097C974.747 935.074 951.465 916.401 928.931 897.896C906.175 879.209 884.171 860.69 856.014 852.083C828.108 843.552 793.646 844.652 745.973 866.628L742.624 859.363ZM1116.57 910.505C1143.16 895.925 1157.99 881.595 1165.85 867.596C1173.67 853.675 1174.85 839.624 1173.24 825.006C1171.58 810.055 1167.18 795.411 1163.96 779.294C1160.8 763.503 1158.98 746.953 1163.22 729.883L1170.99 731.812C1167.17 747.171 1168.73 762.337 1171.8 777.726C1174.81 792.788 1179.49 808.789 1181.19 824.127C1182.92 839.798 1181.72 855.679 1172.83 871.513C1163.98 887.27 1147.77 902.519 1120.42 917.52L1116.57 910.505ZM1163.22 729.883C1167.35 713.273 1174.93 702.035 1187.7 696.868C1200.1 691.851 1216.46 692.986 1237.15 698.476L1235.1 706.208C1214.78 700.815 1200.58 700.287 1190.7 704.284C1181.19 708.132 1174.77 716.587 1170.99 731.812L1163.22 729.883Z" fill="#1E5732"/>
<path d="M1293.5 711.548L1290.61 707.677C1280.66 694.317 1261.75 691.56 1248.39 701.519L1244.52 704.405L1247.41 708.275C1257.37 721.635 1276.27 724.392 1289.63 714.433L1293.5 711.548Z" fill="#3B744E"/>
<path d="M1236.75 655.621L1231.95 655.07C1215.4 653.17 1200.44 665.051 1198.54 681.606L1197.99 686.402L1202.78 686.952C1219.34 688.852 1234.3 676.972 1236.2 660.417L1236.75 655.621Z" fill="#216037"/>
<path d="M1133.1 690.463L1131.74 695.097C1127.08 711.094 1136.26 727.846 1152.26 732.514L1156.89 733.867L1158.24 729.232C1162.91 713.236 1153.73 696.484 1137.73 691.815L1133.1 690.463Z" fill="#216037"/>
<path d="M1122.36 770.703L1123.14 775.467C1125.83 791.912 1141.34 803.061 1157.79 800.369L1162.55 799.589L1161.77 794.825C1159.08 778.38 1143.57 767.231 1127.12 769.923L1122.36 770.703Z" fill="#3B744E"/>
<path d="M1150.77 835.147L1147.21 838.408C1134.93 849.665 1134.09 868.751 1145.35 881.038L1148.61 884.597L1152.17 881.336C1164.46 870.079 1165.29 850.993 1154.03 838.706L1150.77 835.147Z" fill="#2A712D"/>
<path d="M1061.91 927.428L1066.51 925.953C1082.37 920.861 1091.11 903.87 1086.02 888.004L1084.54 883.407L1079.94 884.882C1064.08 889.974 1055.34 906.965 1060.44 922.832L1061.91 927.428Z" fill="#216037"/>
<path d="M976.418 917.919L980.536 920.44C994.748 929.141 1013.32 924.673 1022.02 910.461L1024.54 906.344L1020.43 903.823C1006.21 895.122 987.64 899.59 978.939 913.802L976.418 917.919Z" fill="#3B744E"/>
<path d="M922.583 875.788L926.345 878.813C939.331 889.255 958.323 887.193 968.766 874.207L971.791 870.445L968.029 867.42C955.043 856.977 936.05 859.039 925.608 872.025L922.583 875.788Z" fill="#2A712D"/>
<path d="M857.337 838.289L861.74 840.271C876.935 847.11 894.798 840.337 901.638 825.142L903.619 820.739L899.217 818.758C884.022 811.918 866.159 818.692 859.319 833.887L857.337 838.289Z" fill="#3B744E"/>
<path d="M773.511 842.653L778.249 841.728C794.604 838.536 805.274 822.689 802.082 806.334L801.157 801.596L796.419 802.521C780.064 805.714 769.393 821.56 772.586 837.915L773.511 842.653Z" fill="#216037"/>
<path d="M700.319 875.086L704.609 872.872C719.416 865.227 725.222 847.027 717.577 832.22L715.362 827.93L711.073 830.145C696.266 837.79 690.46 855.99 698.105 870.797L700.319 875.086Z" fill="#3B744E"/>
<path d="M607.064 918.626L611.657 917.14C627.513 912.013 636.209 895.003 631.081 879.148L629.596 874.554L625.003 876.04C609.147 881.167 600.451 898.177 605.578 914.033L607.064 918.626Z" fill="#216037"/>
<path d="M493.146 954.958L497.969 955.179C514.615 955.942 528.729 943.067 529.492 926.421L529.714 921.598L524.891 921.377C508.245 920.613 494.131 933.489 493.368 950.135L493.146 954.958Z" fill="#3B744E"/>
<path d="M402.353 946.158L406.672 948.314C421.582 955.755 439.701 949.701 447.143 934.791L449.299 930.472L444.979 928.316C430.069 920.874 411.95 926.928 404.508 941.838L402.353 946.158Z" fill="#216037"/>
<path d="M327.81 869.468L330.008 873.766C337.596 888.602 355.774 894.478 370.61 886.89L374.908 884.692L372.71 880.393C365.122 865.558 346.944 859.682 332.108 867.27L327.81 869.468Z" fill="#3B744E"/>
<path d="M291.626 771.969L292.432 776.729C295.213 793.159 310.786 804.224 327.217 801.443L331.976 800.638L331.171 795.878C328.39 779.448 312.816 768.383 296.386 771.164L291.626 771.969Z" fill="#216037"/>
<path d="M266.776 675.39L267.582 680.15C270.363 696.58 285.936 707.645 302.366 704.864L307.126 704.059L306.321 699.299C303.54 682.869 287.966 671.804 271.536 674.585L266.776 675.39Z" fill="#2A712D"/>
<path d="M220.878 590.127L224.005 593.805C234.799 606.501 253.841 608.042 266.536 597.249L270.214 594.122L267.087 590.444C256.294 577.748 237.252 576.206 224.556 587L220.878 590.127Z" fill="#3B744E"/>
<path d="M159.248 540.527L163.628 542.558C178.745 549.57 196.683 542.998 203.694 527.881L205.725 523.502L201.346 521.471C186.229 514.46 168.29 521.031 161.279 536.148L159.248 540.527Z" fill="#216037"/>
<path d="M65.8857 531.047L70.6565 530.309C87.1239 527.758 98.4061 512.341 95.8558 495.874L95.117 491.103L90.3463 491.842C73.8788 494.392 62.5967 509.809 65.1469 526.277L65.8857 531.047Z" fill="#3B744E"/>
<path d="M-8.67432 556.302L-4.22295 554.433C11.1422 547.984 18.3699 530.3 11.9206 514.935L10.0522 510.483L5.60084 512.352C-9.7643 518.801 -16.992 536.485 -10.5427 551.85L-8.67432 556.302Z" fill="#2A712D"/>
<path d="M-39.6074 594.311L-37.0593 598.411C-28.2639 612.565 -9.66006 616.908 4.49341 608.113L8.59375 605.565L6.04565 601.464C-2.74982 587.311 -21.3536 582.967 -35.5071 591.763L-39.6074 594.311Z" fill="#216037"/>
<path d="M108.607 547.519L108.125 552.322C106.461 568.902 118.553 583.693 135.133 585.357L139.937 585.839L140.419 581.036C142.083 564.455 129.991 549.665 113.411 548.001L108.607 547.519Z" fill="#3B744E"/>
<path d="M191.97 583.532L188.304 586.673C175.65 597.515 174.181 616.563 185.024 629.217L188.165 632.883L191.831 629.742C204.485 618.899 205.954 599.852 195.111 587.198L191.97 583.532Z" fill="#2A712D"/>
<path d="M238.074 652.288L233.671 654.268C218.474 661.104 211.696 678.965 218.531 694.163L220.512 698.565L224.914 696.585C240.112 689.749 246.89 671.888 240.054 656.691L238.074 652.288Z" fill="#216037"/>
<path d="M265.239 742.897L260.837 744.878C245.639 751.714 238.861 769.575 245.697 784.772L247.677 789.175L252.08 787.194C267.277 780.359 274.055 762.497 267.22 747.3L265.239 742.897Z" fill="#3B744E"/>
<path d="M294.135 832.502L289.732 834.483C274.535 841.319 267.757 859.18 274.592 874.377L276.573 878.78L280.975 876.799C296.173 869.964 302.951 852.102 296.115 836.905L294.135 832.502Z" fill="#216037"/>
<path d="M354.858 932.706L351.661 936.323C340.624 948.808 341.799 967.876 354.284 978.912L357.901 982.109L361.099 978.492C372.135 966.007 370.96 946.939 358.475 935.903L354.858 932.706Z" fill="#2A712D"/>
<path d="M448.105 978.295L448.327 983.117C449.092 999.764 463.206 1012.64 479.852 1011.87L484.675 1011.65L484.453 1006.83C483.688 990.183 469.574 977.309 452.928 978.073L448.105 978.295Z" fill="#216037"/>
<path d="M558.827 956.423L560.621 960.905C566.812 976.376 584.373 983.899 599.844 977.708L604.326 975.914L602.532 971.432C596.341 955.961 578.78 948.438 563.309 954.63L558.827 956.423Z" fill="#3B744E"/>
<path d="M664.143 911.431L666.636 915.565C675.241 929.835 693.785 934.427 708.055 925.822L712.189 923.329L709.696 919.195C701.091 904.925 682.547 900.333 668.277 908.938L664.143 911.431Z" fill="#2A712D"/>
<path d="M749.974 872.42L751.966 876.817C758.845 891.995 776.725 898.723 791.903 891.844L796.3 889.851L794.307 885.454C787.429 870.276 769.549 863.549 754.371 870.427L749.974 872.42Z" fill="#216037"/>
<path d="M876.226 867.345L873.504 871.332C864.108 885.094 867.648 903.867 881.41 913.263L885.397 915.985L888.119 911.998C897.515 898.236 893.975 879.463 880.213 870.067L876.226 867.345Z" fill="#3B744E"/>
<path d="M935.145 910.236L932.539 914.3C923.544 928.327 927.624 946.991 941.652 955.986L945.716 958.591L948.322 954.527C957.317 940.5 953.237 921.836 939.209 912.842L935.145 910.236Z" fill="#216037"/>
<path d="M1021.44 954.171L1022.38 958.907C1025.6 975.256 1041.47 985.895 1057.82 982.67L1062.56 981.735L1061.62 976.999C1058.4 960.65 1042.53 950.011 1026.18 953.237L1021.44 954.171Z" fill="#3B744E"/>
<path d="M1120.79 921.934L1123.15 926.145C1131.29 940.682 1149.68 945.864 1164.22 937.718L1168.43 935.359L1166.07 931.147C1157.92 916.61 1139.54 911.428 1125 919.574L1120.79 921.934Z" fill="#216037"/>
<path d="M1190.87 837.655L1195.58 836.635C1211.87 833.112 1222.22 817.052 1218.7 800.765L1217.68 796.047L1212.96 797.068C1196.67 800.59 1186.32 816.65 1189.85 832.937L1190.87 837.655Z" fill="#216037"/>
<path d="M1180.93 719.35L1182.46 723.931C1187.71 739.744 1204.8 748.301 1220.61 743.043L1225.19 741.52L1223.67 736.939C1218.41 721.126 1201.33 712.57 1185.52 717.827L1180.93 719.35Z" fill="#2A712D"/>
</svg>
