<svg width="603" height="487" viewBox="0 0 603 487" fill="none" xmlns="http://www.w3.org/2000/svg">
<path d="M179.409 391.302C194.269 324.815 258.41 281.272 325.687 291.999C310.827 358.485 246.686 402.028 179.409 391.302Z" fill="#3B744E" stroke="#EFEDE5" stroke-width="8"/>
<path d="M371.731 73.3391C439.083 63.0941 502.911 107.095 517.295 173.686C449.943 183.931 386.115 139.93 371.731 73.3391Z" fill="#3B744E" stroke="#EFEDE5" stroke-width="8"/>
<path d="M420.778 337.862C403.74 297.996 419.834 251.573 457.891 230.807C474.928 270.673 458.835 317.095 420.778 337.862Z" fill="#3B744E" stroke="#EFEDE5" stroke-width="8"/>
<path d="M661.412 361.756C637.118 275.644 558.89 126.713 440.328 219.886C321.767 313.058 233.629 256.349 204.38 216.348" stroke="#EFEDE5" stroke-width="17" stroke-linecap="round"/>
<path d="M661.412 361.756C637.118 275.644 558.89 126.713 440.328 219.886C321.767 313.058 233.629 256.349 204.38 216.348" stroke="#216037" stroke-width="8" stroke-linecap="round"/>
<path d="M205.537 217.829L180.662 216.31C83.225 210.36 9.05967 126.548 15.0096 29.1108L16.5285 4.23634L41.4029 5.75526C138.84 11.7052 213.006 95.5172 207.056 192.955L205.537 217.829Z" fill="#3B744E" stroke="#EFEDE5" stroke-width="8"/>
</svg>
