<svg width="530" height="869" viewBox="0 0 530 869" fill="none" xmlns="http://www.w3.org/2000/svg">
<path d="M261.18 593.677L269.887 617.027C303.992 708.495 405.788 754.996 497.256 720.891L520.606 712.185L511.9 688.835C477.795 597.367 375.998 550.866 284.53 584.971L261.18 593.677Z" fill="#3B744E" stroke="#EFEDE5" stroke-width="8"/>
<path d="M102.866 669.256C162.13 635.654 185.076 561.603 155.197 500.378C95.9337 533.98 72.9874 608.031 102.866 669.256Z" fill="#3B744E" stroke="#EFEDE5" stroke-width="8"/>
<path d="M350.926 392.572C341.085 325.16 280.384 276.937 212.493 282.596C222.334 350.009 283.035 398.232 350.926 392.572Z" fill="#3B744E" stroke="#EFEDE5" stroke-width="8"/>
<path d="M83.5981 422.794C126.7 427.465 166.411 398.534 175.177 356.076C132.075 351.404 92.364 380.335 83.5981 422.794Z" fill="#3B744E" stroke="#EFEDE5" stroke-width="8"/>
<path d="M213.906 115.279C149.624 92.7173 78.7411 124.114 52.2533 186.88C116.536 209.442 187.419 178.046 213.906 115.279Z" fill="#3B744E" stroke="#EFEDE5" stroke-width="8"/>
<path d="M-9.4286 199.587C80.0249 197.713 245.295 229.112 190.746 369.69C136.197 510.269 216.142 578.039 262.934 594.352" stroke="#EFEDE5" stroke-width="17" stroke-linecap="round"/>
<path d="M-9.4286 199.587C80.0249 197.713 245.295 229.112 190.746 369.69C136.197 510.269 216.142 578.039 262.934 594.352" stroke="#216037" stroke-width="8" stroke-linecap="round"/>
</svg>
