<svg width="275" height="321" viewBox="0 0 275 321" fill="none" xmlns="http://www.w3.org/2000/svg">
<path d="M135.574 233.622C177.374 233.622 211.26 199.736 211.26 157.936C211.26 116.136 177.374 82.2505 135.574 82.2505C93.7738 82.2505 59.8882 116.136 59.8882 157.936C59.8882 199.736 93.7738 233.622 135.574 233.622Z" fill="#EFEDE5" stroke="#216037" stroke-width="6" stroke-miterlimit="10" stroke-linejoin="round"/>
<path d="M106.829 124.973H105.446V158.173H106.829V124.973Z" fill="white" stroke="#216037" stroke-width="6" stroke-miterlimit="10" stroke-linejoin="round"/>
<path d="M160.433 124.973H159.05V158.173H160.433V124.973Z" fill="white" stroke="#216037" stroke-width="6" stroke-miterlimit="10" stroke-linejoin="round"/>
<path d="M118.892 180.585L136.567 196.263L152.268 178.564" stroke="#216037" stroke-width="6" stroke-miterlimit="10" stroke-linejoin="round"/>
<path d="M6.20166 291.361C6.20166 291.361 64.2951 375.388 94.033 243.641" stroke="#216037" stroke-width="6" stroke-miterlimit="10" stroke-linecap="round" stroke-linejoin="round"/>
<path d="M271.35 291.361C271.35 291.361 213.257 375.388 183.519 243.641" stroke="#216037" stroke-width="6" stroke-miterlimit="10" stroke-linecap="round" stroke-linejoin="round"/>
<path d="M3 29.4028C3 29.4028 61.0935 -54.6242 90.8314 77.1229" stroke="#216037" stroke-width="6" stroke-miterlimit="10" stroke-linecap="round" stroke-linejoin="round"/>
<path d="M268.148 29.4028C268.148 29.4028 210.055 -54.6242 180.317 77.1229" stroke="#216037" stroke-width="6" stroke-miterlimit="10" stroke-linecap="round" stroke-linejoin="round"/>
<path d="M33.8718 189.352C41.317 189.352 47.3525 183.316 47.3525 175.871C47.3525 168.426 41.317 162.39 33.8718 162.39C26.4266 162.39 20.3911 168.426 20.3911 175.871C20.3911 183.316 26.4266 189.352 33.8718 189.352Z" fill="#EFEDE5" stroke="#216037" stroke-width="6" stroke-miterlimit="10" stroke-linejoin="round"/>
<path d="M236.059 189.352C243.505 189.352 249.54 183.316 249.54 175.871C249.54 168.426 243.505 162.39 236.059 162.39C228.614 162.39 222.579 168.426 222.579 175.871C222.579 183.316 228.614 189.352 236.059 189.352Z" fill="#EFEDE5" stroke="#216037" stroke-width="6" stroke-miterlimit="10" stroke-linejoin="round"/>
</svg>
