<svg width="353" height="524" viewBox="0 0 353 524" fill="none" xmlns="http://www.w3.org/2000/svg">
<path d="M278.617 144.31C305.326 155.081 305.326 192.893 278.617 203.664L172.177 246.592C155.087 253.484 135.467 244.595 130.941 226.733C121.222 188.384 121.03 158.482 130.78 120.731C135.347 103.048 154.832 94.3873 171.769 101.218L278.617 144.31Z" stroke="#EFEDE5" stroke-width="19"/>
<circle cx="163.996" cy="283.387" r="18.1468" stroke="#EFEDE5" stroke-width="19"/>
<circle cx="18.1468" cy="18.1468" r="18.1468" transform="matrix(-1 0 0 1 199.771 368.936)" stroke="#EFEDE5" stroke-width="19"/>
<circle cx="279.265" cy="441.227" r="18.1468" transform="rotate(17.8186 279.265 441.227)" stroke="#EFEDE5" stroke-width="19"/>
<circle cx="181.624" cy="335.235" r="18.1468" stroke="#EFEDE5" stroke-width="19"/>
<circle cx="18.1468" cy="18.1468" r="18.1468" transform="matrix(-0.798388 0.602143 0.602143 0.798388 228.952 396.305)" stroke="#EFEDE5" stroke-width="19"/>
<circle cx="280.182" cy="495.983" r="18.1468" transform="rotate(17.8186 280.182 495.983)" stroke="#EFEDE5" stroke-width="19"/>
<path d="M244.066 23.5992C248.481 26.4339 254.358 25.1529 257.193 20.7379C260.028 16.3229 258.747 10.4458 254.332 7.61106L244.066 23.5992ZM200.496 110.152C201.283 89.1659 205.092 60.0902 213.458 40.0149C217.711 29.8089 222.468 23.5944 227.038 20.977C230.553 18.9635 235.575 18.1475 244.066 23.5992L254.332 7.61106C241.471 -0.646598 228.743 -1.89607 217.594 4.49C207.5 10.2721 200.677 21.2901 195.92 32.7065C186.265 55.8761 182.328 87.6053 181.509 109.44L200.496 110.152Z" fill="#EFEDE5"/>
<path d="M152.208 123.057C138.512 82.453 102.828 10.8488 69.6659 49.2625" stroke="#EFEDE5" stroke-width="19" stroke-linecap="round"/>
<path d="M207.579 147.766C207.411 147.268 206.704 147.272 206.57 147.772L205.471 151.852C203.798 158.001 199.32 162.846 193.475 164.832L189.526 166.161C189.047 166.323 189.07 167.007 189.56 167.163L193.596 168.446C199.571 170.361 204.372 175.152 206.455 181.279L207.827 185.345C207.995 185.843 208.701 185.839 208.836 185.339L209.935 181.259C211.607 175.11 216.086 170.264 221.93 168.279L225.879 166.949C226.358 166.788 226.335 166.103 225.846 165.948L221.809 164.665C215.834 162.749 211.034 157.958 208.95 151.831L207.579 147.766Z" stroke="#EFEDE5" stroke-width="19" stroke-miterlimit="10"/>
<path d="M257.159 195.314C255.366 190.383 249.916 187.838 244.985 189.631C240.054 191.423 237.509 196.873 239.301 201.804L257.159 195.314ZM239.301 201.804L245.561 219.026L263.418 212.535L257.159 195.314L239.301 201.804Z" fill="#EFEDE5"/>
<path d="M203.732 288.843C233.906 310.862 258.773 328.281 289.7 351.606" stroke="#EFEDE5" stroke-width="19" stroke-miterlimit="10" stroke-linecap="round"/>
<path d="M298.413 365.318C291.104 360.291 287.299 352.979 289.913 348.986C292.527 344.993 300.572 345.831 307.88 350.857C315.189 355.884 318.994 363.196 316.38 367.189C313.766 371.182 305.721 370.345 298.413 365.318Z" stroke="#EFEDE5" stroke-width="19" stroke-miterlimit="10"/>
<path d="M123.03 288.844C92.8564 310.863 67.9892 328.282 37.0618 351.606" stroke="#EFEDE5" stroke-width="19" stroke-miterlimit="10" stroke-linecap="round"/>
<path d="M28.3491 365.318C35.6578 360.292 39.4632 352.98 36.8488 348.986C34.2344 344.993 26.1901 345.831 18.8815 350.858C11.5728 355.885 7.76736 363.197 10.3818 367.19C12.9962 371.183 21.0404 370.345 28.3491 365.318Z" stroke="#EFEDE5" stroke-width="19" stroke-miterlimit="10"/>
<path d="M278.617 144.31C305.326 155.081 305.326 192.893 278.617 203.664L172.177 246.592C155.087 253.484 135.467 244.595 130.941 226.733C121.222 188.384 121.03 158.482 130.78 120.731C135.347 103.048 154.832 94.3873 171.769 101.218L278.617 144.31Z" fill="#EFEDE5" stroke="#216037" stroke-width="6"/>
<circle cx="163.996" cy="283.387" r="18.1468" fill="#EFEDE5" stroke="#216037" stroke-width="6"/>
<circle cx="18.1468" cy="18.1468" r="18.1468" transform="matrix(-1 0 0 1 199.771 368.936)" fill="#EFEDE5" stroke="#216037" stroke-width="6"/>
<circle cx="279.265" cy="441.227" r="18.1468" transform="rotate(17.8186 279.265 441.227)" fill="#EFEDE5" stroke="#216037" stroke-width="6"/>
<circle cx="181.624" cy="335.235" r="18.1468" fill="#EFEDE5" stroke="#216037" stroke-width="6"/>
<circle cx="18.1468" cy="18.1468" r="18.1468" transform="matrix(-0.798388 0.602143 0.602143 0.798388 228.952 396.305)" fill="#EFEDE5" stroke="#216037" stroke-width="6"/>
<circle cx="280.182" cy="495.983" r="18.1468" transform="rotate(17.8186 280.182 495.983)" fill="#EFEDE5" stroke="#216037" stroke-width="6"/>
<path d="M247.578 18.1295C248.972 19.0247 250.828 18.6202 251.723 17.226C252.618 15.8318 252.214 13.9759 250.82 13.0807L247.578 18.1295ZM194 109.909C194.798 88.632 198.651 58.6485 207.458 37.5146C211.884 26.8945 217.347 19.0368 223.807 15.3367C229.934 11.8274 237.592 11.7179 247.578 18.1295L250.82 13.0807C239.454 5.78297 229.362 5.24011 220.825 10.1303C212.62 14.8297 206.505 24.2044 201.92 35.2067C192.706 57.3177 188.813 88.1392 188.005 109.684L194 109.909Z" fill="#216037"/>
<path d="M152.208 123.057C138.512 82.453 102.828 10.8488 69.6659 49.2625" stroke="#216037" stroke-width="6" stroke-linecap="round"/>
<path d="M207.579 147.766C207.411 147.268 206.704 147.272 206.57 147.772L205.471 151.852C203.798 158.001 199.32 162.846 193.475 164.832L189.526 166.161C189.047 166.323 189.07 167.007 189.56 167.163L193.596 168.446C199.571 170.361 204.372 175.152 206.455 181.279L207.827 185.345C207.995 185.843 208.701 185.839 208.836 185.339L209.935 181.259C211.607 175.11 216.086 170.264 221.93 168.279L225.879 166.949C226.358 166.788 226.335 166.103 225.846 165.948L221.809 164.665C215.834 162.749 211.034 157.958 208.95 151.831L207.579 147.766Z" fill="#EFEDE5" stroke="#216037" stroke-width="6" stroke-miterlimit="10"/>
<path d="M251.05 197.534C250.484 195.977 248.762 195.174 247.205 195.74C245.648 196.306 244.844 198.027 245.41 199.584L251.05 197.534ZM245.41 199.584L251.67 216.805L257.309 214.756L251.05 197.534L245.41 199.584Z" fill="#216037"/>
<path d="M203.732 288.843C233.906 310.862 258.773 328.281 289.7 351.606" stroke="#216037" stroke-width="6" stroke-miterlimit="10" stroke-linecap="round"/>
<path d="M301.413 370.317C294.104 365.291 290.299 357.979 292.913 353.985C295.527 349.992 303.572 350.83 310.88 355.857C318.189 360.884 321.994 368.196 319.38 372.189C316.766 376.182 308.721 375.344 301.413 370.317Z" fill="#EFEDE5" stroke="#216037" stroke-width="6" stroke-miterlimit="10"/>
<path d="M123.03 288.844C92.8564 310.863 67.9892 328.282 37.0618 351.606" stroke="#216037" stroke-width="6" stroke-miterlimit="10" stroke-linecap="round"/>
<path d="M28.3491 365.318C35.6578 360.292 39.4632 352.98 36.8488 348.986C34.2344 344.993 26.1901 345.831 18.8815 350.858C11.5728 355.885 7.76736 363.197 10.3818 367.19C12.9962 371.183 21.0404 370.345 28.3491 365.318Z" fill="#EFEDE5" stroke="#216037" stroke-width="6" stroke-miterlimit="10"/>
</svg>
