<svg width="459" height="519" viewBox="0 0 459 519" fill="none" xmlns="http://www.w3.org/2000/svg">
<path d="M207.786 149.189C214.964 128.632 244.036 128.632 251.214 149.189L267.121 194.746C269.432 201.365 274.635 206.568 281.254 208.879L326.811 224.786C347.368 231.964 347.368 261.036 326.811 268.214L281.254 284.121C274.635 286.432 269.432 291.635 267.121 298.254L251.214 343.811C244.036 364.368 214.964 364.368 207.786 343.811L191.879 298.254C189.568 291.635 184.365 286.432 177.746 284.121L132.189 268.214C111.632 261.036 111.632 231.964 132.189 224.786L177.746 208.879C184.365 206.568 189.568 201.365 191.879 194.746L207.786 149.189Z" stroke="#EFEDE5" stroke-width="20"/>
<path d="M226.339 13.1186C227.967 9.55206 233.033 9.55206 234.661 13.1186V13.1186C235.576 15.1246 237.792 16.1919 239.931 15.6568V15.6568C243.735 14.7055 246.894 18.6668 245.12 22.1629V22.1629C244.122 24.1292 244.67 26.5275 246.422 27.8662V27.8662C249.537 30.2465 248.409 35.1862 244.57 35.9791V35.9791C242.411 36.4251 240.877 38.3484 240.922 40.5528V40.5528C241.004 44.4723 236.439 46.6707 233.425 44.1634V44.1634C231.73 42.7533 229.27 42.7533 227.575 44.1634V44.1634C224.561 46.6707 219.996 44.4723 220.078 40.5528V40.5528C220.123 38.3484 218.589 36.4251 216.43 35.9791V35.9791C212.591 35.1862 211.463 30.2465 214.578 27.8662V27.8662C216.33 26.5275 216.878 24.1292 215.88 22.1629V22.1629C214.106 18.6668 217.265 14.7055 221.069 15.6568V15.6568C223.208 16.1919 225.424 15.1246 226.339 13.1186V13.1186Z" stroke="#EFEDE5" stroke-width="20"/>
<path d="M179.339 476.119C180.967 472.552 186.033 472.552 187.661 476.119V476.119C188.576 478.125 190.792 479.192 192.931 478.657V478.657C196.735 477.705 199.894 481.667 198.12 485.163V485.163C197.122 487.129 197.67 489.527 199.422 490.866V490.866C202.537 493.246 201.409 498.186 197.57 498.979V498.979C195.411 499.425 193.877 501.348 193.922 503.553V503.553C194.004 507.472 189.439 509.671 186.425 507.163V507.163C184.73 505.753 182.27 505.753 180.575 507.163V507.163C177.561 509.671 172.996 507.472 173.078 503.553V503.553C173.123 501.348 171.589 499.425 169.43 498.979V498.979C165.591 498.186 164.463 493.246 167.578 490.866V490.866C169.33 489.527 169.878 487.129 168.88 485.163V485.163C167.106 481.667 170.265 477.705 174.069 478.657V478.657C176.208 479.192 178.424 478.125 179.339 476.119V476.119Z" stroke="#EFEDE5" stroke-width="20"/>
<path d="M271.339 476.119C272.967 472.552 278.033 472.552 279.661 476.119V476.119C280.576 478.125 282.792 479.192 284.931 478.657V478.657C288.735 477.705 291.894 481.667 290.12 485.163V485.163C289.122 487.129 289.67 489.527 291.422 490.866V490.866C294.537 493.246 293.409 498.186 289.57 498.979V498.979C287.411 499.425 285.877 501.348 285.922 503.553V503.553C286.004 507.472 281.439 509.671 278.425 507.163V507.163C276.73 505.753 274.27 505.753 272.575 507.163V507.163C269.561 509.671 264.996 507.472 265.078 503.553V503.553C265.123 501.348 263.589 499.425 261.43 498.979V498.979C257.591 498.186 256.463 493.246 259.578 490.866V490.866C261.33 489.527 261.878 487.129 260.88 485.163V485.163C259.106 481.667 262.265 477.705 266.069 478.657V478.657C268.208 479.192 270.424 478.125 271.339 476.119V476.119Z" stroke="#EFEDE5" stroke-width="20"/>
<path d="M289.742 465.841C314.461 424.275 348.021 333.113 284.513 301" stroke="#EFEDE5" stroke-width="20" stroke-linecap="round"/>
<path d="M170.692 465.841C145.974 424.275 112.413 333.113 175.921 301" stroke="#EFEDE5" stroke-width="20" stroke-linecap="round"/>
<path d="M289.742 465.841C314.461 424.275 348.021 333.113 284.513 301" stroke="#EFEDE5" stroke-width="20" stroke-linecap="round"/>
<path d="M170.692 465.841C145.974 424.275 112.413 333.113 175.921 301" stroke="#EFEDE5" stroke-width="20" stroke-linecap="round"/>
<circle cx="158" cy="247" r="10" stroke="#EFEDE5" stroke-width="20"/>
<circle cx="301" cy="247" r="10" stroke="#EFEDE5" stroke-width="20"/>
<path d="M240 252C240 257.523 235.523 262 230 262C224.477 262 220 257.523 220 252" stroke="#EFEDE5" stroke-width="20" stroke-linecap="round"/>
<path d="M10 195C18.8333 213.5 49.9 249.7 103.5 246.5" stroke="#EFEDE5" stroke-width="20" stroke-linecap="round"/>
<path d="M448.5 195C439.667 213.5 408.6 249.7 355 246.5" stroke="#EFEDE5" stroke-width="20" stroke-linecap="round"/>
<path d="M222.168 61.269C224.343 53.4175 235.492 53.4624 237.604 61.3311L261 148.5C251.874 114.5 207.697 113.5 198 148.5L222.168 61.269Z" stroke="#EFEDE5" stroke-width="20" stroke-linejoin="round"/>
<path d="M207.786 149.189C214.964 128.632 244.036 128.632 251.214 149.189L267.121 194.746C269.432 201.365 274.635 206.568 281.254 208.879L326.811 224.786C347.368 231.964 347.368 261.036 326.811 268.214L281.254 284.121C274.635 286.432 269.432 291.635 267.121 298.254L251.214 343.811C244.036 364.368 214.964 364.368 207.786 343.811L191.879 298.254C189.568 291.635 184.365 286.432 177.746 284.121L132.189 268.214C111.632 261.036 111.632 231.964 132.189 224.786L177.746 208.879C184.365 206.568 189.568 201.365 191.879 194.746L207.786 149.189Z" fill="#EFEDE5" stroke="#216037" stroke-width="6"/>
<path d="M226.339 13.1186C227.967 9.55206 233.033 9.55206 234.661 13.1186C235.576 15.1246 237.792 16.1919 239.931 15.6568C243.735 14.7055 246.894 18.6668 245.12 22.1629C244.122 24.1292 244.67 26.5275 246.422 27.8662C249.537 30.2465 248.409 35.1862 244.57 35.9791C242.411 36.4251 240.877 38.3484 240.922 40.5528C241.004 44.4723 236.439 46.6707 233.425 44.1634C231.73 42.7533 229.27 42.7533 227.575 44.1634C224.561 46.6707 219.996 44.4723 220.078 40.5528C220.123 38.3484 218.589 36.4251 216.43 35.9791C212.591 35.1862 211.463 30.2465 214.578 27.8662C216.33 26.5275 216.878 24.1292 215.88 22.1629C214.106 18.6668 217.265 14.7055 221.069 15.6568C223.208 16.1919 225.424 15.1246 226.339 13.1186Z" fill="#EFEDE5" stroke="#216037" stroke-width="6"/>
<path d="M179.339 476.119C180.967 472.552 186.033 472.552 187.661 476.119C188.576 478.125 190.792 479.192 192.931 478.657C196.735 477.705 199.894 481.667 198.12 485.163C197.122 487.129 197.67 489.527 199.422 490.866C202.537 493.246 201.409 498.186 197.57 498.979C195.411 499.425 193.877 501.348 193.922 503.553C194.004 507.472 189.439 509.671 186.425 507.163C184.73 505.753 182.27 505.753 180.575 507.163C177.561 509.671 172.996 507.472 173.078 503.553C173.123 501.348 171.589 499.425 169.43 498.979C165.591 498.186 164.463 493.246 167.578 490.866C169.33 489.527 169.878 487.129 168.88 485.163C167.106 481.667 170.265 477.705 174.069 478.657C176.208 479.192 178.424 478.125 179.339 476.119Z" fill="#EFEDE5" stroke="#216037" stroke-width="6"/>
<path d="M271.339 476.119C272.967 472.552 278.033 472.552 279.661 476.119C280.576 478.125 282.792 479.192 284.931 478.657C288.735 477.705 291.894 481.667 290.12 485.163C289.122 487.129 289.67 489.527 291.422 490.866C294.537 493.246 293.409 498.186 289.57 498.979C287.411 499.425 285.877 501.348 285.922 503.553C286.004 507.472 281.439 509.671 278.425 507.163C276.73 505.753 274.27 505.753 272.575 507.163C269.561 509.671 264.996 507.472 265.078 503.553C265.123 501.348 263.589 499.425 261.43 498.979C257.591 498.186 256.463 493.246 259.578 490.866C261.33 489.527 261.878 487.129 260.88 485.163C259.106 481.667 262.265 477.705 266.069 478.657C268.208 479.192 270.424 478.125 271.339 476.119Z" fill="#EFEDE5" stroke="#216037" stroke-width="6"/>
<path d="M289.742 465.841C314.461 424.275 348.021 333.113 284.513 301" stroke="#216037" stroke-width="6" stroke-linecap="round"/>
<path d="M170.692 465.841C145.974 424.275 112.413 333.113 175.921 301" stroke="#216037" stroke-width="6" stroke-linecap="round"/>
<path d="M289.742 465.841C314.461 424.275 348.021 333.113 284.513 301" stroke="#216037" stroke-width="6" stroke-linecap="round"/>
<path d="M170.692 465.841C145.974 424.275 112.413 333.113 175.921 301" stroke="#216037" stroke-width="6" stroke-linecap="round"/>
<circle cx="158" cy="247" r="10" fill="#EFEDE5" stroke="#216037" stroke-width="6"/>
<circle cx="301" cy="247" r="10" fill="#EFEDE5" stroke="#216037" stroke-width="6"/>
<path d="M240 252C240 257.523 235.523 262 230 262C224.477 262 220 257.523 220 252" stroke="#216037" stroke-width="6" stroke-linecap="round"/>
<path d="M10 195C18.8333 213.5 49.9 249.7 103.5 246.5" stroke="#216037" stroke-width="6" stroke-linecap="round"/>
<path d="M448.5 195C439.667 213.5 408.6 249.7 355 246.5" stroke="#216037" stroke-width="6" stroke-linecap="round"/>
<path d="M222.168 61.269C224.343 53.4175 235.492 53.4624 237.604 61.3311L261 148.5C251.874 114.5 207.697 113.5 198 148.5L222.168 61.269Z" fill="#EFEDE5" stroke="#216037" stroke-width="6" stroke-linejoin="round"/>
</svg>
