<svg width="185" height="333" viewBox="0 0 185 333" fill="none" xmlns="http://www.w3.org/2000/svg">
<path d="M173.169 227.138C163.588 235.857 152.748 242.537 141.211 247.278C111.507 259.528 77.0457 258.981 46.7782 247.146C34.4126 242.339 22.7598 235.625 12.3999 227.138C-24.0338 197.285 54.1213 3 98.76 3C143.399 3 205.127 198.114 173.169 227.138Z" fill="#EFEDE5" stroke="#A3B18A" stroke-width="6" stroke-miterlimit="10"/>
<path d="M137.034 248.905C139.039 248.169 141.211 249.624 141.211 251.76V277.015C141.211 278.672 139.868 280.015 138.211 280.015H47.209C45.5521 280.015 44.209 278.672 44.209 277.015V249.307C44.209 248.113 45.1768 247.145 46.3706 247.145C46.64 247.145 46.907 247.196 47.1581 247.293C75.9238 258.438 108.435 259.406 137.034 248.905Z" fill="#EFEDE5" stroke="#A3B18A" stroke-width="6" stroke-miterlimit="10"/>
<path d="M37.8438 329.014C37.8438 329.014 72.769 325.616 72.769 280.015L37.8438 329.014Z" fill="#EFEDE5"/>
<path d="M37.8438 329.014C37.8438 329.014 72.769 325.616 72.769 280.015" stroke="#A3B18A" stroke-width="6" stroke-miterlimit="10" stroke-linecap="round"/>
<path d="M146.995 329.014C146.995 329.014 112.07 325.616 112.07 280.015L146.995 329.014Z" fill="#EFEDE5"/>
<path d="M146.995 329.014C146.995 329.014 112.07 325.616 112.07 280.015" stroke="#A3B18A" stroke-width="6" stroke-miterlimit="10" stroke-linecap="round"/>
<path d="M55.4968 179.831V145.867C55.4968 145.464 55.1702 145.138 54.7674 145.138C54.3646 145.138 54.0381 145.464 54.0381 145.867V179.831C54.0381 180.234 54.3646 180.56 54.7674 180.56C55.1702 180.56 55.4968 180.234 55.4968 179.831Z" fill="#EFEDE5" stroke="#A3B18A" stroke-width="6" stroke-miterlimit="10"/>
<path d="M129.243 179.831V145.867C129.243 145.464 128.916 145.138 128.514 145.138C128.111 145.138 127.784 145.464 127.784 145.867V179.831C127.784 180.234 128.111 180.56 128.514 180.56C128.916 180.56 129.243 180.234 129.243 179.831Z" fill="#EFEDE5" stroke="#A3B18A" stroke-width="6" stroke-miterlimit="10"/>
</svg>
