<svg width="654" height="278" viewBox="0 0 654 278" fill="none" xmlns="http://www.w3.org/2000/svg">
<mask id="mask0_65_41739" style="mask-type:alpha" maskUnits="userSpaceOnUse" x="0" y="96" width="654" height="182">
<ellipse cx="327" cy="187.058" rx="327" ry="90.922" fill="#EFEDE5"/>
</mask>
<g mask="url(#mask0_65_41739)">
<circle cx="-0.00193119" cy="94.0095" r="5.31692" fill="#A3B18A"/>
<circle cx="14.8858" cy="94.0095" r="5.31692" fill="#A3B18A"/>
<circle cx="29.7735" cy="94.0095" r="5.31692" fill="#A3B18A"/>
<circle cx="44.6607" cy="94.0095" r="5.31692" fill="#A3B18A"/>
<circle cx="59.5479" cy="94.0095" r="5.31692" fill="#A3B18A"/>
<circle cx="74.4346" cy="94.0095" r="5.31692" fill="#A3B18A"/>
<circle cx="89.3223" cy="94.0095" r="5.31692" fill="#A3B18A"/>
<circle cx="-0.00193119" cy="108.897" r="5.31692" fill="#A3B18A"/>
<circle cx="14.8858" cy="108.897" r="5.31692" fill="#A3B18A"/>
<circle cx="29.7735" cy="108.897" r="5.31692" fill="#A3B18A"/>
<circle cx="44.6607" cy="108.897" r="5.31692" fill="#A3B18A"/>
<circle cx="59.5479" cy="108.897" r="5.31692" fill="#A3B18A"/>
<circle cx="74.4346" cy="108.897" r="5.31692" fill="#A3B18A"/>
<circle cx="89.3223" cy="108.897" r="5.31692" fill="#A3B18A"/>
<circle cx="-0.00193119" cy="123.784" r="5.31692" fill="#A3B18A"/>
<circle cx="14.8858" cy="123.784" r="5.31692" fill="#A3B18A"/>
<circle cx="29.7735" cy="123.784" r="5.31692" fill="#A3B18A"/>
<circle cx="44.6607" cy="123.784" r="5.31692" fill="#A3B18A"/>
<circle cx="59.5479" cy="123.784" r="5.31692" fill="#A3B18A"/>
<circle cx="74.4346" cy="123.784" r="5.31692" fill="#A3B18A"/>
<circle cx="89.3223" cy="123.784" r="5.31692" fill="#A3B18A"/>
<circle cx="-0.00193119" cy="138.672" r="5.31692" fill="#A3B18A"/>
<circle cx="14.8858" cy="138.672" r="5.31692" fill="#A3B18A"/>
<circle cx="29.7735" cy="138.672" r="5.31692" fill="#A3B18A"/>
<circle cx="44.6607" cy="138.672" r="5.31692" fill="#A3B18A"/>
<circle cx="59.5479" cy="138.672" r="5.31692" fill="#A3B18A"/>
<circle cx="74.4346" cy="138.672" r="5.31692" fill="#A3B18A"/>
<circle cx="89.3223" cy="138.672" r="5.31692" fill="#A3B18A"/>
<circle cx="-0.00193119" cy="153.56" r="5.31692" fill="#A3B18A"/>
<circle cx="14.8858" cy="153.56" r="5.31692" fill="#A3B18A"/>
<circle cx="29.7735" cy="153.56" r="5.31692" fill="#A3B18A"/>
<circle cx="44.6607" cy="153.56" r="5.31692" fill="#A3B18A"/>
<circle cx="59.5479" cy="153.56" r="5.31692" fill="#A3B18A"/>
<circle cx="74.4346" cy="153.56" r="5.31692" fill="#A3B18A"/>
<circle cx="89.3223" cy="153.56" r="5.31692" fill="#A3B18A"/>
<circle cx="-0.00193119" cy="168.447" r="5.31692" fill="#A3B18A"/>
<circle cx="14.8858" cy="168.447" r="5.31692" fill="#A3B18A"/>
<circle cx="29.7735" cy="168.447" r="5.31692" fill="#A3B18A"/>
<circle cx="44.6607" cy="168.447" r="5.31692" fill="#A3B18A"/>
<circle cx="59.5479" cy="168.447" r="5.31692" fill="#A3B18A"/>
<circle cx="74.4346" cy="168.447" r="5.31692" fill="#A3B18A"/>
<circle cx="89.3223" cy="168.447" r="5.31692" fill="#A3B18A"/>
<circle cx="-0.00193119" cy="183.334" r="5.31692" fill="#A3B18A"/>
<circle cx="14.8858" cy="183.334" r="5.31692" fill="#A3B18A"/>
<circle cx="29.7735" cy="183.334" r="5.31692" fill="#A3B18A"/>
<circle cx="44.6607" cy="183.334" r="5.31692" fill="#A3B18A"/>
<circle cx="59.5479" cy="183.334" r="5.31692" fill="#A3B18A"/>
<circle cx="74.4346" cy="183.334" r="5.31692" fill="#A3B18A"/>
<circle cx="89.3223" cy="183.334" r="5.31692" fill="#A3B18A"/>
<circle cx="-0.00193119" cy="198.222" r="5.31692" fill="#A3B18A"/>
<circle cx="14.8858" cy="198.222" r="5.31692" fill="#A3B18A"/>
<circle cx="29.7735" cy="198.222" r="5.31692" fill="#A3B18A"/>
<circle cx="44.6607" cy="198.222" r="5.31692" fill="#A3B18A"/>
<circle cx="59.5479" cy="198.222" r="5.31692" fill="#A3B18A"/>
<circle cx="74.4346" cy="198.222" r="5.31692" fill="#A3B18A"/>
<circle cx="89.3223" cy="198.222" r="5.31692" fill="#A3B18A"/>
<circle cx="-0.00193119" cy="213.109" r="5.31692" fill="#A3B18A"/>
<circle cx="14.8858" cy="213.109" r="5.31692" fill="#A3B18A"/>
<circle cx="29.7735" cy="213.109" r="5.31692" fill="#A3B18A"/>
<circle cx="44.6607" cy="213.109" r="5.31692" fill="#A3B18A"/>
<circle cx="59.5479" cy="213.109" r="5.31692" fill="#A3B18A"/>
<circle cx="74.4346" cy="213.109" r="5.31692" fill="#A3B18A"/>
<circle cx="89.3223" cy="213.109" r="5.31692" fill="#A3B18A"/>
<circle cx="-0.00193119" cy="227.996" r="5.31692" fill="#A3B18A"/>
<circle cx="14.8858" cy="227.996" r="5.31692" fill="#A3B18A"/>
<circle cx="29.7735" cy="227.996" r="5.31692" fill="#A3B18A"/>
<circle cx="44.6607" cy="227.996" r="5.31692" fill="#A3B18A"/>
<circle cx="59.5479" cy="227.996" r="5.31692" fill="#A3B18A"/>
<circle cx="74.4346" cy="227.996" r="5.31692" fill="#A3B18A"/>
<circle cx="89.3223" cy="227.996" r="5.31692" fill="#A3B18A"/>
<circle cx="104.211" cy="94.0095" r="5.31692" fill="#A3B18A"/>
<circle cx="119.099" cy="94.0095" r="5.31692" fill="#A3B18A"/>
<circle cx="133.986" cy="94.0095" r="5.31692" fill="#A3B18A"/>
<circle cx="148.874" cy="94.0095" r="5.31692" fill="#A3B18A"/>
<circle cx="163.761" cy="94.0095" r="5.31692" fill="#A3B18A"/>
<circle cx="178.649" cy="94.0095" r="5.31692" fill="#A3B18A"/>
<circle cx="193.536" cy="94.0095" r="5.31692" fill="#A3B18A"/>
<circle cx="208.423" cy="94.0095" r="5.31692" fill="#A3B18A"/>
<circle cx="223.311" cy="94.0095" r="5.31692" fill="#A3B18A"/>
<circle cx="238.198" cy="94.0095" r="5.31692" fill="#A3B18A"/>
<circle cx="104.211" cy="108.897" r="5.31692" fill="#A3B18A"/>
<circle cx="119.099" cy="108.897" r="5.31692" fill="#A3B18A"/>
<circle cx="133.986" cy="108.897" r="5.31692" fill="#A3B18A"/>
<circle cx="148.874" cy="108.897" r="5.31692" fill="#A3B18A"/>
<circle cx="163.761" cy="108.897" r="5.31692" fill="#A3B18A"/>
<circle cx="178.649" cy="108.897" r="5.31692" fill="#A3B18A"/>
<circle cx="193.536" cy="108.897" r="5.31692" fill="#A3B18A"/>
<circle cx="208.423" cy="108.897" r="5.31692" fill="#A3B18A"/>
<circle cx="223.311" cy="108.897" r="5.31692" fill="#A3B18A"/>
<circle cx="238.198" cy="108.897" r="5.31692" fill="#A3B18A"/>
<circle cx="104.211" cy="123.784" r="5.31692" fill="#A3B18A"/>
<circle cx="119.099" cy="123.784" r="5.31692" fill="#A3B18A"/>
<circle cx="133.986" cy="123.784" r="5.31692" fill="#A3B18A"/>
<circle cx="148.874" cy="123.784" r="5.31692" fill="#A3B18A"/>
<circle cx="163.761" cy="123.784" r="5.31692" fill="#A3B18A"/>
<circle cx="178.649" cy="123.784" r="5.31692" fill="#A3B18A"/>
<circle cx="193.536" cy="123.784" r="5.31692" fill="#A3B18A"/>
<circle cx="208.423" cy="123.784" r="5.31692" fill="#A3B18A"/>
<circle cx="223.311" cy="123.784" r="5.31692" fill="#A3B18A"/>
<circle cx="238.198" cy="123.784" r="5.31692" fill="#A3B18A"/>
<circle cx="104.211" cy="138.672" r="5.31692" fill="#A3B18A"/>
<circle cx="119.099" cy="138.672" r="5.31692" fill="#A3B18A"/>
<circle cx="133.986" cy="138.672" r="5.31692" fill="#A3B18A"/>
<circle cx="148.874" cy="138.672" r="5.31692" fill="#A3B18A"/>
<circle cx="163.761" cy="138.672" r="5.31692" fill="#A3B18A"/>
<circle cx="178.649" cy="138.672" r="5.31692" fill="#A3B18A"/>
<circle cx="193.536" cy="138.672" r="5.31692" fill="#A3B18A"/>
<circle cx="208.423" cy="138.672" r="5.31692" fill="#A3B18A"/>
<circle cx="223.311" cy="138.672" r="5.31692" fill="#A3B18A"/>
<circle cx="238.198" cy="138.672" r="5.31692" fill="#A3B18A"/>
<circle cx="104.211" cy="153.559" r="5.31692" fill="#A3B18A"/>
<circle cx="119.099" cy="153.559" r="5.31692" fill="#A3B18A"/>
<circle cx="133.986" cy="153.559" r="5.31692" fill="#A3B18A"/>
<circle cx="148.874" cy="153.559" r="5.31692" fill="#A3B18A"/>
<circle cx="163.761" cy="153.559" r="5.31692" fill="#A3B18A"/>
<circle cx="178.649" cy="153.559" r="5.31692" fill="#A3B18A"/>
<circle cx="193.536" cy="153.559" r="5.31692" fill="#A3B18A"/>
<circle cx="208.423" cy="153.559" r="5.31692" fill="#A3B18A"/>
<circle cx="223.311" cy="153.559" r="5.31692" fill="#A3B18A"/>
<circle cx="238.198" cy="153.559" r="5.31692" fill="#A3B18A"/>
<circle cx="104.211" cy="168.446" r="5.31692" fill="#A3B18A"/>
<circle cx="119.099" cy="168.446" r="5.31692" fill="#A3B18A"/>
<circle cx="133.986" cy="168.446" r="5.31692" fill="#A3B18A"/>
<circle cx="148.874" cy="168.446" r="5.31692" fill="#A3B18A"/>
<circle cx="163.761" cy="168.446" r="5.31692" fill="#A3B18A"/>
<circle cx="178.649" cy="168.446" r="5.31692" fill="#A3B18A"/>
<circle cx="193.536" cy="168.446" r="5.31692" fill="#A3B18A"/>
<circle cx="208.423" cy="168.446" r="5.31692" fill="#A3B18A"/>
<circle cx="223.311" cy="168.446" r="5.31692" fill="#A3B18A"/>
<circle cx="238.198" cy="168.446" r="5.31692" fill="#A3B18A"/>
<circle cx="104.211" cy="183.334" r="5.31692" fill="#A3B18A"/>
<circle cx="119.099" cy="183.334" r="5.31692" fill="#A3B18A"/>
<circle cx="133.986" cy="183.334" r="5.31692" fill="#A3B18A"/>
<circle cx="148.874" cy="183.334" r="5.31692" fill="#A3B18A"/>
<circle cx="163.761" cy="183.334" r="5.31692" fill="#A3B18A"/>
<circle cx="178.649" cy="183.334" r="5.31692" fill="#A3B18A"/>
<circle cx="193.536" cy="183.334" r="5.31692" fill="#A3B18A"/>
<circle cx="208.423" cy="183.334" r="5.31692" fill="#A3B18A"/>
<circle cx="223.311" cy="183.334" r="5.31692" fill="#A3B18A"/>
<circle cx="238.198" cy="183.334" r="5.31692" fill="#A3B18A"/>
<circle cx="104.211" cy="198.221" r="5.31692" fill="#A3B18A"/>
<circle cx="119.099" cy="198.221" r="5.31692" fill="#A3B18A"/>
<circle cx="133.986" cy="198.221" r="5.31692" fill="#A3B18A"/>
<circle cx="148.874" cy="198.221" r="5.31692" fill="#A3B18A"/>
<circle cx="163.761" cy="198.221" r="5.31692" fill="#A3B18A"/>
<circle cx="178.649" cy="198.221" r="5.31692" fill="#A3B18A"/>
<circle cx="193.536" cy="198.221" r="5.31692" fill="#A3B18A"/>
<circle cx="208.423" cy="198.221" r="5.31692" fill="#A3B18A"/>
<circle cx="223.311" cy="198.221" r="5.31692" fill="#A3B18A"/>
<circle cx="238.198" cy="198.221" r="5.31692" fill="#A3B18A"/>
<circle cx="104.211" cy="213.108" r="5.31692" fill="#A3B18A"/>
<circle cx="119.099" cy="213.108" r="5.31692" fill="#A3B18A"/>
<circle cx="133.986" cy="213.108" r="5.31692" fill="#A3B18A"/>
<circle cx="148.874" cy="213.108" r="5.31692" fill="#A3B18A"/>
<circle cx="163.761" cy="213.108" r="5.31692" fill="#A3B18A"/>
<circle cx="178.649" cy="213.108" r="5.31692" fill="#A3B18A"/>
<circle cx="193.536" cy="213.108" r="5.31692" fill="#A3B18A"/>
<circle cx="208.423" cy="213.108" r="5.31692" fill="#A3B18A"/>
<circle cx="223.311" cy="213.108" r="5.31692" fill="#A3B18A"/>
<circle cx="238.198" cy="213.108" r="5.31692" fill="#A3B18A"/>
<circle cx="104.211" cy="227.996" r="5.31692" fill="#A3B18A"/>
<circle cx="119.099" cy="227.996" r="5.31692" fill="#A3B18A"/>
<circle cx="133.986" cy="227.996" r="5.31692" fill="#A3B18A"/>
<circle cx="148.874" cy="227.996" r="5.31692" fill="#A3B18A"/>
<circle cx="163.761" cy="227.996" r="5.31692" fill="#A3B18A"/>
<circle cx="178.649" cy="227.996" r="5.31692" fill="#A3B18A"/>
<circle cx="193.536" cy="227.996" r="5.31692" fill="#A3B18A"/>
<circle cx="208.423" cy="227.996" r="5.31692" fill="#A3B18A"/>
<circle cx="223.311" cy="227.996" r="5.31692" fill="#A3B18A"/>
<circle cx="238.198" cy="227.996" r="5.31692" fill="#A3B18A"/>
<circle cx="253.083" cy="94.0095" r="5.31692" fill="#A3B18A"/>
<circle cx="267.97" cy="94.0095" r="5.31692" fill="#A3B18A"/>
<circle cx="282.858" cy="94.0095" r="5.31692" fill="#A3B18A"/>
<circle cx="297.746" cy="94.0095" r="5.31692" fill="#A3B18A"/>
<circle cx="312.632" cy="94.0095" r="5.31692" fill="#A3B18A"/>
<circle cx="327.52" cy="94.0095" r="5.31692" fill="#A3B18A"/>
<circle cx="342.407" cy="94.0095" r="5.31692" fill="#A3B18A"/>
<circle cx="357.294" cy="94.0095" r="5.31692" fill="#A3B18A"/>
<circle cx="372.182" cy="94.0095" r="5.31692" fill="#A3B18A"/>
<circle cx="387.069" cy="94.0095" r="5.31692" fill="#A3B18A"/>
<circle cx="253.083" cy="108.897" r="5.31692" fill="#A3B18A"/>
<circle cx="267.97" cy="108.897" r="5.31692" fill="#A3B18A"/>
<circle cx="282.858" cy="108.897" r="5.31692" fill="#A3B18A"/>
<circle cx="297.746" cy="108.897" r="5.31692" fill="#A3B18A"/>
<circle cx="312.632" cy="108.897" r="5.31692" fill="#A3B18A"/>
<circle cx="327.52" cy="108.897" r="5.31692" fill="#A3B18A"/>
<circle cx="342.407" cy="108.897" r="5.31692" fill="#A3B18A"/>
<circle cx="357.294" cy="108.897" r="5.31692" fill="#A3B18A"/>
<circle cx="372.182" cy="108.897" r="5.31692" fill="#A3B18A"/>
<circle cx="387.069" cy="108.897" r="5.31692" fill="#A3B18A"/>
<circle cx="253.083" cy="123.784" r="5.31692" fill="#A3B18A"/>
<circle cx="267.97" cy="123.784" r="5.31692" fill="#A3B18A"/>
<circle cx="282.858" cy="123.784" r="5.31692" fill="#A3B18A"/>
<circle cx="297.746" cy="123.784" r="5.31692" fill="#A3B18A"/>
<circle cx="312.632" cy="123.784" r="5.31692" fill="#A3B18A"/>
<circle cx="327.52" cy="123.784" r="5.31692" fill="#A3B18A"/>
<circle cx="342.407" cy="123.784" r="5.31692" fill="#A3B18A"/>
<circle cx="357.294" cy="123.784" r="5.31692" fill="#A3B18A"/>
<circle cx="372.182" cy="123.784" r="5.31692" fill="#A3B18A"/>
<circle cx="387.069" cy="123.784" r="5.31692" fill="#A3B18A"/>
<circle cx="253.083" cy="138.672" r="5.31692" fill="#A3B18A"/>
<circle cx="267.97" cy="138.672" r="5.31692" fill="#A3B18A"/>
<circle cx="282.858" cy="138.672" r="5.31692" fill="#A3B18A"/>
<circle cx="297.746" cy="138.672" r="5.31692" fill="#A3B18A"/>
<circle cx="312.632" cy="138.672" r="5.31692" fill="#A3B18A"/>
<circle cx="327.52" cy="138.672" r="5.31692" fill="#A3B18A"/>
<circle cx="342.407" cy="138.672" r="5.31692" fill="#A3B18A"/>
<circle cx="357.294" cy="138.672" r="5.31692" fill="#A3B18A"/>
<circle cx="372.182" cy="138.672" r="5.31692" fill="#A3B18A"/>
<circle cx="387.069" cy="138.672" r="5.31692" fill="#A3B18A"/>
<circle cx="253.083" cy="153.559" r="5.31692" fill="#A3B18A"/>
<circle cx="267.97" cy="153.559" r="5.31692" fill="#A3B18A"/>
<circle cx="282.858" cy="153.559" r="5.31692" fill="#A3B18A"/>
<circle cx="297.746" cy="153.559" r="5.31692" fill="#A3B18A"/>
<circle cx="312.632" cy="153.559" r="5.31692" fill="#A3B18A"/>
<circle cx="327.52" cy="153.559" r="5.31692" fill="#A3B18A"/>
<circle cx="342.407" cy="153.559" r="5.31692" fill="#A3B18A"/>
<circle cx="357.294" cy="153.559" r="5.31692" fill="#A3B18A"/>
<circle cx="372.182" cy="153.559" r="5.31692" fill="#A3B18A"/>
<circle cx="387.069" cy="153.559" r="5.31692" fill="#A3B18A"/>
<circle cx="253.083" cy="168.446" r="5.31692" fill="#A3B18A"/>
<circle cx="267.97" cy="168.446" r="5.31692" fill="#A3B18A"/>
<circle cx="282.858" cy="168.446" r="5.31692" fill="#A3B18A"/>
<circle cx="297.746" cy="168.446" r="5.31692" fill="#A3B18A"/>
<circle cx="312.632" cy="168.446" r="5.31692" fill="#A3B18A"/>
<circle cx="327.52" cy="168.446" r="5.31692" fill="#A3B18A"/>
<circle cx="342.407" cy="168.446" r="5.31692" fill="#A3B18A"/>
<circle cx="357.294" cy="168.446" r="5.31692" fill="#A3B18A"/>
<circle cx="372.182" cy="168.446" r="5.31692" fill="#A3B18A"/>
<circle cx="387.069" cy="168.446" r="5.31692" fill="#A3B18A"/>
<circle cx="253.083" cy="183.334" r="5.31692" fill="#A3B18A"/>
<circle cx="267.97" cy="183.334" r="5.31692" fill="#A3B18A"/>
<circle cx="282.858" cy="183.334" r="5.31692" fill="#A3B18A"/>
<circle cx="297.746" cy="183.334" r="5.31692" fill="#A3B18A"/>
<circle cx="312.632" cy="183.334" r="5.31692" fill="#A3B18A"/>
<circle cx="327.52" cy="183.334" r="5.31692" fill="#A3B18A"/>
<circle cx="342.407" cy="183.334" r="5.31692" fill="#A3B18A"/>
<circle cx="357.294" cy="183.334" r="5.31692" fill="#A3B18A"/>
<circle cx="372.182" cy="183.334" r="5.31692" fill="#A3B18A"/>
<circle cx="387.069" cy="183.334" r="5.31692" fill="#A3B18A"/>
<circle cx="253.083" cy="198.221" r="5.31692" fill="#A3B18A"/>
<circle cx="267.97" cy="198.221" r="5.31692" fill="#A3B18A"/>
<circle cx="282.858" cy="198.221" r="5.31692" fill="#A3B18A"/>
<circle cx="297.746" cy="198.221" r="5.31692" fill="#A3B18A"/>
<circle cx="312.632" cy="198.221" r="5.31692" fill="#A3B18A"/>
<circle cx="327.52" cy="198.221" r="5.31692" fill="#A3B18A"/>
<circle cx="342.407" cy="198.221" r="5.31692" fill="#A3B18A"/>
<circle cx="357.294" cy="198.221" r="5.31692" fill="#A3B18A"/>
<circle cx="372.182" cy="198.221" r="5.31692" fill="#A3B18A"/>
<circle cx="387.069" cy="198.221" r="5.31692" fill="#A3B18A"/>
<circle cx="253.083" cy="213.108" r="5.31692" fill="#A3B18A"/>
<circle cx="267.97" cy="213.108" r="5.31692" fill="#A3B18A"/>
<circle cx="282.858" cy="213.108" r="5.31692" fill="#A3B18A"/>
<circle cx="297.746" cy="213.108" r="5.31692" fill="#A3B18A"/>
<circle cx="312.632" cy="213.108" r="5.31692" fill="#A3B18A"/>
<circle cx="327.52" cy="213.108" r="5.31692" fill="#A3B18A"/>
<circle cx="342.407" cy="213.108" r="5.31692" fill="#A3B18A"/>
<circle cx="357.294" cy="213.108" r="5.31692" fill="#A3B18A"/>
<circle cx="372.182" cy="213.108" r="5.31692" fill="#A3B18A"/>
<circle cx="387.069" cy="213.108" r="5.31692" fill="#A3B18A"/>
<circle cx="253.083" cy="227.996" r="5.31692" fill="#A3B18A"/>
<circle cx="267.97" cy="227.996" r="5.31692" fill="#A3B18A"/>
<circle cx="282.858" cy="227.996" r="5.31692" fill="#A3B18A"/>
<circle cx="297.746" cy="227.996" r="5.31692" fill="#A3B18A"/>
<circle cx="312.632" cy="227.996" r="5.31692" fill="#A3B18A"/>
<circle cx="327.52" cy="227.996" r="5.31692" fill="#A3B18A"/>
<circle cx="342.407" cy="227.996" r="5.31692" fill="#A3B18A"/>
<circle cx="357.294" cy="227.996" r="5.31692" fill="#A3B18A"/>
<circle cx="372.182" cy="227.996" r="5.31692" fill="#A3B18A"/>
<circle cx="387.069" cy="227.996" r="5.31692" fill="#A3B18A"/>
<circle cx="401.959" cy="94.0095" r="5.31692" fill="#A3B18A"/>
<circle cx="416.846" cy="94.0095" r="5.31692" fill="#A3B18A"/>
<circle cx="431.733" cy="94.0095" r="5.31692" fill="#A3B18A"/>
<circle cx="446.621" cy="94.0095" r="5.31692" fill="#A3B18A"/>
<circle cx="461.508" cy="94.0095" r="5.31692" fill="#A3B18A"/>
<circle cx="476.396" cy="94.0095" r="5.31692" fill="#A3B18A"/>
<circle cx="491.283" cy="94.0095" r="5.31692" fill="#A3B18A"/>
<circle cx="506.169" cy="94.0095" r="5.31692" fill="#A3B18A"/>
<circle cx="521.058" cy="94.0095" r="5.31692" fill="#A3B18A"/>
<circle cx="535.945" cy="94.0095" r="5.31692" fill="#A3B18A"/>
<circle cx="401.959" cy="108.897" r="5.31692" fill="#A3B18A"/>
<circle cx="416.846" cy="108.897" r="5.31692" fill="#A3B18A"/>
<circle cx="431.733" cy="108.897" r="5.31692" fill="#A3B18A"/>
<circle cx="446.621" cy="108.897" r="5.31692" fill="#A3B18A"/>
<circle cx="461.508" cy="108.897" r="5.31692" fill="#A3B18A"/>
<circle cx="476.396" cy="108.897" r="5.31692" fill="#A3B18A"/>
<circle cx="491.283" cy="108.897" r="5.31692" fill="#A3B18A"/>
<circle cx="506.169" cy="108.897" r="5.31692" fill="#A3B18A"/>
<circle cx="521.058" cy="108.897" r="5.31692" fill="#A3B18A"/>
<circle cx="535.945" cy="108.897" r="5.31692" fill="#A3B18A"/>
<circle cx="401.959" cy="123.784" r="5.31692" fill="#A3B18A"/>
<circle cx="416.846" cy="123.784" r="5.31692" fill="#A3B18A"/>
<circle cx="431.733" cy="123.784" r="5.31692" fill="#A3B18A"/>
<circle cx="446.621" cy="123.784" r="5.31692" fill="#A3B18A"/>
<circle cx="461.508" cy="123.784" r="5.31692" fill="#A3B18A"/>
<circle cx="476.396" cy="123.784" r="5.31692" fill="#A3B18A"/>
<circle cx="491.283" cy="123.784" r="5.31692" fill="#A3B18A"/>
<circle cx="506.169" cy="123.784" r="5.31692" fill="#A3B18A"/>
<circle cx="521.058" cy="123.784" r="5.31692" fill="#A3B18A"/>
<circle cx="535.945" cy="123.784" r="5.31692" fill="#A3B18A"/>
<circle cx="401.959" cy="138.672" r="5.31692" fill="#A3B18A"/>
<circle cx="416.846" cy="138.672" r="5.31692" fill="#A3B18A"/>
<circle cx="431.733" cy="138.672" r="5.31692" fill="#A3B18A"/>
<circle cx="446.621" cy="138.672" r="5.31692" fill="#A3B18A"/>
<circle cx="461.508" cy="138.672" r="5.31692" fill="#A3B18A"/>
<circle cx="476.396" cy="138.672" r="5.31692" fill="#A3B18A"/>
<circle cx="491.283" cy="138.672" r="5.31692" fill="#A3B18A"/>
<circle cx="506.169" cy="138.672" r="5.31692" fill="#A3B18A"/>
<circle cx="521.058" cy="138.672" r="5.31692" fill="#A3B18A"/>
<circle cx="535.945" cy="138.672" r="5.31692" fill="#A3B18A"/>
<circle cx="401.959" cy="153.56" r="5.31692" fill="#A3B18A"/>
<circle cx="416.846" cy="153.56" r="5.31692" fill="#A3B18A"/>
<circle cx="431.733" cy="153.56" r="5.31692" fill="#A3B18A"/>
<circle cx="446.621" cy="153.56" r="5.31692" fill="#A3B18A"/>
<circle cx="461.508" cy="153.56" r="5.31692" fill="#A3B18A"/>
<circle cx="476.396" cy="153.56" r="5.31692" fill="#A3B18A"/>
<circle cx="491.283" cy="153.56" r="5.31692" fill="#A3B18A"/>
<circle cx="506.169" cy="153.56" r="5.31692" fill="#A3B18A"/>
<circle cx="521.058" cy="153.56" r="5.31692" fill="#A3B18A"/>
<circle cx="535.945" cy="153.56" r="5.31692" fill="#A3B18A"/>
<circle cx="401.959" cy="168.447" r="5.31692" fill="#A3B18A"/>
<circle cx="416.846" cy="168.447" r="5.31692" fill="#A3B18A"/>
<circle cx="431.733" cy="168.447" r="5.31692" fill="#A3B18A"/>
<circle cx="446.621" cy="168.447" r="5.31692" fill="#A3B18A"/>
<circle cx="461.508" cy="168.447" r="5.31692" fill="#A3B18A"/>
<circle cx="476.396" cy="168.447" r="5.31692" fill="#A3B18A"/>
<circle cx="491.283" cy="168.447" r="5.31692" fill="#A3B18A"/>
<circle cx="506.169" cy="168.447" r="5.31692" fill="#A3B18A"/>
<circle cx="521.058" cy="168.447" r="5.31692" fill="#A3B18A"/>
<circle cx="535.945" cy="168.447" r="5.31692" fill="#A3B18A"/>
<circle cx="401.959" cy="183.334" r="5.31692" fill="#A3B18A"/>
<circle cx="416.846" cy="183.334" r="5.31692" fill="#A3B18A"/>
<circle cx="431.733" cy="183.334" r="5.31692" fill="#A3B18A"/>
<circle cx="446.621" cy="183.334" r="5.31692" fill="#A3B18A"/>
<circle cx="461.508" cy="183.334" r="5.31692" fill="#A3B18A"/>
<circle cx="476.396" cy="183.334" r="5.31692" fill="#A3B18A"/>
<circle cx="491.283" cy="183.334" r="5.31692" fill="#A3B18A"/>
<circle cx="506.169" cy="183.334" r="5.31692" fill="#A3B18A"/>
<circle cx="521.058" cy="183.334" r="5.31692" fill="#A3B18A"/>
<circle cx="535.945" cy="183.334" r="5.31692" fill="#A3B18A"/>
<circle cx="401.959" cy="198.222" r="5.31692" fill="#A3B18A"/>
<circle cx="416.846" cy="198.222" r="5.31692" fill="#A3B18A"/>
<circle cx="431.733" cy="198.222" r="5.31692" fill="#A3B18A"/>
<circle cx="446.621" cy="198.222" r="5.31692" fill="#A3B18A"/>
<circle cx="461.508" cy="198.222" r="5.31692" fill="#A3B18A"/>
<circle cx="476.396" cy="198.222" r="5.31692" fill="#A3B18A"/>
<circle cx="491.283" cy="198.222" r="5.31692" fill="#A3B18A"/>
<circle cx="506.169" cy="198.222" r="5.31692" fill="#A3B18A"/>
<circle cx="521.058" cy="198.222" r="5.31692" fill="#A3B18A"/>
<circle cx="535.945" cy="198.222" r="5.31692" fill="#A3B18A"/>
<circle cx="401.959" cy="213.109" r="5.31692" fill="#A3B18A"/>
<circle cx="416.846" cy="213.109" r="5.31692" fill="#A3B18A"/>
<circle cx="431.733" cy="213.109" r="5.31692" fill="#A3B18A"/>
<circle cx="446.621" cy="213.109" r="5.31692" fill="#A3B18A"/>
<circle cx="461.508" cy="213.109" r="5.31692" fill="#A3B18A"/>
<circle cx="476.396" cy="213.109" r="5.31692" fill="#A3B18A"/>
<circle cx="491.283" cy="213.109" r="5.31692" fill="#A3B18A"/>
<circle cx="506.169" cy="213.109" r="5.31692" fill="#A3B18A"/>
<circle cx="521.058" cy="213.109" r="5.31692" fill="#A3B18A"/>
<circle cx="535.945" cy="213.109" r="5.31692" fill="#A3B18A"/>
<circle cx="401.959" cy="227.996" r="5.31692" fill="#A3B18A"/>
<circle cx="416.846" cy="227.996" r="5.31692" fill="#A3B18A"/>
<circle cx="431.733" cy="227.996" r="5.31692" fill="#A3B18A"/>
<circle cx="446.621" cy="227.996" r="5.31692" fill="#A3B18A"/>
<circle cx="461.508" cy="227.996" r="5.31692" fill="#A3B18A"/>
<circle cx="476.396" cy="227.996" r="5.31692" fill="#A3B18A"/>
<circle cx="491.283" cy="227.996" r="5.31692" fill="#A3B18A"/>
<circle cx="506.169" cy="227.996" r="5.31692" fill="#A3B18A"/>
<circle cx="521.058" cy="227.996" r="5.31692" fill="#A3B18A"/>
<circle cx="535.945" cy="227.996" r="5.31692" fill="#A3B18A"/>
<circle cx="550.832" cy="94.0095" r="5.31692" fill="#A3B18A"/>
<circle cx="565.719" cy="94.0095" r="5.31692" fill="#A3B18A"/>
<circle cx="580.606" cy="94.0095" r="5.31692" fill="#A3B18A"/>
<circle cx="595.493" cy="94.0095" r="5.31692" fill="#A3B18A"/>
<circle cx="610.38" cy="94.0095" r="5.31692" fill="#A3B18A"/>
<circle cx="625.269" cy="94.0095" r="5.31692" fill="#A3B18A"/>
<circle cx="640.156" cy="94.0095" r="5.31692" fill="#A3B18A"/>
<circle cx="655.043" cy="94.0095" r="5.31692" fill="#A3B18A"/>
<circle cx="550.832" cy="108.897" r="5.31692" fill="#A3B18A"/>
<circle cx="565.719" cy="108.897" r="5.31692" fill="#A3B18A"/>
<circle cx="580.606" cy="108.897" r="5.31692" fill="#A3B18A"/>
<circle cx="595.493" cy="108.897" r="5.31692" fill="#A3B18A"/>
<circle cx="610.38" cy="108.897" r="5.31692" fill="#A3B18A"/>
<circle cx="625.269" cy="108.897" r="5.31692" fill="#A3B18A"/>
<circle cx="640.156" cy="108.897" r="5.31692" fill="#A3B18A"/>
<circle cx="655.043" cy="108.897" r="5.31692" fill="#A3B18A"/>
<circle cx="550.832" cy="123.784" r="5.31692" fill="#A3B18A"/>
<circle cx="565.719" cy="123.784" r="5.31692" fill="#A3B18A"/>
<circle cx="580.606" cy="123.784" r="5.31692" fill="#A3B18A"/>
<circle cx="595.493" cy="123.784" r="5.31692" fill="#A3B18A"/>
<circle cx="610.38" cy="123.784" r="5.31692" fill="#A3B18A"/>
<circle cx="625.269" cy="123.784" r="5.31692" fill="#A3B18A"/>
<circle cx="640.156" cy="123.784" r="5.31692" fill="#A3B18A"/>
<circle cx="655.043" cy="123.784" r="5.31692" fill="#A3B18A"/>
<circle cx="550.832" cy="138.672" r="5.31692" fill="#A3B18A"/>
<circle cx="565.719" cy="138.672" r="5.31692" fill="#A3B18A"/>
<circle cx="580.606" cy="138.672" r="5.31692" fill="#A3B18A"/>
<circle cx="595.493" cy="138.672" r="5.31692" fill="#A3B18A"/>
<circle cx="610.38" cy="138.672" r="5.31692" fill="#A3B18A"/>
<circle cx="625.269" cy="138.672" r="5.31692" fill="#A3B18A"/>
<circle cx="640.156" cy="138.672" r="5.31692" fill="#A3B18A"/>
<circle cx="655.043" cy="138.672" r="5.31692" fill="#A3B18A"/>
<circle cx="550.832" cy="153.56" r="5.31692" fill="#A3B18A"/>
<circle cx="565.719" cy="153.56" r="5.31692" fill="#A3B18A"/>
<circle cx="580.606" cy="153.56" r="5.31692" fill="#A3B18A"/>
<circle cx="595.493" cy="153.56" r="5.31692" fill="#A3B18A"/>
<circle cx="610.38" cy="153.56" r="5.31692" fill="#A3B18A"/>
<circle cx="625.269" cy="153.56" r="5.31692" fill="#A3B18A"/>
<circle cx="640.156" cy="153.56" r="5.31692" fill="#A3B18A"/>
<circle cx="655.043" cy="153.56" r="5.31692" fill="#A3B18A"/>
<circle cx="550.832" cy="168.447" r="5.31692" fill="#A3B18A"/>
<circle cx="565.719" cy="168.447" r="5.31692" fill="#A3B18A"/>
<circle cx="580.606" cy="168.447" r="5.31692" fill="#A3B18A"/>
<circle cx="595.493" cy="168.447" r="5.31692" fill="#A3B18A"/>
<circle cx="610.38" cy="168.447" r="5.31692" fill="#A3B18A"/>
<circle cx="625.269" cy="168.447" r="5.31692" fill="#A3B18A"/>
<circle cx="640.156" cy="168.447" r="5.31692" fill="#A3B18A"/>
<circle cx="655.043" cy="168.447" r="5.31692" fill="#A3B18A"/>
<circle cx="550.832" cy="183.334" r="5.31692" fill="#A3B18A"/>
<circle cx="565.719" cy="183.334" r="5.31692" fill="#A3B18A"/>
<circle cx="580.606" cy="183.334" r="5.31692" fill="#A3B18A"/>
<circle cx="595.493" cy="183.334" r="5.31692" fill="#A3B18A"/>
<circle cx="610.38" cy="183.334" r="5.31692" fill="#A3B18A"/>
<circle cx="625.269" cy="183.334" r="5.31692" fill="#A3B18A"/>
<circle cx="640.156" cy="183.334" r="5.31692" fill="#A3B18A"/>
<circle cx="655.043" cy="183.334" r="5.31692" fill="#A3B18A"/>
<circle cx="550.832" cy="198.222" r="5.31692" fill="#A3B18A"/>
<circle cx="565.719" cy="198.222" r="5.31692" fill="#A3B18A"/>
<circle cx="580.606" cy="198.222" r="5.31692" fill="#A3B18A"/>
<circle cx="595.493" cy="198.222" r="5.31692" fill="#A3B18A"/>
<circle cx="610.38" cy="198.222" r="5.31692" fill="#A3B18A"/>
<circle cx="625.269" cy="198.222" r="5.31692" fill="#A3B18A"/>
<circle cx="640.156" cy="198.222" r="5.31692" fill="#A3B18A"/>
<circle cx="655.043" cy="198.222" r="5.31692" fill="#A3B18A"/>
<circle cx="550.832" cy="213.109" r="5.31692" fill="#A3B18A"/>
<circle cx="565.719" cy="213.109" r="5.31692" fill="#A3B18A"/>
<circle cx="580.606" cy="213.109" r="5.31692" fill="#A3B18A"/>
<circle cx="595.493" cy="213.109" r="5.31692" fill="#A3B18A"/>
<circle cx="610.38" cy="213.109" r="5.31692" fill="#A3B18A"/>
<circle cx="625.269" cy="213.109" r="5.31692" fill="#A3B18A"/>
<circle cx="640.156" cy="213.109" r="5.31692" fill="#A3B18A"/>
<circle cx="655.043" cy="213.109" r="5.31692" fill="#A3B18A"/>
<circle cx="550.832" cy="227.996" r="5.31692" fill="#A3B18A"/>
<circle cx="565.719" cy="227.996" r="5.31692" fill="#A3B18A"/>
<circle cx="580.606" cy="227.996" r="5.31692" fill="#A3B18A"/>
<circle cx="595.493" cy="227.996" r="5.31692" fill="#A3B18A"/>
<circle cx="610.38" cy="227.996" r="5.31692" fill="#A3B18A"/>
<circle cx="625.269" cy="227.996" r="5.31692" fill="#A3B18A"/>
<circle cx="640.156" cy="227.996" r="5.31692" fill="#A3B18A"/>
<circle cx="655.043" cy="227.996" r="5.31692" fill="#A3B18A"/>
<circle cx="-0.00193119" cy="242.883" r="5.31692" fill="#A3B18A"/>
<circle cx="14.8858" cy="242.883" r="5.31692" fill="#A3B18A"/>
<circle cx="29.7735" cy="242.883" r="5.31692" fill="#A3B18A"/>
<circle cx="44.6607" cy="242.883" r="5.31692" fill="#A3B18A"/>
<circle cx="59.5479" cy="242.883" r="5.31692" fill="#A3B18A"/>
<circle cx="74.4346" cy="242.883" r="5.31692" fill="#A3B18A"/>
<circle cx="89.3223" cy="242.883" r="5.31692" fill="#A3B18A"/>
<circle cx="-0.00193119" cy="257.771" r="5.31692" fill="#A3B18A"/>
<circle cx="14.8858" cy="257.771" r="5.31692" fill="#A3B18A"/>
<circle cx="29.7735" cy="257.771" r="5.31692" fill="#A3B18A"/>
<circle cx="44.6607" cy="257.771" r="5.31692" fill="#A3B18A"/>
<circle cx="59.5479" cy="257.771" r="5.31692" fill="#A3B18A"/>
<circle cx="74.4346" cy="257.771" r="5.31692" fill="#A3B18A"/>
<circle cx="89.3223" cy="257.771" r="5.31692" fill="#A3B18A"/>
<circle cx="-0.00193119" cy="272.658" r="5.31692" fill="#A3B18A"/>
<circle cx="14.8858" cy="272.658" r="5.31692" fill="#A3B18A"/>
<circle cx="29.7735" cy="272.658" r="5.31692" fill="#A3B18A"/>
<circle cx="44.6607" cy="272.658" r="5.31692" fill="#A3B18A"/>
<circle cx="59.5479" cy="272.658" r="5.31692" fill="#A3B18A"/>
<circle cx="74.4346" cy="272.658" r="5.31692" fill="#A3B18A"/>
<circle cx="89.3223" cy="272.658" r="5.31692" fill="#A3B18A"/>
<circle cx="104.211" cy="242.883" r="5.31692" fill="#A3B18A"/>
<circle cx="119.099" cy="242.883" r="5.31692" fill="#A3B18A"/>
<circle cx="133.986" cy="242.883" r="5.31692" fill="#A3B18A"/>
<circle cx="148.874" cy="242.883" r="5.31692" fill="#A3B18A"/>
<circle cx="163.761" cy="242.883" r="5.31692" fill="#A3B18A"/>
<circle cx="178.649" cy="242.883" r="5.31692" fill="#A3B18A"/>
<circle cx="193.536" cy="242.883" r="5.31692" fill="#A3B18A"/>
<circle cx="208.423" cy="242.883" r="5.31692" fill="#A3B18A"/>
<circle cx="223.311" cy="242.883" r="5.31692" fill="#A3B18A"/>
<circle cx="238.198" cy="242.883" r="5.31692" fill="#A3B18A"/>
<circle cx="104.211" cy="257.77" r="5.31692" fill="#A3B18A"/>
<circle cx="119.099" cy="257.77" r="5.31692" fill="#A3B18A"/>
<circle cx="133.986" cy="257.77" r="5.31692" fill="#A3B18A"/>
<circle cx="148.874" cy="257.77" r="5.31692" fill="#A3B18A"/>
<circle cx="163.761" cy="257.77" r="5.31692" fill="#A3B18A"/>
<circle cx="178.649" cy="257.77" r="5.31692" fill="#A3B18A"/>
<circle cx="193.536" cy="257.77" r="5.31692" fill="#A3B18A"/>
<circle cx="208.423" cy="257.77" r="5.31692" fill="#A3B18A"/>
<circle cx="223.311" cy="257.77" r="5.31692" fill="#A3B18A"/>
<circle cx="238.198" cy="257.77" r="5.31692" fill="#A3B18A"/>
<circle cx="104.211" cy="272.658" r="5.31692" fill="#A3B18A"/>
<circle cx="119.099" cy="272.658" r="5.31692" fill="#A3B18A"/>
<circle cx="133.986" cy="272.658" r="5.31692" fill="#A3B18A"/>
<circle cx="148.874" cy="272.658" r="5.31692" fill="#A3B18A"/>
<circle cx="163.761" cy="272.658" r="5.31692" fill="#A3B18A"/>
<circle cx="178.649" cy="272.658" r="5.31692" fill="#A3B18A"/>
<circle cx="193.536" cy="272.658" r="5.31692" fill="#A3B18A"/>
<circle cx="208.423" cy="272.658" r="5.31692" fill="#A3B18A"/>
<circle cx="223.311" cy="272.658" r="5.31692" fill="#A3B18A"/>
<circle cx="238.198" cy="272.658" r="5.31692" fill="#A3B18A"/>
<circle cx="253.083" cy="242.883" r="5.31692" fill="#A3B18A"/>
<circle cx="267.97" cy="242.883" r="5.31692" fill="#A3B18A"/>
<circle cx="282.858" cy="242.883" r="5.31692" fill="#A3B18A"/>
<circle cx="297.746" cy="242.883" r="5.31692" fill="#A3B18A"/>
<circle cx="312.632" cy="242.883" r="5.31692" fill="#A3B18A"/>
<circle cx="327.52" cy="242.883" r="5.31692" fill="#A3B18A"/>
<circle cx="342.407" cy="242.883" r="5.31692" fill="#A3B18A"/>
<circle cx="357.294" cy="242.883" r="5.31692" fill="#A3B18A"/>
<circle cx="372.182" cy="242.883" r="5.31692" fill="#A3B18A"/>
<circle cx="387.069" cy="242.883" r="5.31692" fill="#A3B18A"/>
<circle cx="253.083" cy="257.771" r="5.31692" fill="#A3B18A"/>
<circle cx="267.97" cy="257.771" r="5.31692" fill="#A3B18A"/>
<circle cx="282.858" cy="257.771" r="5.31692" fill="#A3B18A"/>
<circle cx="297.746" cy="257.771" r="5.31692" fill="#A3B18A"/>
<circle cx="312.632" cy="257.771" r="5.31692" fill="#A3B18A"/>
<circle cx="327.52" cy="257.771" r="5.31692" fill="#A3B18A"/>
<circle cx="342.407" cy="257.771" r="5.31692" fill="#A3B18A"/>
<circle cx="357.294" cy="257.771" r="5.31692" fill="#A3B18A"/>
<circle cx="372.182" cy="257.771" r="5.31692" fill="#A3B18A"/>
<circle cx="387.069" cy="257.771" r="5.31692" fill="#A3B18A"/>
<circle cx="253.083" cy="272.658" r="5.31692" fill="#A3B18A"/>
<circle cx="267.97" cy="272.658" r="5.31692" fill="#A3B18A"/>
<circle cx="282.858" cy="272.658" r="5.31692" fill="#A3B18A"/>
<circle cx="297.746" cy="272.658" r="5.31692" fill="#A3B18A"/>
<circle cx="312.632" cy="272.658" r="5.31692" fill="#A3B18A"/>
<circle cx="327.52" cy="272.658" r="5.31692" fill="#A3B18A"/>
<circle cx="342.407" cy="272.658" r="5.31692" fill="#A3B18A"/>
<circle cx="357.294" cy="272.658" r="5.31692" fill="#A3B18A"/>
<circle cx="372.182" cy="272.658" r="5.31692" fill="#A3B18A"/>
<circle cx="387.069" cy="272.658" r="5.31692" fill="#A3B18A"/>
<circle cx="401.959" cy="242.883" r="5.31692" fill="#A3B18A"/>
<circle cx="416.846" cy="242.883" r="5.31692" fill="#A3B18A"/>
<circle cx="431.733" cy="242.883" r="5.31692" fill="#A3B18A"/>
<circle cx="446.621" cy="242.883" r="5.31692" fill="#A3B18A"/>
<circle cx="461.508" cy="242.883" r="5.31692" fill="#A3B18A"/>
<circle cx="476.396" cy="242.883" r="5.31692" fill="#A3B18A"/>
<circle cx="491.283" cy="242.883" r="5.31692" fill="#A3B18A"/>
<circle cx="506.169" cy="242.883" r="5.31692" fill="#A3B18A"/>
<circle cx="521.058" cy="242.883" r="5.31692" fill="#A3B18A"/>
<circle cx="535.945" cy="242.883" r="5.31692" fill="#A3B18A"/>
<circle cx="401.959" cy="257.77" r="5.31692" fill="#A3B18A"/>
<circle cx="416.846" cy="257.77" r="5.31692" fill="#A3B18A"/>
<circle cx="431.733" cy="257.77" r="5.31692" fill="#A3B18A"/>
<circle cx="446.621" cy="257.77" r="5.31692" fill="#A3B18A"/>
<circle cx="461.508" cy="257.77" r="5.31692" fill="#A3B18A"/>
<circle cx="476.396" cy="257.77" r="5.31692" fill="#A3B18A"/>
<circle cx="491.283" cy="257.77" r="5.31692" fill="#A3B18A"/>
<circle cx="506.169" cy="257.77" r="5.31692" fill="#A3B18A"/>
<circle cx="521.058" cy="257.77" r="5.31692" fill="#A3B18A"/>
<circle cx="535.945" cy="257.77" r="5.31692" fill="#A3B18A"/>
<circle cx="401.959" cy="272.658" r="5.31692" fill="#A3B18A"/>
<circle cx="416.846" cy="272.658" r="5.31692" fill="#A3B18A"/>
<circle cx="431.733" cy="272.658" r="5.31692" fill="#A3B18A"/>
<circle cx="446.621" cy="272.658" r="5.31692" fill="#A3B18A"/>
<circle cx="461.508" cy="272.658" r="5.31692" fill="#A3B18A"/>
<circle cx="476.396" cy="272.658" r="5.31692" fill="#A3B18A"/>
<circle cx="491.283" cy="272.658" r="5.31692" fill="#A3B18A"/>
<circle cx="506.169" cy="272.658" r="5.31692" fill="#A3B18A"/>
<circle cx="521.058" cy="272.658" r="5.31692" fill="#A3B18A"/>
<circle cx="535.945" cy="272.658" r="5.31692" fill="#A3B18A"/>
<circle cx="550.832" cy="242.884" r="5.31692" fill="#A3B18A"/>
<circle cx="565.719" cy="242.884" r="5.31692" fill="#A3B18A"/>
<circle cx="580.606" cy="242.884" r="5.31692" fill="#A3B18A"/>
<circle cx="595.493" cy="242.884" r="5.31692" fill="#A3B18A"/>
<circle cx="610.38" cy="242.884" r="5.31692" fill="#A3B18A"/>
<circle cx="625.269" cy="242.884" r="5.31692" fill="#A3B18A"/>
<circle cx="640.156" cy="242.884" r="5.31692" fill="#A3B18A"/>
<circle cx="655.043" cy="242.884" r="5.31692" fill="#A3B18A"/>
<circle cx="550.832" cy="257.771" r="5.31692" fill="#A3B18A"/>
<circle cx="565.719" cy="257.771" r="5.31692" fill="#A3B18A"/>
<circle cx="580.606" cy="257.771" r="5.31692" fill="#A3B18A"/>
<circle cx="595.493" cy="257.771" r="5.31692" fill="#A3B18A"/>
<circle cx="610.38" cy="257.771" r="5.31692" fill="#A3B18A"/>
<circle cx="625.269" cy="257.771" r="5.31692" fill="#A3B18A"/>
<circle cx="640.156" cy="257.771" r="5.31692" fill="#A3B18A"/>
<circle cx="655.043" cy="257.771" r="5.31692" fill="#A3B18A"/>
<circle cx="550.832" cy="272.658" r="5.31692" fill="#A3B18A"/>
<circle cx="565.719" cy="272.658" r="5.31692" fill="#A3B18A"/>
<circle cx="580.606" cy="272.658" r="5.31692" fill="#A3B18A"/>
<circle cx="595.493" cy="272.658" r="5.31692" fill="#A3B18A"/>
<circle cx="610.38" cy="272.658" r="5.31692" fill="#A3B18A"/>
<circle cx="625.269" cy="272.658" r="5.31692" fill="#A3B18A"/>
<circle cx="640.156" cy="272.658" r="5.31692" fill="#A3B18A"/>
<circle cx="655.043" cy="272.658" r="5.31692" fill="#A3B18A"/>
</g>
<path d="M651 169.107C651 180.1 642.956 191.275 626.655 201.991C610.475 212.628 586.865 222.321 557.42 230.508C498.574 246.871 417.107 257.029 327 257.029C236.893 257.029 155.426 246.871 96.5797 230.508C67.1354 222.321 43.5249 212.628 27.3452 201.991C11.0441 191.275 3 180.1 3 169.107C3 158.115 11.0441 146.939 27.3452 136.223C43.5249 125.587 67.1354 115.893 96.5797 107.706C155.426 91.3439 236.893 81.1853 327 81.1853C417.107 81.1853 498.574 91.3439 557.42 107.706C586.865 115.893 610.475 125.587 626.655 136.223C642.956 146.939 651 158.115 651 169.107Z" fill="#EFEDE5" stroke="#A3B18A" stroke-width="6"/>
<path d="M118.268 0V137.81L120.395 156.322H99.1268L97 137.81V0H118.268Z" fill="#216037"/>
<path d="M152.499 187.161V90.1838H172.3V187.161H152.499ZM152.297 71.6138V48.917H172.502V71.6138H152.297Z" fill="#A3B18A"/>
<path d="M198.024 77.915V59.345H216.411V38.7115L232.373 18.0781H236.212V59.345H256.619V77.915H236.212V127.435C236.212 130.461 237.155 132.937 239.04 134.863C240.926 136.789 243.418 137.752 246.516 137.752L258.639 135.689V154.259L247.526 156.322C237.424 156.322 229.679 153.846 224.291 148.894C219.037 143.942 216.411 136.789 216.411 127.435V77.915H198.024Z" fill="#216037"/>
<path d="M302.352 172.935C292.351 163.314 287.351 151.218 287.351 136.649C287.351 122.079 292.351 110.052 302.352 100.569C312.491 90.9472 324.505 86.1365 338.395 86.1365C352.284 86.1365 364.229 90.9472 374.23 100.569C384.369 110.052 389.439 122.079 389.439 136.649C389.439 151.218 384.369 163.314 374.23 172.935C364.229 182.419 352.284 187.161 338.395 187.161C324.505 187.161 312.491 182.419 302.352 172.935ZM316.102 113.764C310.824 119.811 308.185 127.44 308.185 136.649C308.185 145.858 310.824 153.486 316.102 159.534C321.38 165.582 328.811 168.605 338.395 168.605C347.979 168.605 355.41 165.582 360.688 159.534C365.966 153.486 368.605 145.858 368.605 136.649C368.605 127.44 365.966 119.811 360.688 113.764C355.41 107.716 347.979 104.692 338.395 104.692C328.811 104.692 321.38 107.716 316.102 113.764Z" fill="#A3B18A"/>
<path d="M390.502 77.915V59.345H409.211V38.7115L425.453 18.0781H429.36V59.345H450.125V77.915H429.36V127.435C429.36 130.461 430.319 132.937 432.238 134.863C434.157 136.789 436.692 137.752 439.845 137.752L452.18 135.689V154.259L440.873 156.322C430.593 156.322 422.712 153.846 417.23 148.894C411.884 143.942 409.211 136.789 409.211 127.435V77.915H390.502Z" fill="#216037"/>
<path d="M569.156 88.1982V185.099H550.414L548.331 176.852L547.29 175.821L546.249 176.852C539.307 183.725 530.283 187.161 519.176 187.161C505.292 187.161 493.491 182.419 483.773 172.935C474.055 163.451 469.195 151.356 469.195 136.649C469.195 121.942 474.055 109.846 483.773 100.362C493.491 90.8784 505.292 86.1365 519.176 86.1365C530.283 86.1365 539.307 89.5727 546.249 96.4451L547.29 97.4759L548.331 96.4451L550.414 88.1982H569.156ZM541.875 159.328C547.567 153.142 550.414 145.583 550.414 136.649C550.414 127.715 547.567 120.155 541.875 113.97C536.183 107.785 528.964 104.692 520.217 104.692C510.637 104.692 503.14 107.716 497.726 113.764C492.45 119.811 489.812 127.44 489.812 136.649C489.812 145.858 492.45 153.486 497.726 159.534C503.14 165.582 510.637 168.605 520.217 168.605C528.964 168.605 536.183 165.513 541.875 159.328Z" fill="#A3B18A"/>
</svg>
