<svg width="62" height="62" viewBox="0 0 62 62" fill="none" xmlns="http://www.w3.org/2000/svg">
<mask id="path-1-outside-1_167_11" maskUnits="userSpaceOnUse" x="0" y="0" width="62" height="62" fill="black">
<rect fill="white" width="62" height="62"/>
<path fill-rule="evenodd" clip-rule="evenodd" d="M4 31C18.9117 31 31 18.9117 31 4C31 18.9117 43.0883 31 58 31C43.0883 31 31 43.0883 31 58C31 43.0883 18.9117 31 4 31Z"/>
</mask>
<path fill-rule="evenodd" clip-rule="evenodd" d="M4 31C18.9117 31 31 18.9117 31 4C31 18.9117 43.0883 31 58 31C43.0883 31 31 43.0883 31 58C31 43.0883 18.9117 31 4 31Z" fill="#A3B18A"/>
<path d="M35 4C35 1.79086 33.2091 0 31 0C28.7909 0 27 1.79086 27 4H35ZM4 27C1.79086 27 0 28.7909 0 31C0 33.2091 1.79086 35 4 35V27ZM58 35C60.2091 35 62 33.2091 62 31C62 28.7909 60.2091 27 58 27V35ZM27 58C27 60.2091 28.7909 62 31 62C33.2091 62 35 60.2091 35 58H27ZM27 4C27 16.7025 16.7025 27 4 27V35C21.1208 35 35 21.1208 35 4H27ZM58 27C45.2974 27 35 16.7025 35 4H27C27 21.1208 40.8792 35 58 35V27ZM35 58C35 45.2974 45.2974 35 58 35V27C40.8792 27 27 40.8792 27 58H35ZM4 35C16.7025 35 27 45.2974 27 58H35C35 40.8792 21.1208 27 4 27V35Z" fill="#216037" mask="url(#path-1-outside-1_167_11)"/>
</svg>
