<svg width="405" height="517" viewBox="0 0 405 517" fill="none" xmlns="http://www.w3.org/2000/svg">
<rect y="481" width="389" height="36" rx="5" fill="#A3B18A"/>
<rect x="53" y="19" width="326" height="462" fill="#EFEDE5"/>
<rect x="30" width="375" height="30" rx="5" fill="#216037"/>
<rect x="30" y="466" width="375" height="30" rx="5" fill="#216037"/>
<rect x="47" y="466" width="436" height="20" transform="rotate(-90 47 466)" fill="#216037"/>
<rect x="210" y="466" width="436" height="15" transform="rotate(-90 210 466)" fill="#216037"/>
<rect x="67" y="240" width="302" height="15" fill="#216037"/>
<rect x="369" y="466" width="436" height="20" transform="rotate(-90 369 466)" fill="#216037"/>
<mask id="mask0_65_51872" style="mask-type:alpha" maskUnits="userSpaceOnUse" x="30" y="0" width="297" height="16">
<rect x="30" width="297" height="16" rx="5" fill="#A3B18A"/>
</mask>
<g mask="url(#mask0_65_51872)">
<circle cx="33.5" cy="2.5" r="2.5" fill="#A3B18A"/>
<circle cx="40.5" cy="2.5" r="2.5" fill="#A3B18A"/>
<circle cx="47.5" cy="2.5" r="2.5" fill="#A3B18A"/>
<circle cx="54.5" cy="2.5" r="2.5" fill="#A3B18A"/>
<circle cx="61.5005" cy="2.5" r="2.5" fill="#A3B18A"/>
<circle cx="68.5" cy="2.5" r="2.5" fill="#A3B18A"/>
<circle cx="75.5" cy="2.5" r="2.5" fill="#A3B18A"/>
<circle cx="82.5" cy="2.5" r="2.5" fill="#A3B18A"/>
<circle cx="33.5" cy="9.5" r="2.5" fill="#A3B18A"/>
<circle cx="40.5" cy="9.5" r="2.5" fill="#A3B18A"/>
<circle cx="47.5" cy="9.5" r="2.5" fill="#A3B18A"/>
<circle cx="54.5" cy="9.5" r="2.5" fill="#A3B18A"/>
<circle cx="61.5005" cy="9.5" r="2.5" fill="#A3B18A"/>
<circle cx="68.5" cy="9.5" r="2.5" fill="#A3B18A"/>
<circle cx="75.5" cy="9.5" r="2.5" fill="#A3B18A"/>
<circle cx="82.5" cy="9.5" r="2.5" fill="#A3B18A"/>
<circle cx="33.5" cy="16.5" r="2.5" fill="#A3B18A"/>
<circle cx="40.5" cy="16.5" r="2.5" fill="#A3B18A"/>
<circle cx="47.5" cy="16.5" r="2.5" fill="#A3B18A"/>
<circle cx="54.5" cy="16.5" r="2.5" fill="#A3B18A"/>
<circle cx="61.5005" cy="16.5" r="2.5" fill="#A3B18A"/>
<circle cx="68.5" cy="16.5" r="2.5" fill="#A3B18A"/>
<circle cx="75.5" cy="16.5" r="2.5" fill="#A3B18A"/>
<circle cx="82.5" cy="16.5" r="2.5" fill="#A3B18A"/>
<circle cx="89.5" cy="2.5" r="2.5" fill="#A3B18A"/>
<circle cx="96.5" cy="2.5" r="2.5" fill="#A3B18A"/>
<circle cx="103.5" cy="2.5" r="2.5" fill="#A3B18A"/>
<circle cx="110.5" cy="2.5" r="2.5" fill="#A3B18A"/>
<circle cx="117.5" cy="2.5" r="2.5" fill="#A3B18A"/>
<circle cx="124.5" cy="2.5" r="2.5" fill="#A3B18A"/>
<circle cx="131.5" cy="2.5" r="2.5" fill="#A3B18A"/>
<circle cx="138.5" cy="2.5" r="2.5" fill="#A3B18A"/>
<circle cx="145.5" cy="2.5" r="2.5" fill="#A3B18A"/>
<circle cx="152.5" cy="2.5" r="2.5" fill="#A3B18A"/>
<circle cx="89.5" cy="9.5" r="2.5" fill="#A3B18A"/>
<circle cx="96.5" cy="9.5" r="2.5" fill="#A3B18A"/>
<circle cx="103.5" cy="9.5" r="2.5" fill="#A3B18A"/>
<circle cx="110.5" cy="9.5" r="2.5" fill="#A3B18A"/>
<circle cx="117.5" cy="9.5" r="2.5" fill="#A3B18A"/>
<circle cx="124.5" cy="9.5" r="2.5" fill="#A3B18A"/>
<circle cx="131.5" cy="9.5" r="2.5" fill="#A3B18A"/>
<circle cx="138.5" cy="9.5" r="2.5" fill="#A3B18A"/>
<circle cx="145.5" cy="9.5" r="2.5" fill="#A3B18A"/>
<circle cx="152.5" cy="9.5" r="2.5" fill="#A3B18A"/>
<circle cx="89.5" cy="16.5" r="2.5" fill="#A3B18A"/>
<circle cx="96.5" cy="16.5" r="2.5" fill="#A3B18A"/>
<circle cx="103.5" cy="16.5" r="2.5" fill="#A3B18A"/>
<circle cx="110.5" cy="16.5" r="2.5" fill="#A3B18A"/>
<circle cx="117.5" cy="16.5" r="2.5" fill="#A3B18A"/>
<circle cx="124.5" cy="16.5" r="2.5" fill="#A3B18A"/>
<circle cx="131.5" cy="16.5" r="2.5" fill="#A3B18A"/>
<circle cx="138.5" cy="16.5" r="2.5" fill="#A3B18A"/>
<circle cx="145.5" cy="16.5" r="2.5" fill="#A3B18A"/>
<circle cx="152.5" cy="16.5" r="2.5" fill="#A3B18A"/>
<circle cx="159.5" cy="2.5" r="2.5" fill="#A3B18A"/>
<circle cx="166.5" cy="2.5" r="2.5" fill="#A3B18A"/>
<circle cx="173.5" cy="2.5" r="2.5" fill="#A3B18A"/>
<circle cx="180.5" cy="2.5" r="2.5" fill="#A3B18A"/>
<circle cx="187.5" cy="2.5" r="2.5" fill="#A3B18A"/>
<circle cx="194.5" cy="2.5" r="2.5" fill="#A3B18A"/>
<circle cx="201.5" cy="2.5" r="2.5" fill="#A3B18A"/>
<circle cx="208.5" cy="2.5" r="2.5" fill="#A3B18A"/>
<circle cx="215.5" cy="2.5" r="2.5" fill="#A3B18A"/>
<circle cx="222.5" cy="2.5" r="2.5" fill="#A3B18A"/>
<circle cx="159.5" cy="9.5" r="2.5" fill="#A3B18A"/>
<circle cx="166.5" cy="9.5" r="2.5" fill="#A3B18A"/>
<circle cx="173.5" cy="9.5" r="2.5" fill="#A3B18A"/>
<circle cx="180.5" cy="9.5" r="2.5" fill="#A3B18A"/>
<circle cx="187.5" cy="9.5" r="2.5" fill="#A3B18A"/>
<circle cx="194.5" cy="9.5" r="2.5" fill="#A3B18A"/>
<circle cx="201.5" cy="9.5" r="2.5" fill="#A3B18A"/>
<circle cx="208.5" cy="9.5" r="2.5" fill="#A3B18A"/>
<circle cx="215.5" cy="9.5" r="2.5" fill="#A3B18A"/>
<circle cx="222.5" cy="9.5" r="2.5" fill="#A3B18A"/>
<circle cx="159.5" cy="16.5" r="2.5" fill="#A3B18A"/>
<circle cx="166.5" cy="16.5" r="2.5" fill="#A3B18A"/>
<circle cx="173.5" cy="16.5" r="2.5" fill="#A3B18A"/>
<circle cx="180.5" cy="16.5" r="2.5" fill="#A3B18A"/>
<circle cx="187.5" cy="16.5" r="2.5" fill="#A3B18A"/>
<circle cx="194.5" cy="16.5" r="2.5" fill="#A3B18A"/>
<circle cx="201.5" cy="16.5" r="2.5" fill="#A3B18A"/>
<circle cx="208.5" cy="16.5" r="2.5" fill="#A3B18A"/>
<circle cx="215.5" cy="16.5" r="2.5" fill="#A3B18A"/>
<circle cx="222.5" cy="16.5" r="2.5" fill="#A3B18A"/>
<circle cx="229.5" cy="2.5" r="2.5" fill="#A3B18A"/>
<circle cx="236.5" cy="2.5" r="2.5" fill="#A3B18A"/>
<circle cx="243.5" cy="2.5" r="2.5" fill="#A3B18A"/>
<circle cx="250.5" cy="2.5" r="2.5" fill="#A3B18A"/>
<circle cx="257.5" cy="2.5" r="2.5" fill="#A3B18A"/>
<circle cx="264.5" cy="2.5" r="2.5" fill="#A3B18A"/>
<circle cx="271.5" cy="2.5" r="2.5" fill="#A3B18A"/>
<circle cx="278.5" cy="2.5" r="2.5" fill="#A3B18A"/>
<circle cx="285.5" cy="2.5" r="2.5" fill="#A3B18A"/>
<circle cx="292.5" cy="2.5" r="2.5" fill="#A3B18A"/>
<circle cx="229.5" cy="9.5" r="2.5" fill="#A3B18A"/>
<circle cx="236.5" cy="9.5" r="2.5" fill="#A3B18A"/>
<circle cx="243.5" cy="9.5" r="2.5" fill="#A3B18A"/>
<circle cx="250.5" cy="9.5" r="2.5" fill="#A3B18A"/>
<circle cx="257.5" cy="9.5" r="2.5" fill="#A3B18A"/>
<circle cx="264.5" cy="9.5" r="2.5" fill="#A3B18A"/>
<circle cx="271.5" cy="9.5" r="2.5" fill="#A3B18A"/>
<circle cx="278.5" cy="9.5" r="2.5" fill="#A3B18A"/>
<circle cx="285.5" cy="9.5" r="2.5" fill="#A3B18A"/>
<circle cx="292.5" cy="9.5" r="2.5" fill="#A3B18A"/>
<circle cx="229.5" cy="16.5" r="2.5" fill="#A3B18A"/>
<circle cx="236.5" cy="16.5" r="2.5" fill="#A3B18A"/>
<circle cx="243.5" cy="16.5" r="2.5" fill="#A3B18A"/>
<circle cx="250.5" cy="16.5" r="2.5" fill="#A3B18A"/>
<circle cx="257.5" cy="16.5" r="2.5" fill="#A3B18A"/>
<circle cx="264.5" cy="16.5" r="2.5" fill="#A3B18A"/>
<circle cx="271.5" cy="16.5" r="2.5" fill="#A3B18A"/>
<circle cx="278.5" cy="16.5" r="2.5" fill="#A3B18A"/>
<circle cx="285.5" cy="16.5" r="2.5" fill="#A3B18A"/>
<circle cx="292.5" cy="16.5" r="2.5" fill="#A3B18A"/>
<circle cx="299.5" cy="2.5" r="2.5" fill="#A3B18A"/>
<circle cx="306.5" cy="2.5" r="2.5" fill="#A3B18A"/>
<circle cx="313.5" cy="2.5" r="2.5" fill="#A3B18A"/>
<circle cx="320.5" cy="2.5" r="2.5" fill="#A3B18A"/>
<circle cx="327.5" cy="2.5" r="2.5" fill="#A3B18A"/>
<circle cx="299.5" cy="9.5" r="2.5" fill="#A3B18A"/>
<circle cx="306.5" cy="9.5" r="2.5" fill="#A3B18A"/>
<circle cx="313.5" cy="9.5" r="2.5" fill="#A3B18A"/>
<circle cx="320.5" cy="9.5" r="2.5" fill="#A3B18A"/>
<circle cx="327.5" cy="9.5" r="2.5" fill="#A3B18A"/>
<circle cx="299.5" cy="16.5" r="2.5" fill="#A3B18A"/>
<circle cx="306.5" cy="16.5" r="2.5" fill="#A3B18A"/>
<circle cx="313.5" cy="16.5" r="2.5" fill="#A3B18A"/>
<circle cx="320.5" cy="16.5" r="2.5" fill="#A3B18A"/>
<circle cx="327.5" cy="16.5" r="2.5" fill="#A3B18A"/>
</g>
<mask id="mask1_65_51872" style="mask-type:alpha" maskUnits="userSpaceOnUse" x="30" y="466" width="297" height="16">
<rect x="30" y="466" width="297" height="16" rx="5" fill="#A3B18A"/>
</mask>
<g mask="url(#mask1_65_51872)">
<circle cx="33.5" cy="468.5" r="2.5" fill="#A3B18A"/>
<circle cx="40.5" cy="468.5" r="2.5" fill="#A3B18A"/>
<circle cx="47.5" cy="468.5" r="2.5" fill="#A3B18A"/>
<circle cx="54.5" cy="468.5" r="2.5" fill="#A3B18A"/>
<circle cx="61.5005" cy="468.5" r="2.5" fill="#A3B18A"/>
<circle cx="68.5" cy="468.5" r="2.5" fill="#A3B18A"/>
<circle cx="75.5" cy="468.5" r="2.5" fill="#A3B18A"/>
<circle cx="82.5" cy="468.5" r="2.5" fill="#A3B18A"/>
<circle cx="33.5" cy="475.5" r="2.5" fill="#A3B18A"/>
<circle cx="40.5" cy="475.5" r="2.5" fill="#A3B18A"/>
<circle cx="47.5" cy="475.5" r="2.5" fill="#A3B18A"/>
<circle cx="54.5" cy="475.5" r="2.5" fill="#A3B18A"/>
<circle cx="61.5005" cy="475.5" r="2.5" fill="#A3B18A"/>
<circle cx="68.5" cy="475.5" r="2.5" fill="#A3B18A"/>
<circle cx="75.5" cy="475.5" r="2.5" fill="#A3B18A"/>
<circle cx="82.5" cy="475.5" r="2.5" fill="#A3B18A"/>
<circle cx="33.5" cy="482.5" r="2.5" fill="#A3B18A"/>
<circle cx="40.5" cy="482.5" r="2.5" fill="#A3B18A"/>
<circle cx="47.5" cy="482.5" r="2.5" fill="#A3B18A"/>
<circle cx="54.5" cy="482.5" r="2.5" fill="#A3B18A"/>
<circle cx="61.5005" cy="482.5" r="2.5" fill="#A3B18A"/>
<circle cx="68.5" cy="482.5" r="2.5" fill="#A3B18A"/>
<circle cx="75.5" cy="482.5" r="2.5" fill="#A3B18A"/>
<circle cx="82.5" cy="482.5" r="2.5" fill="#A3B18A"/>
<circle cx="89.5" cy="468.5" r="2.5" fill="#A3B18A"/>
<circle cx="96.5" cy="468.5" r="2.5" fill="#A3B18A"/>
<circle cx="103.5" cy="468.5" r="2.5" fill="#A3B18A"/>
<circle cx="110.5" cy="468.5" r="2.5" fill="#A3B18A"/>
<circle cx="117.5" cy="468.5" r="2.5" fill="#A3B18A"/>
<circle cx="124.5" cy="468.5" r="2.5" fill="#A3B18A"/>
<circle cx="131.5" cy="468.5" r="2.5" fill="#A3B18A"/>
<circle cx="138.5" cy="468.5" r="2.5" fill="#A3B18A"/>
<circle cx="145.5" cy="468.5" r="2.5" fill="#A3B18A"/>
<circle cx="152.5" cy="468.5" r="2.5" fill="#A3B18A"/>
<circle cx="89.5" cy="475.5" r="2.5" fill="#A3B18A"/>
<circle cx="96.5" cy="475.5" r="2.5" fill="#A3B18A"/>
<circle cx="103.5" cy="475.5" r="2.5" fill="#A3B18A"/>
<circle cx="110.5" cy="475.5" r="2.5" fill="#A3B18A"/>
<circle cx="117.5" cy="475.5" r="2.5" fill="#A3B18A"/>
<circle cx="124.5" cy="475.5" r="2.5" fill="#A3B18A"/>
<circle cx="131.5" cy="475.5" r="2.5" fill="#A3B18A"/>
<circle cx="138.5" cy="475.5" r="2.5" fill="#A3B18A"/>
<circle cx="145.5" cy="475.5" r="2.5" fill="#A3B18A"/>
<circle cx="152.5" cy="475.5" r="2.5" fill="#A3B18A"/>
<circle cx="89.5" cy="482.5" r="2.5" fill="#A3B18A"/>
<circle cx="96.5" cy="482.5" r="2.5" fill="#A3B18A"/>
<circle cx="103.5" cy="482.5" r="2.5" fill="#A3B18A"/>
<circle cx="110.5" cy="482.5" r="2.5" fill="#A3B18A"/>
<circle cx="117.5" cy="482.5" r="2.5" fill="#A3B18A"/>
<circle cx="124.5" cy="482.5" r="2.5" fill="#A3B18A"/>
<circle cx="131.5" cy="482.5" r="2.5" fill="#A3B18A"/>
<circle cx="138.5" cy="482.5" r="2.5" fill="#A3B18A"/>
<circle cx="145.5" cy="482.5" r="2.5" fill="#A3B18A"/>
<circle cx="152.5" cy="482.5" r="2.5" fill="#A3B18A"/>
<circle cx="159.5" cy="468.5" r="2.5" fill="#A3B18A"/>
<circle cx="166.5" cy="468.5" r="2.5" fill="#A3B18A"/>
<circle cx="173.5" cy="468.5" r="2.5" fill="#A3B18A"/>
<circle cx="180.5" cy="468.5" r="2.5" fill="#A3B18A"/>
<circle cx="187.5" cy="468.5" r="2.5" fill="#A3B18A"/>
<circle cx="194.5" cy="468.5" r="2.5" fill="#A3B18A"/>
<circle cx="201.5" cy="468.5" r="2.5" fill="#A3B18A"/>
<circle cx="208.5" cy="468.5" r="2.5" fill="#A3B18A"/>
<circle cx="215.5" cy="468.5" r="2.5" fill="#A3B18A"/>
<circle cx="222.5" cy="468.5" r="2.5" fill="#A3B18A"/>
<circle cx="159.5" cy="475.5" r="2.5" fill="#A3B18A"/>
<circle cx="166.5" cy="475.5" r="2.5" fill="#A3B18A"/>
<circle cx="173.5" cy="475.5" r="2.5" fill="#A3B18A"/>
<circle cx="180.5" cy="475.5" r="2.5" fill="#A3B18A"/>
<circle cx="187.5" cy="475.5" r="2.5" fill="#A3B18A"/>
<circle cx="194.5" cy="475.5" r="2.5" fill="#A3B18A"/>
<circle cx="201.5" cy="475.5" r="2.5" fill="#A3B18A"/>
<circle cx="208.5" cy="475.5" r="2.5" fill="#A3B18A"/>
<circle cx="215.5" cy="475.5" r="2.5" fill="#A3B18A"/>
<circle cx="222.5" cy="475.5" r="2.5" fill="#A3B18A"/>
<circle cx="159.5" cy="482.5" r="2.5" fill="#A3B18A"/>
<circle cx="166.5" cy="482.5" r="2.5" fill="#A3B18A"/>
<circle cx="173.5" cy="482.5" r="2.5" fill="#A3B18A"/>
<circle cx="180.5" cy="482.5" r="2.5" fill="#A3B18A"/>
<circle cx="187.5" cy="482.5" r="2.5" fill="#A3B18A"/>
<circle cx="194.5" cy="482.5" r="2.5" fill="#A3B18A"/>
<circle cx="201.5" cy="482.5" r="2.5" fill="#A3B18A"/>
<circle cx="208.5" cy="482.5" r="2.5" fill="#A3B18A"/>
<circle cx="215.5" cy="482.5" r="2.5" fill="#A3B18A"/>
<circle cx="222.5" cy="482.5" r="2.5" fill="#A3B18A"/>
<circle cx="229.5" cy="468.5" r="2.5" fill="#A3B18A"/>
<circle cx="236.5" cy="468.5" r="2.5" fill="#A3B18A"/>
<circle cx="243.5" cy="468.5" r="2.5" fill="#A3B18A"/>
<circle cx="250.5" cy="468.5" r="2.5" fill="#A3B18A"/>
<circle cx="257.5" cy="468.5" r="2.5" fill="#A3B18A"/>
<circle cx="264.5" cy="468.5" r="2.5" fill="#A3B18A"/>
<circle cx="271.5" cy="468.5" r="2.5" fill="#A3B18A"/>
<circle cx="278.5" cy="468.5" r="2.5" fill="#A3B18A"/>
<circle cx="285.5" cy="468.5" r="2.5" fill="#A3B18A"/>
<circle cx="292.5" cy="468.5" r="2.5" fill="#A3B18A"/>
<circle cx="229.5" cy="475.5" r="2.5" fill="#A3B18A"/>
<circle cx="236.5" cy="475.5" r="2.5" fill="#A3B18A"/>
<circle cx="243.5" cy="475.5" r="2.5" fill="#A3B18A"/>
<circle cx="250.5" cy="475.5" r="2.5" fill="#A3B18A"/>
<circle cx="257.5" cy="475.5" r="2.5" fill="#A3B18A"/>
<circle cx="264.5" cy="475.5" r="2.5" fill="#A3B18A"/>
<circle cx="271.5" cy="475.5" r="2.5" fill="#A3B18A"/>
<circle cx="278.5" cy="475.5" r="2.5" fill="#A3B18A"/>
<circle cx="285.5" cy="475.5" r="2.5" fill="#A3B18A"/>
<circle cx="292.5" cy="475.5" r="2.5" fill="#A3B18A"/>
<circle cx="229.5" cy="482.5" r="2.5" fill="#A3B18A"/>
<circle cx="236.5" cy="482.5" r="2.5" fill="#A3B18A"/>
<circle cx="243.5" cy="482.5" r="2.5" fill="#A3B18A"/>
<circle cx="250.5" cy="482.5" r="2.5" fill="#A3B18A"/>
<circle cx="257.5" cy="482.5" r="2.5" fill="#A3B18A"/>
<circle cx="264.5" cy="482.5" r="2.5" fill="#A3B18A"/>
<circle cx="271.5" cy="482.5" r="2.5" fill="#A3B18A"/>
<circle cx="278.5" cy="482.5" r="2.5" fill="#A3B18A"/>
<circle cx="285.5" cy="482.5" r="2.5" fill="#A3B18A"/>
<circle cx="292.5" cy="482.5" r="2.5" fill="#A3B18A"/>
<circle cx="299.5" cy="468.5" r="2.5" fill="#A3B18A"/>
<circle cx="306.5" cy="468.5" r="2.5" fill="#A3B18A"/>
<circle cx="313.5" cy="468.5" r="2.5" fill="#A3B18A"/>
<circle cx="320.5" cy="468.5" r="2.5" fill="#A3B18A"/>
<circle cx="327.5" cy="468.5" r="2.5" fill="#A3B18A"/>
<circle cx="299.5" cy="475.5" r="2.5" fill="#A3B18A"/>
<circle cx="306.5" cy="475.5" r="2.5" fill="#A3B18A"/>
<circle cx="313.5" cy="475.5" r="2.5" fill="#A3B18A"/>
<circle cx="320.5" cy="475.5" r="2.5" fill="#A3B18A"/>
<circle cx="327.5" cy="475.5" r="2.5" fill="#A3B18A"/>
<circle cx="299.5" cy="482.5" r="2.5" fill="#A3B18A"/>
<circle cx="306.5" cy="482.5" r="2.5" fill="#A3B18A"/>
<circle cx="313.5" cy="482.5" r="2.5" fill="#A3B18A"/>
<circle cx="320.5" cy="482.5" r="2.5" fill="#A3B18A"/>
<circle cx="327.5" cy="482.5" r="2.5" fill="#A3B18A"/>
</g>
</svg>
