<svg width="808" height="517" viewBox="0 0 808 517" fill="none" xmlns="http://www.w3.org/2000/svg">
<rect y="481" width="564" height="36" rx="5" fill="#A3B18A"/>
<rect x="58" y="19" width="713" height="462" fill="#EFEDE5"/>
<rect x="20" width="788" height="30" rx="5" fill="#216037"/>
<rect x="20" y="466" width="788" height="30" rx="5" fill="#216037"/>
<rect x="538" y="466" width="436" height="15" transform="rotate(-90 538 466)" fill="#A3B18A"/>
<rect x="276" y="466" width="436" height="15" transform="rotate(-90 276 466)" fill="#A3B18A"/>
<rect x="64" y="240" width="701" height="15" fill="#A3B18A"/>
<rect x="44" y="466" width="436" height="20" transform="rotate(-90 44 466)" fill="#216037"/>
<rect x="765" y="466" width="436" height="20" transform="rotate(-90 765 466)" fill="#216037"/>
<mask id="mask0_65_51962" style="mask-type:alpha" maskUnits="userSpaceOnUse" x="20" y="0" width="482" height="16">
<rect x="20" width="482" height="16" rx="5" fill="#A3B18A"/>
</mask>
<g mask="url(#mask0_65_51962)">
<circle cx="21.5" cy="3.5" r="2.5" fill="#A3B18A"/>
<circle cx="28.5" cy="3.5" r="2.5" fill="#A3B18A"/>
<circle cx="35.5" cy="3.5" r="2.5" fill="#A3B18A"/>
<circle cx="42.5" cy="3.5" r="2.5" fill="#A3B18A"/>
<circle cx="49.5005" cy="3.5" r="2.5" fill="#A3B18A"/>
<circle cx="56.5" cy="3.5" r="2.5" fill="#A3B18A"/>
<circle cx="63.5" cy="3.5" r="2.5" fill="#A3B18A"/>
<circle cx="70.5" cy="3.5" r="2.5" fill="#A3B18A"/>
<circle cx="21.5" cy="10.5" r="2.5" fill="#A3B18A"/>
<circle cx="28.5" cy="10.5" r="2.5" fill="#A3B18A"/>
<circle cx="35.5" cy="10.5" r="2.5" fill="#A3B18A"/>
<circle cx="42.5" cy="10.5" r="2.5" fill="#A3B18A"/>
<circle cx="49.5005" cy="10.5" r="2.5" fill="#A3B18A"/>
<circle cx="56.5" cy="10.5" r="2.5" fill="#A3B18A"/>
<circle cx="63.5" cy="10.5" r="2.5" fill="#A3B18A"/>
<circle cx="70.5" cy="10.5" r="2.5" fill="#A3B18A"/>
<circle cx="21.5" cy="17.5" r="2.5" fill="#A3B18A"/>
<circle cx="28.5" cy="17.5" r="2.5" fill="#A3B18A"/>
<circle cx="35.5" cy="17.5" r="2.5" fill="#A3B18A"/>
<circle cx="42.5" cy="17.5" r="2.5" fill="#A3B18A"/>
<circle cx="49.5005" cy="17.5" r="2.5" fill="#A3B18A"/>
<circle cx="56.5" cy="17.5" r="2.5" fill="#A3B18A"/>
<circle cx="63.5" cy="17.5" r="2.5" fill="#A3B18A"/>
<circle cx="70.5" cy="17.5" r="2.5" fill="#A3B18A"/>
<circle cx="77.5" cy="3.5" r="2.5" fill="#A3B18A"/>
<circle cx="84.5" cy="3.5" r="2.5" fill="#A3B18A"/>
<circle cx="91.5" cy="3.5" r="2.5" fill="#A3B18A"/>
<circle cx="98.5" cy="3.5" r="2.5" fill="#A3B18A"/>
<circle cx="105.5" cy="3.5" r="2.5" fill="#A3B18A"/>
<circle cx="112.5" cy="3.5" r="2.5" fill="#A3B18A"/>
<circle cx="119.5" cy="3.5" r="2.5" fill="#A3B18A"/>
<circle cx="126.5" cy="3.5" r="2.5" fill="#A3B18A"/>
<circle cx="133.5" cy="3.5" r="2.5" fill="#A3B18A"/>
<circle cx="140.5" cy="3.5" r="2.5" fill="#A3B18A"/>
<circle cx="77.5" cy="10.5" r="2.5" fill="#A3B18A"/>
<circle cx="84.5" cy="10.5" r="2.5" fill="#A3B18A"/>
<circle cx="91.5" cy="10.5" r="2.5" fill="#A3B18A"/>
<circle cx="98.5" cy="10.5" r="2.5" fill="#A3B18A"/>
<circle cx="105.5" cy="10.5" r="2.5" fill="#A3B18A"/>
<circle cx="112.5" cy="10.5" r="2.5" fill="#A3B18A"/>
<circle cx="119.5" cy="10.5" r="2.5" fill="#A3B18A"/>
<circle cx="126.5" cy="10.5" r="2.5" fill="#A3B18A"/>
<circle cx="133.5" cy="10.5" r="2.5" fill="#A3B18A"/>
<circle cx="140.5" cy="10.5" r="2.5" fill="#A3B18A"/>
<circle cx="77.5" cy="17.5" r="2.5" fill="#A3B18A"/>
<circle cx="84.5" cy="17.5" r="2.5" fill="#A3B18A"/>
<circle cx="91.5" cy="17.5" r="2.5" fill="#A3B18A"/>
<circle cx="98.5" cy="17.5" r="2.5" fill="#A3B18A"/>
<circle cx="105.5" cy="17.5" r="2.5" fill="#A3B18A"/>
<circle cx="112.5" cy="17.5" r="2.5" fill="#A3B18A"/>
<circle cx="119.5" cy="17.5" r="2.5" fill="#A3B18A"/>
<circle cx="126.5" cy="17.5" r="2.5" fill="#A3B18A"/>
<circle cx="133.5" cy="17.5" r="2.5" fill="#A3B18A"/>
<circle cx="140.5" cy="17.5" r="2.5" fill="#A3B18A"/>
<circle cx="147.5" cy="3.5" r="2.5" fill="#A3B18A"/>
<circle cx="154.5" cy="3.5" r="2.5" fill="#A3B18A"/>
<circle cx="161.5" cy="3.5" r="2.5" fill="#A3B18A"/>
<circle cx="168.5" cy="3.5" r="2.5" fill="#A3B18A"/>
<circle cx="175.5" cy="3.5" r="2.5" fill="#A3B18A"/>
<circle cx="182.5" cy="3.5" r="2.5" fill="#A3B18A"/>
<circle cx="189.5" cy="3.5" r="2.5" fill="#A3B18A"/>
<circle cx="196.5" cy="3.5" r="2.5" fill="#A3B18A"/>
<circle cx="203.5" cy="3.5" r="2.5" fill="#A3B18A"/>
<circle cx="210.5" cy="3.5" r="2.5" fill="#A3B18A"/>
<circle cx="147.5" cy="10.5" r="2.5" fill="#A3B18A"/>
<circle cx="154.5" cy="10.5" r="2.5" fill="#A3B18A"/>
<circle cx="161.5" cy="10.5" r="2.5" fill="#A3B18A"/>
<circle cx="168.5" cy="10.5" r="2.5" fill="#A3B18A"/>
<circle cx="175.5" cy="10.5" r="2.5" fill="#A3B18A"/>
<circle cx="182.5" cy="10.5" r="2.5" fill="#A3B18A"/>
<circle cx="189.5" cy="10.5" r="2.5" fill="#A3B18A"/>
<circle cx="196.5" cy="10.5" r="2.5" fill="#A3B18A"/>
<circle cx="203.5" cy="10.5" r="2.5" fill="#A3B18A"/>
<circle cx="210.5" cy="10.5" r="2.5" fill="#A3B18A"/>
<circle cx="147.5" cy="17.5" r="2.5" fill="#A3B18A"/>
<circle cx="154.5" cy="17.5" r="2.5" fill="#A3B18A"/>
<circle cx="161.5" cy="17.5" r="2.5" fill="#A3B18A"/>
<circle cx="168.5" cy="17.5" r="2.5" fill="#A3B18A"/>
<circle cx="175.5" cy="17.5" r="2.5" fill="#A3B18A"/>
<circle cx="182.5" cy="17.5" r="2.5" fill="#A3B18A"/>
<circle cx="189.5" cy="17.5" r="2.5" fill="#A3B18A"/>
<circle cx="196.5" cy="17.5" r="2.5" fill="#A3B18A"/>
<circle cx="203.5" cy="17.5" r="2.5" fill="#A3B18A"/>
<circle cx="210.5" cy="17.5" r="2.5" fill="#A3B18A"/>
<circle cx="217.5" cy="3.5" r="2.5" fill="#A3B18A"/>
<circle cx="224.5" cy="3.5" r="2.5" fill="#A3B18A"/>
<circle cx="231.5" cy="3.5" r="2.5" fill="#A3B18A"/>
<circle cx="238.5" cy="3.5" r="2.5" fill="#A3B18A"/>
<circle cx="245.5" cy="3.5" r="2.5" fill="#A3B18A"/>
<circle cx="252.5" cy="3.5" r="2.5" fill="#A3B18A"/>
<circle cx="259.5" cy="3.5" r="2.5" fill="#A3B18A"/>
<circle cx="266.5" cy="3.5" r="2.5" fill="#A3B18A"/>
<circle cx="273.5" cy="3.5" r="2.5" fill="#A3B18A"/>
<circle cx="280.5" cy="3.5" r="2.5" fill="#A3B18A"/>
<circle cx="217.5" cy="10.5" r="2.5" fill="#A3B18A"/>
<circle cx="224.5" cy="10.5" r="2.5" fill="#A3B18A"/>
<circle cx="231.5" cy="10.5" r="2.5" fill="#A3B18A"/>
<circle cx="238.5" cy="10.5" r="2.5" fill="#A3B18A"/>
<circle cx="245.5" cy="10.5" r="2.5" fill="#A3B18A"/>
<circle cx="252.5" cy="10.5" r="2.5" fill="#A3B18A"/>
<circle cx="259.5" cy="10.5" r="2.5" fill="#A3B18A"/>
<circle cx="266.5" cy="10.5" r="2.5" fill="#A3B18A"/>
<circle cx="273.5" cy="10.5" r="2.5" fill="#A3B18A"/>
<circle cx="280.5" cy="10.5" r="2.5" fill="#A3B18A"/>
<circle cx="217.5" cy="17.5" r="2.5" fill="#A3B18A"/>
<circle cx="224.5" cy="17.5" r="2.5" fill="#A3B18A"/>
<circle cx="231.5" cy="17.5" r="2.5" fill="#A3B18A"/>
<circle cx="238.5" cy="17.5" r="2.5" fill="#A3B18A"/>
<circle cx="245.5" cy="17.5" r="2.5" fill="#A3B18A"/>
<circle cx="252.5" cy="17.5" r="2.5" fill="#A3B18A"/>
<circle cx="259.5" cy="17.5" r="2.5" fill="#A3B18A"/>
<circle cx="266.5" cy="17.5" r="2.5" fill="#A3B18A"/>
<circle cx="273.5" cy="17.5" r="2.5" fill="#A3B18A"/>
<circle cx="280.5" cy="17.5" r="2.5" fill="#A3B18A"/>
<circle cx="287.5" cy="3.5" r="2.5" fill="#A3B18A"/>
<circle cx="294.5" cy="3.5" r="2.5" fill="#A3B18A"/>
<circle cx="301.5" cy="3.5" r="2.5" fill="#A3B18A"/>
<circle cx="308.5" cy="3.5" r="2.5" fill="#A3B18A"/>
<circle cx="315.5" cy="3.5" r="2.5" fill="#A3B18A"/>
<circle cx="322.5" cy="3.5" r="2.5" fill="#A3B18A"/>
<circle cx="329.5" cy="3.5" r="2.5" fill="#A3B18A"/>
<circle cx="336.5" cy="3.5" r="2.5" fill="#A3B18A"/>
<circle cx="343.5" cy="3.5" r="2.5" fill="#A3B18A"/>
<circle cx="350.5" cy="3.5" r="2.5" fill="#A3B18A"/>
<circle cx="287.5" cy="10.5" r="2.5" fill="#A3B18A"/>
<circle cx="294.5" cy="10.5" r="2.5" fill="#A3B18A"/>
<circle cx="301.5" cy="10.5" r="2.5" fill="#A3B18A"/>
<circle cx="308.5" cy="10.5" r="2.5" fill="#A3B18A"/>
<circle cx="315.5" cy="10.5" r="2.5" fill="#A3B18A"/>
<circle cx="322.5" cy="10.5" r="2.5" fill="#A3B18A"/>
<circle cx="329.5" cy="10.5" r="2.5" fill="#A3B18A"/>
<circle cx="336.5" cy="10.5" r="2.5" fill="#A3B18A"/>
<circle cx="343.5" cy="10.5" r="2.5" fill="#A3B18A"/>
<circle cx="350.5" cy="10.5" r="2.5" fill="#A3B18A"/>
<circle cx="287.5" cy="17.5" r="2.5" fill="#A3B18A"/>
<circle cx="294.5" cy="17.5" r="2.5" fill="#A3B18A"/>
<circle cx="301.5" cy="17.5" r="2.5" fill="#A3B18A"/>
<circle cx="308.5" cy="17.5" r="2.5" fill="#A3B18A"/>
<circle cx="315.5" cy="17.5" r="2.5" fill="#A3B18A"/>
<circle cx="322.5" cy="17.5" r="2.5" fill="#A3B18A"/>
<circle cx="329.5" cy="17.5" r="2.5" fill="#A3B18A"/>
<circle cx="336.5" cy="17.5" r="2.5" fill="#A3B18A"/>
<circle cx="343.5" cy="17.5" r="2.5" fill="#A3B18A"/>
<circle cx="350.5" cy="17.5" r="2.5" fill="#A3B18A"/>
<circle cx="357.5" cy="3.5" r="2.5" fill="#A3B18A"/>
<circle cx="364.5" cy="3.5" r="2.5" fill="#A3B18A"/>
<circle cx="371.5" cy="3.5" r="2.5" fill="#A3B18A"/>
<circle cx="378.5" cy="3.5" r="2.5" fill="#A3B18A"/>
<circle cx="385.5" cy="3.5" r="2.5" fill="#A3B18A"/>
<circle cx="392.5" cy="3.5" r="2.5" fill="#A3B18A"/>
<circle cx="399.5" cy="3.5" r="2.5" fill="#A3B18A"/>
<circle cx="406.5" cy="3.5" r="2.5" fill="#A3B18A"/>
<circle cx="413.5" cy="3.5" r="2.5" fill="#A3B18A"/>
<circle cx="420.5" cy="3.5" r="2.5" fill="#A3B18A"/>
<circle cx="357.5" cy="10.5" r="2.5" fill="#A3B18A"/>
<circle cx="364.5" cy="10.5" r="2.5" fill="#A3B18A"/>
<circle cx="371.5" cy="10.5" r="2.5" fill="#A3B18A"/>
<circle cx="378.5" cy="10.5" r="2.5" fill="#A3B18A"/>
<circle cx="385.5" cy="10.5" r="2.5" fill="#A3B18A"/>
<circle cx="392.5" cy="10.5" r="2.5" fill="#A3B18A"/>
<circle cx="399.5" cy="10.5" r="2.5" fill="#A3B18A"/>
<circle cx="406.5" cy="10.5" r="2.5" fill="#A3B18A"/>
<circle cx="413.5" cy="10.5" r="2.5" fill="#A3B18A"/>
<circle cx="420.5" cy="10.5" r="2.5" fill="#A3B18A"/>
<circle cx="357.5" cy="17.5" r="2.5" fill="#A3B18A"/>
<circle cx="364.5" cy="17.5" r="2.5" fill="#A3B18A"/>
<circle cx="371.5" cy="17.5" r="2.5" fill="#A3B18A"/>
<circle cx="378.5" cy="17.5" r="2.5" fill="#A3B18A"/>
<circle cx="385.5" cy="17.5" r="2.5" fill="#A3B18A"/>
<circle cx="392.5" cy="17.5" r="2.5" fill="#A3B18A"/>
<circle cx="399.5" cy="17.5" r="2.5" fill="#A3B18A"/>
<circle cx="406.5" cy="17.5" r="2.5" fill="#A3B18A"/>
<circle cx="413.5" cy="17.5" r="2.5" fill="#A3B18A"/>
<circle cx="420.5" cy="17.5" r="2.5" fill="#A3B18A"/>
<circle cx="427.5" cy="3.5" r="2.5" fill="#A3B18A"/>
<circle cx="434.5" cy="3.5" r="2.5" fill="#A3B18A"/>
<circle cx="441.5" cy="3.5" r="2.5" fill="#A3B18A"/>
<circle cx="448.5" cy="3.5" r="2.5" fill="#A3B18A"/>
<circle cx="455.5" cy="3.5" r="2.5" fill="#A3B18A"/>
<circle cx="462.5" cy="3.5" r="2.5" fill="#A3B18A"/>
<circle cx="469.5" cy="3.5" r="2.5" fill="#A3B18A"/>
<circle cx="476.5" cy="3.5" r="2.5" fill="#A3B18A"/>
<circle cx="483.5" cy="3.5" r="2.5" fill="#A3B18A"/>
<circle cx="490.5" cy="3.5" r="2.5" fill="#A3B18A"/>
<circle cx="427.5" cy="10.5" r="2.5" fill="#A3B18A"/>
<circle cx="434.5" cy="10.5" r="2.5" fill="#A3B18A"/>
<circle cx="441.5" cy="10.5" r="2.5" fill="#A3B18A"/>
<circle cx="448.5" cy="10.5" r="2.5" fill="#A3B18A"/>
<circle cx="455.5" cy="10.5" r="2.5" fill="#A3B18A"/>
<circle cx="462.5" cy="10.5" r="2.5" fill="#A3B18A"/>
<circle cx="469.5" cy="10.5" r="2.5" fill="#A3B18A"/>
<circle cx="476.5" cy="10.5" r="2.5" fill="#A3B18A"/>
<circle cx="483.5" cy="10.5" r="2.5" fill="#A3B18A"/>
<circle cx="490.5" cy="10.5" r="2.5" fill="#A3B18A"/>
<circle cx="427.5" cy="17.5" r="2.5" fill="#A3B18A"/>
<circle cx="434.5" cy="17.5" r="2.5" fill="#A3B18A"/>
<circle cx="441.5" cy="17.5" r="2.5" fill="#A3B18A"/>
<circle cx="448.5" cy="17.5" r="2.5" fill="#A3B18A"/>
<circle cx="455.5" cy="17.5" r="2.5" fill="#A3B18A"/>
<circle cx="462.5" cy="17.5" r="2.5" fill="#A3B18A"/>
<circle cx="469.5" cy="17.5" r="2.5" fill="#A3B18A"/>
<circle cx="476.5" cy="17.5" r="2.5" fill="#A3B18A"/>
<circle cx="483.5" cy="17.5" r="2.5" fill="#A3B18A"/>
<circle cx="490.5" cy="17.5" r="2.5" fill="#A3B18A"/>
<circle cx="497.5" cy="3.5" r="2.5" fill="#A3B18A"/>
<circle cx="497.5" cy="10.5" r="2.5" fill="#A3B18A"/>
<circle cx="497.5" cy="17.5" r="2.5" fill="#A3B18A"/>
</g>
<mask id="mask1_65_51962" style="mask-type:alpha" maskUnits="userSpaceOnUse" x="20" y="466" width="482" height="16">
<rect x="20" y="466" width="482" height="16" rx="5" fill="#A3B18A"/>
</mask>
<g mask="url(#mask1_65_51962)">
<circle cx="21.5" cy="469.5" r="2.5" fill="#A3B18A"/>
<circle cx="28.5" cy="469.5" r="2.5" fill="#A3B18A"/>
<circle cx="35.5" cy="469.5" r="2.5" fill="#A3B18A"/>
<circle cx="42.5" cy="469.5" r="2.5" fill="#A3B18A"/>
<circle cx="49.5005" cy="469.5" r="2.5" fill="#A3B18A"/>
<circle cx="56.5" cy="469.5" r="2.5" fill="#A3B18A"/>
<circle cx="63.5" cy="469.5" r="2.5" fill="#A3B18A"/>
<circle cx="70.5" cy="469.5" r="2.5" fill="#A3B18A"/>
<circle cx="21.5" cy="476.5" r="2.5" fill="#A3B18A"/>
<circle cx="28.5" cy="476.5" r="2.5" fill="#A3B18A"/>
<circle cx="35.5" cy="476.5" r="2.5" fill="#A3B18A"/>
<circle cx="42.5" cy="476.5" r="2.5" fill="#A3B18A"/>
<circle cx="49.5005" cy="476.5" r="2.5" fill="#A3B18A"/>
<circle cx="56.5" cy="476.5" r="2.5" fill="#A3B18A"/>
<circle cx="63.5" cy="476.5" r="2.5" fill="#A3B18A"/>
<circle cx="70.5" cy="476.5" r="2.5" fill="#A3B18A"/>
<circle cx="21.5" cy="483.5" r="2.5" fill="#A3B18A"/>
<circle cx="28.5" cy="483.5" r="2.5" fill="#A3B18A"/>
<circle cx="35.5" cy="483.5" r="2.5" fill="#A3B18A"/>
<circle cx="42.5" cy="483.5" r="2.5" fill="#A3B18A"/>
<circle cx="49.5005" cy="483.5" r="2.5" fill="#A3B18A"/>
<circle cx="56.5" cy="483.5" r="2.5" fill="#A3B18A"/>
<circle cx="63.5" cy="483.5" r="2.5" fill="#A3B18A"/>
<circle cx="70.5" cy="483.5" r="2.5" fill="#A3B18A"/>
<circle cx="77.5" cy="469.5" r="2.5" fill="#A3B18A"/>
<circle cx="84.5" cy="469.5" r="2.5" fill="#A3B18A"/>
<circle cx="91.5" cy="469.5" r="2.5" fill="#A3B18A"/>
<circle cx="98.5" cy="469.5" r="2.5" fill="#A3B18A"/>
<circle cx="105.5" cy="469.5" r="2.5" fill="#A3B18A"/>
<circle cx="112.5" cy="469.5" r="2.5" fill="#A3B18A"/>
<circle cx="119.5" cy="469.5" r="2.5" fill="#A3B18A"/>
<circle cx="126.5" cy="469.5" r="2.5" fill="#A3B18A"/>
<circle cx="133.5" cy="469.5" r="2.5" fill="#A3B18A"/>
<circle cx="140.5" cy="469.5" r="2.5" fill="#A3B18A"/>
<circle cx="77.5" cy="476.5" r="2.5" fill="#A3B18A"/>
<circle cx="84.5" cy="476.5" r="2.5" fill="#A3B18A"/>
<circle cx="91.5" cy="476.5" r="2.5" fill="#A3B18A"/>
<circle cx="98.5" cy="476.5" r="2.5" fill="#A3B18A"/>
<circle cx="105.5" cy="476.5" r="2.5" fill="#A3B18A"/>
<circle cx="112.5" cy="476.5" r="2.5" fill="#A3B18A"/>
<circle cx="119.5" cy="476.5" r="2.5" fill="#A3B18A"/>
<circle cx="126.5" cy="476.5" r="2.5" fill="#A3B18A"/>
<circle cx="133.5" cy="476.5" r="2.5" fill="#A3B18A"/>
<circle cx="140.5" cy="476.5" r="2.5" fill="#A3B18A"/>
<circle cx="77.5" cy="483.5" r="2.5" fill="#A3B18A"/>
<circle cx="84.5" cy="483.5" r="2.5" fill="#A3B18A"/>
<circle cx="91.5" cy="483.5" r="2.5" fill="#A3B18A"/>
<circle cx="98.5" cy="483.5" r="2.5" fill="#A3B18A"/>
<circle cx="105.5" cy="483.5" r="2.5" fill="#A3B18A"/>
<circle cx="112.5" cy="483.5" r="2.5" fill="#A3B18A"/>
<circle cx="119.5" cy="483.5" r="2.5" fill="#A3B18A"/>
<circle cx="126.5" cy="483.5" r="2.5" fill="#A3B18A"/>
<circle cx="133.5" cy="483.5" r="2.5" fill="#A3B18A"/>
<circle cx="140.5" cy="483.5" r="2.5" fill="#A3B18A"/>
<circle cx="147.5" cy="469.5" r="2.5" fill="#A3B18A"/>
<circle cx="154.5" cy="469.5" r="2.5" fill="#A3B18A"/>
<circle cx="161.5" cy="469.5" r="2.5" fill="#A3B18A"/>
<circle cx="168.5" cy="469.5" r="2.5" fill="#A3B18A"/>
<circle cx="175.5" cy="469.5" r="2.5" fill="#A3B18A"/>
<circle cx="182.5" cy="469.5" r="2.5" fill="#A3B18A"/>
<circle cx="189.5" cy="469.5" r="2.5" fill="#A3B18A"/>
<circle cx="196.5" cy="469.5" r="2.5" fill="#A3B18A"/>
<circle cx="203.5" cy="469.5" r="2.5" fill="#A3B18A"/>
<circle cx="210.5" cy="469.5" r="2.5" fill="#A3B18A"/>
<circle cx="147.5" cy="476.5" r="2.5" fill="#A3B18A"/>
<circle cx="154.5" cy="476.5" r="2.5" fill="#A3B18A"/>
<circle cx="161.5" cy="476.5" r="2.5" fill="#A3B18A"/>
<circle cx="168.5" cy="476.5" r="2.5" fill="#A3B18A"/>
<circle cx="175.5" cy="476.5" r="2.5" fill="#A3B18A"/>
<circle cx="182.5" cy="476.5" r="2.5" fill="#A3B18A"/>
<circle cx="189.5" cy="476.5" r="2.5" fill="#A3B18A"/>
<circle cx="196.5" cy="476.5" r="2.5" fill="#A3B18A"/>
<circle cx="203.5" cy="476.5" r="2.5" fill="#A3B18A"/>
<circle cx="210.5" cy="476.5" r="2.5" fill="#A3B18A"/>
<circle cx="147.5" cy="483.5" r="2.5" fill="#A3B18A"/>
<circle cx="154.5" cy="483.5" r="2.5" fill="#A3B18A"/>
<circle cx="161.5" cy="483.5" r="2.5" fill="#A3B18A"/>
<circle cx="168.5" cy="483.5" r="2.5" fill="#A3B18A"/>
<circle cx="175.5" cy="483.5" r="2.5" fill="#A3B18A"/>
<circle cx="182.5" cy="483.5" r="2.5" fill="#A3B18A"/>
<circle cx="189.5" cy="483.5" r="2.5" fill="#A3B18A"/>
<circle cx="196.5" cy="483.5" r="2.5" fill="#A3B18A"/>
<circle cx="203.5" cy="483.5" r="2.5" fill="#A3B18A"/>
<circle cx="210.5" cy="483.5" r="2.5" fill="#A3B18A"/>
<circle cx="217.5" cy="469.5" r="2.5" fill="#A3B18A"/>
<circle cx="224.5" cy="469.5" r="2.5" fill="#A3B18A"/>
<circle cx="231.5" cy="469.5" r="2.5" fill="#A3B18A"/>
<circle cx="238.5" cy="469.5" r="2.5" fill="#A3B18A"/>
<circle cx="245.5" cy="469.5" r="2.5" fill="#A3B18A"/>
<circle cx="252.5" cy="469.5" r="2.5" fill="#A3B18A"/>
<circle cx="259.5" cy="469.5" r="2.5" fill="#A3B18A"/>
<circle cx="266.5" cy="469.5" r="2.5" fill="#A3B18A"/>
<circle cx="273.5" cy="469.5" r="2.5" fill="#A3B18A"/>
<circle cx="280.5" cy="469.5" r="2.5" fill="#A3B18A"/>
<circle cx="217.5" cy="476.5" r="2.5" fill="#A3B18A"/>
<circle cx="224.5" cy="476.5" r="2.5" fill="#A3B18A"/>
<circle cx="231.5" cy="476.5" r="2.5" fill="#A3B18A"/>
<circle cx="238.5" cy="476.5" r="2.5" fill="#A3B18A"/>
<circle cx="245.5" cy="476.5" r="2.5" fill="#A3B18A"/>
<circle cx="252.5" cy="476.5" r="2.5" fill="#A3B18A"/>
<circle cx="259.5" cy="476.5" r="2.5" fill="#A3B18A"/>
<circle cx="266.5" cy="476.5" r="2.5" fill="#A3B18A"/>
<circle cx="273.5" cy="476.5" r="2.5" fill="#A3B18A"/>
<circle cx="280.5" cy="476.5" r="2.5" fill="#A3B18A"/>
<circle cx="217.5" cy="483.5" r="2.5" fill="#A3B18A"/>
<circle cx="224.5" cy="483.5" r="2.5" fill="#A3B18A"/>
<circle cx="231.5" cy="483.5" r="2.5" fill="#A3B18A"/>
<circle cx="238.5" cy="483.5" r="2.5" fill="#A3B18A"/>
<circle cx="245.5" cy="483.5" r="2.5" fill="#A3B18A"/>
<circle cx="252.5" cy="483.5" r="2.5" fill="#A3B18A"/>
<circle cx="259.5" cy="483.5" r="2.5" fill="#A3B18A"/>
<circle cx="266.5" cy="483.5" r="2.5" fill="#A3B18A"/>
<circle cx="273.5" cy="483.5" r="2.5" fill="#A3B18A"/>
<circle cx="280.5" cy="483.5" r="2.5" fill="#A3B18A"/>
<circle cx="287.5" cy="469.5" r="2.5" fill="#A3B18A"/>
<circle cx="294.5" cy="469.5" r="2.5" fill="#A3B18A"/>
<circle cx="301.5" cy="469.5" r="2.5" fill="#A3B18A"/>
<circle cx="308.5" cy="469.5" r="2.5" fill="#A3B18A"/>
<circle cx="315.5" cy="469.5" r="2.5" fill="#A3B18A"/>
<circle cx="322.5" cy="469.5" r="2.5" fill="#A3B18A"/>
<circle cx="329.5" cy="469.5" r="2.5" fill="#A3B18A"/>
<circle cx="336.5" cy="469.5" r="2.5" fill="#A3B18A"/>
<circle cx="343.5" cy="469.5" r="2.5" fill="#A3B18A"/>
<circle cx="350.5" cy="469.5" r="2.5" fill="#A3B18A"/>
<circle cx="287.5" cy="476.5" r="2.5" fill="#A3B18A"/>
<circle cx="294.5" cy="476.5" r="2.5" fill="#A3B18A"/>
<circle cx="301.5" cy="476.5" r="2.5" fill="#A3B18A"/>
<circle cx="308.5" cy="476.5" r="2.5" fill="#A3B18A"/>
<circle cx="315.5" cy="476.5" r="2.5" fill="#A3B18A"/>
<circle cx="322.5" cy="476.5" r="2.5" fill="#A3B18A"/>
<circle cx="329.5" cy="476.5" r="2.5" fill="#A3B18A"/>
<circle cx="336.5" cy="476.5" r="2.5" fill="#A3B18A"/>
<circle cx="343.5" cy="476.5" r="2.5" fill="#A3B18A"/>
<circle cx="350.5" cy="476.5" r="2.5" fill="#A3B18A"/>
<circle cx="287.5" cy="483.5" r="2.5" fill="#A3B18A"/>
<circle cx="294.5" cy="483.5" r="2.5" fill="#A3B18A"/>
<circle cx="301.5" cy="483.5" r="2.5" fill="#A3B18A"/>
<circle cx="308.5" cy="483.5" r="2.5" fill="#A3B18A"/>
<circle cx="315.5" cy="483.5" r="2.5" fill="#A3B18A"/>
<circle cx="322.5" cy="483.5" r="2.5" fill="#A3B18A"/>
<circle cx="329.5" cy="483.5" r="2.5" fill="#A3B18A"/>
<circle cx="336.5" cy="483.5" r="2.5" fill="#A3B18A"/>
<circle cx="343.5" cy="483.5" r="2.5" fill="#A3B18A"/>
<circle cx="350.5" cy="483.5" r="2.5" fill="#A3B18A"/>
<circle cx="357.5" cy="469.5" r="2.5" fill="#A3B18A"/>
<circle cx="364.5" cy="469.5" r="2.5" fill="#A3B18A"/>
<circle cx="371.5" cy="469.5" r="2.5" fill="#A3B18A"/>
<circle cx="378.5" cy="469.5" r="2.5" fill="#A3B18A"/>
<circle cx="385.5" cy="469.5" r="2.5" fill="#A3B18A"/>
<circle cx="392.5" cy="469.5" r="2.5" fill="#A3B18A"/>
<circle cx="399.5" cy="469.5" r="2.5" fill="#A3B18A"/>
<circle cx="406.5" cy="469.5" r="2.5" fill="#A3B18A"/>
<circle cx="413.5" cy="469.5" r="2.5" fill="#A3B18A"/>
<circle cx="420.5" cy="469.5" r="2.5" fill="#A3B18A"/>
<circle cx="357.5" cy="476.5" r="2.5" fill="#A3B18A"/>
<circle cx="364.5" cy="476.5" r="2.5" fill="#A3B18A"/>
<circle cx="371.5" cy="476.5" r="2.5" fill="#A3B18A"/>
<circle cx="378.5" cy="476.5" r="2.5" fill="#A3B18A"/>
<circle cx="385.5" cy="476.5" r="2.5" fill="#A3B18A"/>
<circle cx="392.5" cy="476.5" r="2.5" fill="#A3B18A"/>
<circle cx="399.5" cy="476.5" r="2.5" fill="#A3B18A"/>
<circle cx="406.5" cy="476.5" r="2.5" fill="#A3B18A"/>
<circle cx="413.5" cy="476.5" r="2.5" fill="#A3B18A"/>
<circle cx="420.5" cy="476.5" r="2.5" fill="#A3B18A"/>
<circle cx="357.5" cy="483.5" r="2.5" fill="#A3B18A"/>
<circle cx="364.5" cy="483.5" r="2.5" fill="#A3B18A"/>
<circle cx="371.5" cy="483.5" r="2.5" fill="#A3B18A"/>
<circle cx="378.5" cy="483.5" r="2.5" fill="#A3B18A"/>
<circle cx="385.5" cy="483.5" r="2.5" fill="#A3B18A"/>
<circle cx="392.5" cy="483.5" r="2.5" fill="#A3B18A"/>
<circle cx="399.5" cy="483.5" r="2.5" fill="#A3B18A"/>
<circle cx="406.5" cy="483.5" r="2.5" fill="#A3B18A"/>
<circle cx="413.5" cy="483.5" r="2.5" fill="#A3B18A"/>
<circle cx="420.5" cy="483.5" r="2.5" fill="#A3B18A"/>
<circle cx="427.5" cy="469.5" r="2.5" fill="#A3B18A"/>
<circle cx="434.5" cy="469.5" r="2.5" fill="#A3B18A"/>
<circle cx="441.5" cy="469.5" r="2.5" fill="#A3B18A"/>
<circle cx="448.5" cy="469.5" r="2.5" fill="#A3B18A"/>
<circle cx="455.5" cy="469.5" r="2.5" fill="#A3B18A"/>
<circle cx="462.5" cy="469.5" r="2.5" fill="#A3B18A"/>
<circle cx="469.5" cy="469.5" r="2.5" fill="#A3B18A"/>
<circle cx="476.5" cy="469.5" r="2.5" fill="#A3B18A"/>
<circle cx="483.5" cy="469.5" r="2.5" fill="#A3B18A"/>
<circle cx="490.5" cy="469.5" r="2.5" fill="#A3B18A"/>
<circle cx="427.5" cy="476.5" r="2.5" fill="#A3B18A"/>
<circle cx="434.5" cy="476.5" r="2.5" fill="#A3B18A"/>
<circle cx="441.5" cy="476.5" r="2.5" fill="#A3B18A"/>
<circle cx="448.5" cy="476.5" r="2.5" fill="#A3B18A"/>
<circle cx="455.5" cy="476.5" r="2.5" fill="#A3B18A"/>
<circle cx="462.5" cy="476.5" r="2.5" fill="#A3B18A"/>
<circle cx="469.5" cy="476.5" r="2.5" fill="#A3B18A"/>
<circle cx="476.5" cy="476.5" r="2.5" fill="#A3B18A"/>
<circle cx="483.5" cy="476.5" r="2.5" fill="#A3B18A"/>
<circle cx="490.5" cy="476.5" r="2.5" fill="#A3B18A"/>
<circle cx="427.5" cy="483.5" r="2.5" fill="#A3B18A"/>
<circle cx="434.5" cy="483.5" r="2.5" fill="#A3B18A"/>
<circle cx="441.5" cy="483.5" r="2.5" fill="#A3B18A"/>
<circle cx="448.5" cy="483.5" r="2.5" fill="#A3B18A"/>
<circle cx="455.5" cy="483.5" r="2.5" fill="#A3B18A"/>
<circle cx="462.5" cy="483.5" r="2.5" fill="#A3B18A"/>
<circle cx="469.5" cy="483.5" r="2.5" fill="#A3B18A"/>
<circle cx="476.5" cy="483.5" r="2.5" fill="#A3B18A"/>
<circle cx="483.5" cy="483.5" r="2.5" fill="#A3B18A"/>
<circle cx="490.5" cy="483.5" r="2.5" fill="#A3B18A"/>
<circle cx="497.5" cy="469.5" r="2.5" fill="#A3B18A"/>
<circle cx="497.5" cy="476.5" r="2.5" fill="#A3B18A"/>
<circle cx="497.5" cy="483.5" r="2.5" fill="#A3B18A"/>
</g>
</svg>
